AcariSans-Light.ufo
<glyph name="exclam" format="2">
  <advance width="623"/>
  <unicode hex="0021"/>
  <outline>
    <contour>
      <point x="359" y="368" type="line"/>
      <point x="263" y="368" type="line"/>
      <point x="235" y="1418" type="line"/>
      <point x="388" y="1418" type="line"/>
    </contour>
    <contour>
      <point x="400" y="0" type="line"/>
      <point x="223" y="0" type="line"/>
      <point x="223" y="175" type="line"/>
      <point x="400" y="175" type="line"/>
    </contour>
  </outline>
</glyph>
<glyph name="quotedbl" format="2">
  <advance width="889"/>
  <unicode hex="0022"/>
  <outline>
    <contour>
      <point x="357" y="998" type="line"/>
      <point x="241" y="998" type="line"/>
      <point x="241" y="1396" type="line"/>
      <point x="357" y="1396" type="line"/>
    </contour>
    <contour>
      <point x="647" y="998" type="line"/>
      <point x="529" y="998" type="line"/>
      <point x="529" y="1396" type="line"/>
      <point x="647" y="1396" type="line"/>
    </contour>
  </outline>
</glyph>
<glyph name="dollar" format="2">
  <advance width="1100"/>
  <unicode hex="0024"/>
  <outline>
    <contour>
      <point x="591" y="-244" type="line"/>
      <point x="507" y="-244" type="line"/>
      <point x="507" y="-12" type="line"/>
      <point x="427" y="-5"/>
      <point x="288" y="51"/>
      <point x="179" y="144"/>
      <point x="105" y="274"/>
      <point x="91" y="357" type="qcurve"/>
      <point x="220" y="395" type="line"/>
      <point x="228" y="325"/>
      <point x="289" y="219"/>
      <point x="381" y="149"/>
      <point x="500" y="113"/>
      <point x="566" y="113" type="qcurve" smooth="yes"/>
      <point x="628" y="113"/>
      <point x="734" y="143"/>
      <point x="812" y="207"/>
      <point x="857" y="305"/>
      <point x="857" y="373" type="qcurve" smooth="yes"/>
      <point x="857" y="428"/>
      <point x="824" y="495"/>
      <point x="799" y="524" type="qcurve" smooth="yes"/>
      <point x="781" y="545"/>
      <point x="720" y="589"/>
      <point x="643" y="634"/>
      <point x="555" y="679"/>
      <point x="466" y="724"/>
      <point x="382" y="768"/>
      <point x="348" y="789" type="qcurve" smooth="yes"/>
      <point x="270" y="837"/>
      <point x="183" y="972"/>
      <point x="183" y="1065" type="qcurve" smooth="yes"/>
      <point x="183" y="1137"/>
      <point x="231" y="1256"/>
      <point x="316" y="1346"/>
      <point x="435" y="1403"/>
      <point x="507" y="1413" type="qcurve"/>
      <point x="507" y="1640" type="line"/>
      <point x="591" y="1640" type="line"/>
      <point x="591" y="1415" type="line"/>
      <point x="825" y="1397"/>
      <point x="933" y="1198" type="qcurve"/>
      <point x="830" y="1128" type="line"/>
      <point x="783" y="1213"/>
      <point x="636" y="1296"/>
      <point x="554" y="1296" type="qcurve" smooth="yes"/>
      <point x="509" y="1296"/>
      <point x="424" y="1266"/>
      <point x="358" y="1210"/>
      <point x="319" y="1130"/>
      <point x="319" y="1081" type="qcurve" smooth="yes"/>
      <point x="319" y="1028"/>
      <point x="363" y="946"/>
      <point x="441" y="878"/>
      <point x="551" y="819"/>
      <point x="617" y="790" type="qcurve"/>
      <point x="675" y="763"/>
      <point x="768" y="716"/>
      <point x="842" y="669"/>
      <point x="900" y="619"/>
      <point x="923" y="590" type="qcurve" smooth="yes"/>
      <point x="992" y="506"/>
      <point x="992" y="384" type="qcurve" smooth="yes"/>
      <point x="992" y="295"/>
      <point x="932" y="151"/>
      <point x="825" y="47"/>
      <point x="678" y="-12"/>
      <point x="591" y="-15" type="qcurve"/>
    </contour>
  </outline>
</glyph>
<glyph name="quotesingle" format="2">
  <advance width="598"/>
  <unicode hex="0027"/>
  <outline>
    <contour>
      <point x="357" y="1026" type="line"/>
      <point x="241" y="1026" type="line"/>
      <point x="241" y="1425" type="line"/>
      <point x="357" y="1425" type="line"/>
    </contour>
  </outline>
</glyph>
<glyph name="plus" format="2">
  <advance width="1255"/>
  <unicode hex="002B"/>
  <outline>
    <contour>
      <point x="675" y="105" type="line"/>
      <point x="579" y="105" type="line"/>
      <point x="579" y="571" type="line"/>
      <point x="127" y="571" type="line"/>
      <point x="127" y="666" type="line"/>
      <point x="579" y="666" type="line"/>
      <point x="579" y="1129" type="line"/>
      <point x="675" y="1129" type="line"/>
      <point x="675" y="666" type="line"/>
      <point x="1127" y="666" type="line"/>
      <point x="1127" y="571" type="line"/>
      <point x="675" y="571" type="line"/>
    </contour>
  </outline>
</glyph>
<glyph name="comma" format="2">
  <advance width="612"/>
  <unicode hex="002C"/>
  <outline>
    <contour>
      <point x="224" y="-327" type="line"/>
      <point x="149" y="-327" type="line"/>
      <point x="292" y="258" type="line"/>
      <point x="462" y="258" type="line"/>
    </contour>
  </outline>
</glyph>
<glyph name="period" format="2">
  <advance width="658"/>
  <unicode hex="002E"/>
  <outline>
    <contour>
      <point x="421" y="0" type="line"/>
      <point x="237" y="0" type="line"/>
      <point x="237" y="175" type="line"/>
      <point x="421" y="175" type="line"/>
    </contour>
  </outline>
</glyph>
<glyph name="slash" format="2">
  <advance width="916"/>
  <unicode hex="002F"/>
  <outline>
    <contour>
      <point x="156" y="-426" type="line"/>
      <point x="22" y="-426" type="line"/>
      <point x="762" y="1498" type="line"/>
      <point x="894" y="1498" type="line"/>
    </contour>
  </outline>
</glyph>
<glyph name="one" format="2">
  <advance width="1200"/>
  <unicode hex="0031"/>
  <outline>
    <contour>
      <point x="748" y="0" type="line"/>
      <point x="613" y="0" type="line"/>
      <point x="613" y="1087" type="line"/>
      <point x="238" y="1087" type="line"/>
      <point x="238" y="1194" type="line"/>
      <point x="447" y="1194" type="line" smooth="yes"/>
      <point x="531" y="1194"/>
      <point x="627" y="1292"/>
      <point x="627" y="1373" type="qcurve" smooth="yes"/>
      <point x="627" y="1396" type="line"/>
      <point x="748" y="1396" type="line"/>
    </contour>
  </outline>
</glyph>
<glyph name="two" format="2">
  <advance width="1200"/>
  <unicode hex="0032"/>
  <outline>
    <contour>
      <point x="1063" y="0" type="line"/>
      <point x="118" y="0" type="line"/>
      <point x="118" y="126" type="line"/>
      <point x="201" y="179"/>
      <point x="333" y="273"/>
      <point x="442" y="363"/>
      <point x="534" y="452"/>
      <point x="577" y="500" type="qcurve"/>
      <point x="646" y="573"/>
      <point x="750" y="703"/>
      <point x="821" y="827"/>
      <point x="856" y="951"/>
      <point x="856" y="1018" type="qcurve" smooth="yes"/>
      <point x="856" y="1085"/>
      <point x="818" y="1188"/>
      <point x="750" y="1259"/>
      <point x="655" y="1296"/>
      <point x="598" y="1296" type="qcurve" smooth="yes"/>
      <point x="532" y="1296"/>
      <point x="428" y="1247"/>
      <point x="354" y="1156"/>
      <point x="313" y="1029"/>
      <point x="311" y="951" type="qcurve"/>
      <point x="183" y="965" type="line"/>
      <point x="183" y="1058"/>
      <point x="234" y="1213"/>
      <point x="282" y="1276" type="qcurve" smooth="yes"/>
      <point x="336" y="1345"/>
      <point x="492" y="1415"/>
      <point x="593" y="1415" type="qcurve" smooth="yes"/>
      <point x="687" y="1415"/>
      <point x="836" y="1358"/>
      <point x="940" y="1254"/>
      <point x="995" y="1108"/>
      <point x="995" y="1020" type="qcurve" smooth="yes"/>
      <point x="995" y="942"/>
      <point x="955" y="797"/>
      <point x="872" y="652"/>
      <point x="746" y="501"/>
      <point x="661" y="416" type="qcurve" smooth="yes"/>
      <point x="605" y="359"/>
      <point x="518" y="278"/>
      <point x="443" y="215"/>
      <point x="371" y="165"/>
      <point x="331" y="139" type="qcurve" smooth="yes"/>
      <point x="320" y="132"/>
      <point x="299" y="119"/>
      <point x="288" y="111" type="qcurve"/>
      <point x="1063" y="111" type="line"/>
    </contour>
  </outline>
</glyph>
<glyph name="three" format="2">
  <advance width="1200"/>
  <unicode hex="0033"/>
  <outline>
    <contour>
      <point x="577" y="-20" type="qcurve" smooth="yes"/>
      <point x="485" y="-20"/>
      <point x="318" y="28"/>
      <point x="192" y="127"/>
      <point x="117" y="279"/>
      <point x="117" y="383" type="qcurve"/>
      <point x="146" y="386"/>
      <point x="209" y="392"/>
      <point x="238" y="396" type="qcurve"/>
      <point x="238" y="324"/>
      <point x="293" y="212"/>
      <point x="386" y="135"/>
      <point x="510" y="94"/>
      <point x="578" y="94" type="qcurve" smooth="yes"/>
      <point x="636" y="94"/>
      <point x="757" y="130"/>
      <point x="854" y="205"/>
      <point x="915" y="316"/>
      <point x="915" y="390" type="qcurve" smooth="yes"/>
      <point x="915" y="393"/>
      <point x="915" y="395" type="qcurve" smooth="yes"/>
      <point x="915" y="465"/>
      <point x="865" y="573"/>
      <point x="778" y="645"/>
      <point x="662" y="682"/>
      <point x="596" y="682" type="qcurve" smooth="yes"/>
      <point x="512" y="682" type="line"/>
      <point x="512" y="800" type="line"/>
      <point x="596" y="800" type="line" smooth="yes"/>
      <point x="645" y="800"/>
      <point x="733" y="829"/>
      <point x="799" y="889"/>
      <point x="838" y="981"/>
      <point x="838" y="1044" type="qcurve" smooth="yes"/>
      <point x="838" y="1103"/>
      <point x="795" y="1198"/>
      <point x="723" y="1264"/>
      <point x="627" y="1300"/>
      <point x="575" y="1300" type="qcurve" smooth="yes"/>
      <point x="516" y="1300"/>
      <point x="417" y="1262"/>
      <point x="345" y="1194"/>
      <point x="304" y="1101"/>
      <point x="303" y="1047" type="qcurve"/>
      <point x="184" y="1062" type="line"/>
      <point x="184" y="1144"/>
      <point x="243" y="1276"/>
      <point x="348" y="1368"/>
      <point x="490" y="1417"/>
      <point x="574" y="1417" type="qcurve" smooth="yes"/>
      <point x="649" y="1417"/>
      <point x="789" y="1370"/>
      <point x="898" y="1280"/>
      <point x="963" y="1147"/>
      <point x="963" y="1060" type="qcurve" smooth="yes"/>
      <point x="963" y="961"/>
      <point x="874" y="802"/>
      <point x="787" y="751" type="qcurve"/>
      <point x="910" y="709"/>
      <point x="1035" y="525"/>
      <point x="1037" y="393" type="qcurve"/>
      <point x="1037" y="390"/>
      <point x="1037" y="387" type="qcurve" smooth="yes"/>
      <point x="1037" y="289"/>
      <point x="967" y="136"/>
      <point x="843" y="33"/>
      <point x="674" y="-20"/>
    </contour>
  </outline>
</glyph>
<glyph name="four" format="2">
  <advance width="1200"/>
  <unicode hex="0034"/>
  <outline>
    <contour>
      <point x="860" y="0" type="line"/>
      <point x="728" y="0" type="line"/>
      <point x="728" y="387" type="line"/>
      <point x="82" y="387" type="line"/>
      <point x="82" y="463" type="line"/>
      <point x="736" y="1396" type="line"/>
      <point x="860" y="1396" type="line"/>
      <point x="860" y="498" type="line"/>
      <point x="1082" y="498" type="line"/>
      <point x="1082" y="387" type="line"/>
      <point x="860" y="387" type="line"/>
    </contour>
    <contour>
      <point x="728" y="498" type="line"/>
      <point x="728" y="1194" type="line"/>
      <point x="236" y="498" type="line"/>
    </contour>
  </outline>
</glyph>
<glyph name="five" format="2">
  <advance width="1200"/>
  <unicode hex="0035"/>
  <outline>
    <contour>
      <point x="598" y="-20" type="qcurve" smooth="yes"/>
      <point x="508" y="-20"/>
      <point x="359" y="38"/>
      <point x="246" y="140"/>
      <point x="170" y="278"/>
      <point x="152" y="358" type="qcurve"/>
      <point x="200" y="376" type="line" smooth="yes"/>
      <point x="217" y="382"/>
      <point x="253" y="394"/>
      <point x="270" y="401" type="qcurve"/>
      <point x="277" y="363"/>
      <point x="303" y="288"/>
      <point x="342" y="220"/>
      <point x="392" y="162"/>
      <point x="422" y="141" type="qcurve" smooth="yes"/>
      <point x="487" y="95"/>
      <point x="594" y="95" type="qcurve" smooth="yes"/>
      <point x="673" y="95"/>
      <point x="795" y="153"/>
      <point x="877" y="252"/>
      <point x="920" y="382"/>
      <point x="920" y="452" type="qcurve" smooth="yes"/>
      <point x="920" y="516"/>
      <point x="882" y="639"/>
      <point x="806" y="734"/>
      <point x="690" y="790"/>
      <point x="614" y="790" type="qcurve" smooth="yes"/>
      <point x="612" y="790"/>
      <point x="609" y="790" type="qcurve" smooth="yes"/>
      <point x="514" y="790"/>
      <point x="360" y="708"/>
      <point x="315" y="636" type="qcurve"/>
      <point x="201" y="700" type="line"/>
      <point x="320" y="1396" type="line"/>
      <point x="992" y="1396" type="line"/>
      <point x="992" y="1281" type="line"/>
      <point x="422" y="1281" type="line"/>
      <point x="341" y="785" type="line"/>
      <point x="449" y="901"/>
      <point x="627" y="901" type="qcurve" smooth="yes"/>
      <point x="630" y="901"/>
      <point x="632" y="901" type="qcurve" smooth="yes"/>
      <point x="727" y="901"/>
      <point x="883" y="829"/>
      <point x="995" y="705"/>
      <point x="1055" y="542"/>
      <point x="1055" y="452" type="qcurve" smooth="yes"/>
      <point x="1055" y="356"/>
      <point x="987" y="184"/>
      <point x="865" y="55"/>
      <point x="697" y="-20"/>
    </contour>
  </outline>
</glyph>
<glyph name="six" format="2">
  <advance width="1200"/>
  <unicode hex="0036"/>
  <outline>
    <contour>
      <point x="619" y="1397" type="line"/>
      <point x="761" y="1397" type="line"/>
      <point x="453" y="864" type="line"/>
      <point x="524" y="880"/>
      <point x="599" y="880" type="qcurve" smooth="yes"/>
      <point x="669" y="880"/>
      <point x="791" y="849"/>
      <point x="891" y="791"/>
      <point x="970" y="709"/>
      <point x="998" y="658" type="qcurve" smooth="yes"/>
      <point x="1051" y="561"/>
      <point x="1051" y="442" type="qcurve" smooth="yes"/>
      <point x="1051" y="357"/>
      <point x="988" y="192"/>
      <point x="871" y="61"/>
      <point x="703" y="-20"/>
      <point x="598" y="-20" type="qcurve" smooth="yes"/>
      <point x="595" y="-20"/>
      <point x="593" y="-20" type="qcurve" smooth="yes"/>
      <point x="502" y="-20"/>
      <point x="340" y="52"/>
      <point x="217" y="178"/>
      <point x="148" y="344"/>
      <point x="148" y="435" type="qcurve" smooth="yes"/>
      <point x="148" y="437"/>
      <point x="148" y="440" type="qcurve" smooth="yes"/>
      <point x="148" y="570"/>
      <point x="212" y="680" type="qcurve"/>
    </contour>
    <contour>
      <point x="599" y="771" type="qcurve" smooth="yes"/>
      <point x="532" y="771"/>
      <point x="414" y="723"/>
      <point x="327" y="635"/>
      <point x="276" y="513"/>
      <point x="276" y="440" type="qcurve" smooth="yes"/>
      <point x="276" y="437"/>
      <point x="276" y="435" type="qcurve" smooth="yes"/>
      <point x="276" y="370"/>
      <point x="326" y="248"/>
      <point x="414" y="154"/>
      <point x="532" y="99"/>
      <point x="599" y="99" type="qcurve" smooth="yes"/>
      <point x="601" y="99"/>
      <point x="604" y="99" type="qcurve" smooth="yes"/>
      <point x="668" y="99"/>
      <point x="785" y="154"/>
      <point x="873" y="248"/>
      <point x="923" y="370"/>
      <point x="923" y="435" type="qcurve" smooth="yes"/>
      <point x="923" y="445" type="line" smooth="yes"/>
      <point x="923" y="512"/>
      <point x="874" y="632"/>
      <point x="787" y="720"/>
      <point x="668" y="771"/>
    </contour>
  </outline>
</glyph>
<glyph name="seven" format="2">
  <advance width="1200"/>
  <unicode hex="0037"/>
  <outline>
    <contour>
      <point x="452" y="0" type="line"/>
      <point x="303" y="0" type="line"/>
      <point x="899" y="1281" type="line"/>
      <point x="140" y="1281" type="line"/>
      <point x="140" y="1396" type="line"/>
      <point x="1051" y="1396" type="line"/>
      <point x="1051" y="1331" type="line"/>
    </contour>
  </outline>
</glyph>
<glyph name="nine" format="2">
  <advance width="1200"/>
  <unicode hex="0039"/>
  <outline>
    <contour>
      <point x="574" y="0" type="line"/>
      <point x="434" y="0" type="line"/>
      <point x="740" y="533" type="line"/>
      <point x="667" y="516"/>
      <point x="594" y="516" type="qcurve" smooth="yes"/>
      <point x="592" y="516"/>
      <point x="589" y="516" type="qcurve" smooth="yes"/>
      <point x="448" y="516"/>
      <point x="248" y="638"/>
      <point x="193" y="745" type="qcurve" smooth="yes"/>
      <point x="168" y="792"/>
      <point x="143" y="892"/>
      <point x="143" y="947" type="qcurve" smooth="yes"/>
      <point x="143" y="951"/>
      <point x="143" y="955" type="qcurve" smooth="yes"/>
      <point x="143" y="1040"/>
      <point x="205" y="1205"/>
      <point x="322" y="1336"/>
      <point x="490" y="1417"/>
      <point x="596" y="1417" type="qcurve" smooth="yes"/>
      <point x="687" y="1417"/>
      <point x="852" y="1345"/>
      <point x="975" y="1220"/>
      <point x="1046" y="1054"/>
      <point x="1046" y="962" type="qcurve" smooth="yes"/>
      <point x="1046" y="960"/>
      <point x="1046" y="957" type="qcurve" smooth="yes"/>
      <point x="1046" y="827"/>
      <point x="982" y="716" type="qcurve" smooth="yes"/>
    </contour>
    <contour>
      <point x="594" y="626" type="qcurve" smooth="yes"/>
      <point x="597" y="626"/>
      <point x="599" y="626" type="qcurve" smooth="yes"/>
      <point x="662" y="626"/>
      <point x="778" y="673"/>
      <point x="866" y="760"/>
      <point x="917" y="883"/>
      <point x="917" y="957" type="qcurve" smooth="yes"/>
      <point x="917" y="960"/>
      <point x="917" y="962" type="qcurve" smooth="yes"/>
      <point x="917" y="1027"/>
      <point x="867" y="1148"/>
      <point x="778" y="1242"/>
      <point x="660" y="1298"/>
      <point x="594" y="1298" type="qcurve" smooth="yes"/>
      <point x="525" y="1298"/>
      <point x="406" y="1241"/>
      <point x="319" y="1146"/>
      <point x="270" y="1025"/>
      <point x="270" y="962" type="qcurve" smooth="yes"/>
      <point x="270" y="951" type="line" smooth="yes"/>
      <point x="270" y="884"/>
      <point x="318" y="764"/>
      <point x="405" y="676"/>
      <point x="524" y="626"/>
    </contour>
  </outline>
</glyph>
<glyph name="colon" format="2">
  <advance width="663"/>
  <unicode hex="003A"/>
  <outline>
    <contour>
      <point x="420" y="767" type="line"/>
      <point x="243" y="767" type="line"/>
      <point x="243" y="942" type="line"/>
      <point x="420" y="942" type="line"/>
    </contour>
    <contour>
      <point x="420" y="0" type="line"/>
      <point x="243" y="0" type="line"/>
      <point x="243" y="175" type="line"/>
      <point x="420" y="175" type="line"/>
    </contour>
  </outline>
</glyph>
<glyph name="semicolon" format="2">
  <advance width="643"/>
  <unicode hex="003B"/>
  <outline>
    <contour>
      <point x="434" y="767" type="line"/>
      <point x="257" y="767" type="line"/>
      <point x="257" y="942" type="line"/>
      <point x="434" y="942" type="line"/>
    </contour>
    <contour>
      <point x="206" y="-327" type="line"/>
      <point x="131" y="-327" type="line"/>
      <point x="274" y="258" type="line"/>
      <point x="445" y="258" type="line"/>
    </contour>
  </outline>
</glyph>
<glyph name="less" format="2">
  <advance width="1194"/>
  <unicode hex="003C"/>
  <outline>
    <contour>
      <point x="985" y="172" type="line"/>
      <point x="116" y="666" type="line"/>
      <point x="985" y="1160" type="line"/>
      <point x="1044" y="1058" type="line"/>
      <point x="328" y="666" type="line"/>
      <point x="1044" y="273" type="line"/>
    </contour>
  </outline>
</glyph>
<glyph name="greater" format="2">
  <advance width="1194"/>
  <unicode hex="003E"/>
  <outline>
    <contour>
      <point x="209" y="172" type="line"/>
      <point x="150" y="273" type="line"/>
      <point x="866" y="666" type="line"/>
      <point x="150" y="1058" type="line"/>
      <point x="209" y="1160" type="line"/>
      <point x="1078" y="666" type="line"/>
    </contour>
  </outline>
</glyph>
<glyph name="question" format="2">
  <advance width="1015"/>
  <unicode hex="003F"/>
  <outline>
    <contour>
      <point x="559" y="364" type="line"/>
      <point x="440" y="364" type="line"/>
      <point x="440" y="605" type="line"/>
      <point x="441" y="663"/>
      <point x="468" y="730"/>
      <point x="527" y="781"/>
      <point x="619" y="835"/>
      <point x="684" y="881" type="qcurve" smooth="yes"/>
      <point x="725" y="910"/>
      <point x="770" y="996"/>
      <point x="772" y="1067" type="qcurve"/>
      <point x="772" y="1125"/>
      <point x="731" y="1213"/>
      <point x="659" y="1273"/>
      <point x="559" y="1303"/>
      <point x="500" y="1303" type="qcurve" smooth="yes"/>
      <point x="446" y="1303"/>
      <point x="348" y="1269"/>
      <point x="274" y="1206"/>
      <point x="229" y="1119"/>
      <point x="228" y="1065" type="qcurve"/>
      <point x="102" y="1065" type="line"/>
      <point x="102" y="1067"/>
      <point x="102" y="1070" type="qcurve" smooth="yes"/>
      <point x="102" y="1145"/>
      <point x="164" y="1273"/>
      <point x="271" y="1366"/>
      <point x="413" y="1417"/>
      <point x="492" y="1417" type="qcurve" smooth="yes"/>
      <point x="575" y="1417"/>
      <point x="722" y="1371"/>
      <point x="832" y="1281"/>
      <point x="896" y="1150"/>
      <point x="896" y="1065" type="qcurve" smooth="yes"/>
      <point x="896" y="1005"/>
      <point x="870" y="916"/>
      <point x="821" y="849"/>
      <point x="748" y="796"/>
      <point x="701" y="772" type="qcurve"/>
      <point x="671" y="755"/>
      <point x="619" y="723"/>
      <point x="582" y="684"/>
      <point x="560" y="636"/>
      <point x="559" y="603" type="qcurve"/>
    </contour>
    <contour>
      <point x="591" y="0" type="line"/>
      <point x="414" y="0" type="line"/>
      <point x="414" y="175" type="line"/>
      <point x="591" y="175" type="line"/>
    </contour>
  </outline>
</glyph>
<glyph name="at" format="2">
  <advance width="2057"/>
  <unicode hex="0040"/>
  <outline>
    <contour>
      <point x="1021" y="-345" type="qcurve" smooth="yes"/>
      <point x="911" y="-345"/>
      <point x="699" y="-297"/>
      <point x="507" y="-202"/>
      <point x="345" y="-60"/>
      <point x="227" y="129"/>
      <point x="160" y="366"/>
      <point x="160" y="507" type="qcurve" smooth="yes"/>
      <point x="160" y="627"/>
      <point x="214" y="856"/>
      <point x="318" y="1058"/>
      <point x="470" y="1226"/>
      <point x="666" y="1347"/>
      <point x="903" y="1415"/>
      <point x="1041" y="1415" type="qcurve" smooth="yes"/>
      <point x="1232" y="1415"/>
      <point x="1549" y="1283"/>
      <point x="1776" y="1052"/>
      <point x="1901" y="738"/>
      <point x="1901" y="556" type="qcurve" smooth="yes"/>
      <point x="1901" y="480"/>
      <point x="1878" y="332"/>
      <point x="1831" y="198"/>
      <point x="1760" y="83"/>
      <point x="1663" y="0"/>
      <point x="1539" y="-48"/>
      <point x="1464" y="-48" type="qcurve" smooth="yes"/>
      <point x="1340" y="-48"/>
      <point x="1200" y="72"/>
      <point x="1200" y="178" type="qcurve" smooth="yes"/>
      <point x="1200" y="202"/>
      <point x="1206" y="235" type="qcurve"/>
      <point x="1143" y="153"/>
      <point x="974" y="70"/>
      <point x="883" y="70" type="qcurve" smooth="yes"/>
      <point x="880" y="70"/>
      <point x="878" y="70" type="qcurve" smooth="yes"/>
      <point x="806" y="70"/>
      <point x="694" y="126"/>
      <point x="618" y="225"/>
      <point x="580" y="359"/>
      <point x="580" y="434" type="qcurve" smooth="yes"/>
      <point x="580" y="501"/>
      <point x="609" y="639"/>
      <point x="665" y="770"/>
      <point x="743" y="885"/>
      <point x="793" y="928" type="qcurve" smooth="yes"/>
      <point x="899" y="1020"/>
      <point x="1031" y="1020" type="qcurve" smooth="yes"/>
      <point x="1082" y="1020"/>
      <point x="1172" y="993"/>
      <point x="1242" y="941"/>
      <point x="1289" y="864"/>
      <point x="1299" y="815" type="qcurve"/>
      <point x="1330" y="971" type="line"/>
      <point x="1466" y="971" type="line"/>
      <point x="1457" y="921"/>
      <point x="1429" y="812"/>
      <point x="1415" y="752" type="qcurve" smooth="yes"/>
      <point x="1391" y="653"/>
      <point x="1356" y="506"/>
      <point x="1333" y="389"/>
      <point x="1322" y="292"/>
      <point x="1322" y="241" type="qcurve" smooth="yes"/>
      <point x="1322" y="163"/>
      <point x="1380" y="91"/>
      <point x="1444" y="91" type="qcurve"/>
      <point x="1451" y="90"/>
      <point x="1457" y="90" type="qcurve" smooth="yes"/>
      <point x="1460" y="90"/>
      <point x="1472" y="91"/>
      <point x="1481" y="92" type="qcurve" smooth="yes"/>
      <point x="1554" y="99"/>
      <point x="1663" y="176"/>
      <point x="1736" y="301"/>
      <point x="1772" y="465"/>
      <point x="1772" y="558" type="qcurve" smooth="yes"/>
      <point x="1772" y="654"/>
      <point x="1728" y="837"/>
      <point x="1644" y="1000"/>
      <point x="1519" y="1136"/>
      <point x="1356" y="1235"/>
      <point x="1157" y="1290"/>
      <point x="1041" y="1290" type="qcurve" smooth="yes"/>
      <point x="869" y="1290"/>
      <point x="591" y="1170"/>
      <point x="394" y="960"/>
      <point x="288" y="675"/>
      <point x="288" y="511" type="qcurve" smooth="yes"/>
      <point x="288" y="342"/>
      <point x="401" y="74"/>
      <point x="599" y="-112"/>
      <point x="867" y="-210"/>
      <point x="1023" y="-210" type="qcurve" smooth="yes"/>
      <point x="1150" y="-210"/>
      <point x="1269" y="-171" type="qcurve"/>
      <point x="1276" y="-190"/>
      <point x="1289" y="-226"/>
      <point x="1297" y="-244" type="qcurve"/>
      <point x="1318" y="-295" type="line"/>
      <point x="1176" y="-345"/>
    </contour>
    <contour>
      <point x="902" y="205" type="qcurve" smooth="yes"/>
      <point x="956" y="205"/>
      <point x="1054" y="244"/>
      <point x="1136" y="315"/>
      <point x="1201" y="416"/>
      <point x="1222" y="479" type="qcurve" smooth="yes"/>
      <point x="1253" y="569"/>
      <point x="1253" y="659" type="qcurve" smooth="yes"/>
      <point x="1253" y="708"/>
      <point x="1231" y="791"/>
      <point x="1184" y="851"/>
      <point x="1109" y="885"/>
      <point x="1056" y="885" type="qcurve" smooth="yes"/>
      <point x="978" y="885"/>
      <point x="848" y="807"/>
      <point x="755" y="679"/>
      <point x="703" y="517"/>
      <point x="703" y="432" type="qcurve" smooth="yes"/>
      <point x="703" y="324"/>
      <point x="799" y="205"/>
    </contour>
  </outline>
</glyph>
<glyph name="A" format="2">
  <advance width="1285"/>
  <unicode hex="0041"/>
  <outline>
    <contour>
      <point x="1211" y="0" type="line"/>
      <point x="1066" y="0" type="line"/>
      <point x="960" y="304" type="line"/>
      <point x="328" y="304" type="line"/>
      <point x="222" y="0" type="line"/>
      <point x="74" y="0" type="line"/>
      <point x="592" y="1396" type="line"/>
      <point x="697" y="1396" type="line"/>
    </contour>
    <contour>
      <point x="914" y="430" type="line"/>
      <point x="645" y="1199" type="line"/>
      <point x="373" y="430" type="line"/>
    </contour>
  </outline>
</glyph>
<glyph name="C" format="2">
  <advance width="1404"/>
  <unicode hex="0043"/>
  <outline>
    <contour>
      <point x="751" y="-20" type="qcurve" smooth="yes"/>
      <point x="609" y="-20"/>
      <point x="381" y="79"/>
      <point x="220" y="265"/>
      <point x="134" y="531"/>
      <point x="134" y="698" type="qcurve" smooth="yes"/>
      <point x="134" y="796"/>
      <point x="166" y="979"/>
      <point x="232" y="1139"/>
      <point x="332" y="1271"/>
      <point x="469" y="1366"/>
      <point x="643" y="1419"/>
      <point x="749" y="1419" type="qcurve" smooth="yes"/>
      <point x="944" y="1419"/>
      <point x="1226" y="1232"/>
      <point x="1307" y="1055" type="qcurve"/>
      <point x="1184" y="1000" type="line"/>
      <point x="1160" y="1075"/>
      <point x="1076" y="1185"/>
      <point x="964" y="1257"/>
      <point x="825" y="1291"/>
      <point x="747" y="1291" type="qcurve" smooth="yes"/>
      <point x="628" y="1291"/>
      <point x="450" y="1203"/>
      <point x="331" y="1047"/>
      <point x="272" y="834"/>
      <point x="272" y="708" type="qcurve" smooth="yes"/>
      <point x="272" y="631"/>
      <point x="294" y="483"/>
      <point x="342" y="349"/>
      <point x="417" y="236"/>
      <point x="523" y="153"/>
      <point x="663" y="107"/>
      <point x="751" y="107" type="qcurve" smooth="yes"/>
      <point x="912" y="107"/>
      <point x="1128" y="252"/>
      <point x="1185" y="401" type="qcurve"/>
      <point x="1309" y="346" type="line"/>
      <point x="1229" y="167"/>
      <point x="942" y="-20"/>
    </contour>
  </outline>
</glyph>
<glyph name="D" format="2">
  <advance width="1392"/>
  <unicode hex="0044"/>
  <outline>
    <contour>
      <point x="561" y="0" type="qcurve" smooth="yes"/>
      <point x="217" y="0" type="line"/>
      <point x="217" y="1396" type="line"/>
      <point x="563" y="1396" type="line" smooth="yes"/>
      <point x="731" y="1396"/>
      <point x="991" y="1303"/>
      <point x="1170" y="1123"/>
      <point x="1262" y="859"/>
      <point x="1262" y="688" type="qcurve" smooth="yes"/>
      <point x="1262" y="521"/>
      <point x="1167" y="264"/>
      <point x="987" y="90"/>
      <point x="726" y="0"/>
    </contour>
    <contour>
      <point x="537" y="123" type="line" smooth="yes"/>
      <point x="653" y="123"/>
      <point x="866" y="188"/>
      <point x="1030" y="327"/>
      <point x="1127" y="545"/>
      <point x="1127" y="698" type="qcurve" smooth="yes"/>
      <point x="1127" y="834"/>
      <point x="1056" y="1049"/>
      <point x="914" y="1198"/>
      <point x="701" y="1277"/>
      <point x="559" y="1277" type="qcurve" smooth="yes"/>
      <point x="353" y="1277" type="line"/>
      <point x="353" y="123" type="line"/>
    </contour>
  </outline>
</glyph>
<glyph name="E" format="2">
  <advance width="1225"/>
  <unicode hex="0045"/>
  <outline>
    <contour>
      <point x="1115" y="0" type="line"/>
      <point x="217" y="0" type="line"/>
      <point x="217" y="1396" type="line"/>
      <point x="1115" y="1396" type="line"/>
      <point x="1115" y="1283" type="line"/>
      <point x="353" y="1283" type="line"/>
      <point x="353" y="753" type="line"/>
      <point x="1007" y="753" type="line"/>
      <point x="1007" y="644" type="line"/>
      <point x="353" y="644" type="line"/>
      <point x="353" y="122" type="line"/>
      <point x="1115" y="122" type="line"/>
    </contour>
  </outline>
</glyph>
<glyph name="H" format="2">
  <advance width="1433"/>
  <unicode hex="0048"/>
  <outline>
    <contour>
      <point x="1216" y="0" type="line"/>
      <point x="1081" y="0" type="line"/>
      <point x="1081" y="644" type="line"/>
      <point x="352" y="644" type="line"/>
      <point x="352" y="0" type="line"/>
      <point x="217" y="0" type="line"/>
      <point x="217" y="1396" type="line"/>
      <point x="352" y="1396" type="line"/>
      <point x="352" y="753" type="line"/>
      <point x="1081" y="753" type="line"/>
      <point x="1081" y="1396" type="line"/>
      <point x="1216" y="1396" type="line"/>
    </contour>
  </outline>
</glyph>
<glyph name="K" format="2">
  <advance width="1430"/>
  <unicode hex="004B"/>
  <outline>
    <contour>
      <point x="1351" y="0" type="line"/>
      <point x="1190" y="0" type="line"/>
      <point x="703" y="752" type="line"/>
      <point x="353" y="389" type="line"/>
      <point x="353" y="0" type="line"/>
      <point x="217" y="0" type="line"/>
      <point x="217" y="1396" type="line"/>
      <point x="353" y="1396" type="line"/>
      <point x="353" y="560" type="line"/>
      <point x="1142" y="1396" type="line"/>
      <point x="1318" y="1396" type="line"/>
      <point x="797" y="851" type="line"/>
    </contour>
  </outline>
</glyph>
<glyph name="M" format="2">
  <advance width="1738"/>
  <unicode hex="004D"/>
  <outline>
    <contour>
      <point x="1521" y="0" type="line"/>
      <point x="1385" y="0" type="line"/>
      <point x="1385" y="1290" type="line"/>
      <point x="946" y="122" type="line"/>
      <point x="791" y="122" type="line"/>
      <point x="354" y="1290" type="line"/>
      <point x="354" y="0" type="line"/>
      <point x="217" y="0" type="line"/>
      <point x="217" y="1396" type="line"/>
      <point x="444" y="1396" type="line"/>
      <point x="865" y="244" type="line"/>
      <point x="1294" y="1396" type="line"/>
      <point x="1521" y="1396" type="line"/>
    </contour>
  </outline>
</glyph>
<glyph name="N" format="2">
  <advance width="1397"/>
  <unicode hex="004E"/>
  <outline>
    <contour>
      <point x="1180" y="0" type="line"/>
      <point x="966" y="0" type="line"/>
      <point x="354" y="1267" type="line"/>
      <point x="354" y="0" type="line"/>
      <point x="217" y="0" type="line"/>
      <point x="217" y="1396" type="line"/>
      <point x="427" y="1396" type="line"/>
      <point x="1045" y="131" type="line"/>
      <point x="1045" y="1396" type="line"/>
      <point x="1180" y="1396" type="line"/>
    </contour>
  </outline>
</glyph>
<glyph name="O" format="2">
  <advance width="1451"/>
  <unicode hex="004F"/>
  <outline>
    <contour>
      <point x="749" y="-20" type="qcurve" smooth="yes"/>
      <point x="607" y="-20"/>
      <point x="379" y="80"/>
      <point x="219" y="266"/>
      <point x="133" y="532"/>
      <point x="133" y="698" type="qcurve" smooth="yes"/>
      <point x="133" y="793"/>
      <point x="165" y="974"/>
      <point x="231" y="1134"/>
      <point x="331" y="1268"/>
      <point x="468" y="1364"/>
      <point x="643" y="1418"/>
      <point x="750" y="1418" type="qcurve" smooth="yes"/>
      <point x="889" y="1418"/>
      <point x="1116" y="1320"/>
      <point x="1278" y="1134"/>
      <point x="1367" y="867"/>
      <point x="1367" y="698" type="qcurve" smooth="yes"/>
      <point x="1367" y="551"/>
      <point x="1292" y="290"/>
      <point x="1139" y="94"/>
      <point x="906" y="-20"/>
    </contour>
    <contour>
      <point x="747" y="1290" type="qcurve" smooth="yes"/>
      <point x="633" y="1290"/>
      <point x="455" y="1207"/>
      <point x="334" y="1054"/>
      <point x="270" y="837"/>
      <point x="270" y="703" type="qcurve" smooth="yes"/>
      <point x="270" y="591"/>
      <point x="320" y="377"/>
      <point x="433" y="209"/>
      <point x="616" y="107"/>
      <point x="749" y="107" type="qcurve" smooth="yes"/>
      <point x="864" y="107"/>
      <point x="1043" y="190"/>
      <point x="1166" y="345"/>
      <point x="1230" y="566"/>
      <point x="1230" y="703" type="qcurve" smooth="yes"/>
      <point x="1230" y="823"/>
      <point x="1174" y="1036"/>
      <point x="1056" y="1197"/>
      <point x="874" y="1290"/>
    </contour>
  </outline>
</glyph>
<glyph name="P" format="2">
  <advance width="1133"/>
  <unicode hex="0050"/>
  <outline>
    <contour>
      <point x="352" y="0" type="line"/>
      <point x="217" y="0" type="line"/>
      <point x="217" y="1396" type="line"/>
      <point x="599" y="1396" type="line" smooth="yes"/>
      <point x="697" y="1396"/>
      <point x="858" y="1344"/>
      <point x="973" y="1247"/>
      <point x="1036" y="1106"/>
      <point x="1036" y="1017" type="qcurve" smooth="yes"/>
      <point x="1036" y="924"/>
      <point x="974" y="784"/>
      <point x="860" y="690"/>
      <point x="699" y="642"/>
      <point x="599" y="642" type="qcurve" smooth="yes"/>
      <point x="352" y="642" type="line"/>
    </contour>
    <contour>
      <point x="599" y="759" type="line" smooth="yes"/>
      <point x="666" y="759"/>
      <point x="777" y="788"/>
      <point x="857" y="851"/>
      <point x="902" y="948"/>
      <point x="902" y="1017" type="qcurve" smooth="yes"/>
      <point x="902" y="1079"/>
      <point x="860" y="1176"/>
      <point x="782" y="1244"/>
      <point x="669" y="1279"/>
      <point x="599" y="1279" type="qcurve" smooth="yes"/>
      <point x="352" y="1279" type="line"/>
      <point x="352" y="759" type="line"/>
    </contour>
  </outline>
</glyph>
<glyph name="U" format="2">
  <advance width="1334"/>
  <unicode hex="0055"/>
  <outline>
    <contour>
      <point x="666" y="-20" type="qcurve" smooth="yes"/>
      <point x="549" y="-20"/>
      <point x="371" y="58"/>
      <point x="251" y="197"/>
      <point x="190" y="390"/>
      <point x="190" y="505" type="qcurve" smooth="yes"/>
      <point x="190" y="1396" type="line"/>
      <point x="326" y="1396" type="line"/>
      <point x="326" y="552" type="line" smooth="yes"/>
      <point x="326" y="445"/>
      <point x="365" y="279"/>
      <point x="448" y="165"/>
      <point x="576" y="106"/>
      <point x="666" y="106" type="qcurve" smooth="yes"/>
      <point x="840" y="106"/>
      <point x="1010" y="335"/>
      <point x="1010" y="552" type="qcurve" smooth="yes"/>
      <point x="1010" y="1396" type="line"/>
      <point x="1145" y="1396" type="line"/>
      <point x="1145" y="515" type="line" smooth="yes"/>
      <point x="1145" y="400"/>
      <point x="1084" y="204"/>
      <point x="963" y="61"/>
      <point x="784" y="-20"/>
    </contour>
  </outline>
</glyph>
<glyph name="V" format="2">
  <advance width="1307"/>
  <unicode hex="0056"/>
  <outline>
    <contour>
      <point x="716" y="0" type="line"/>
      <point x="594" y="0" type="line"/>
      <point x="74" y="1396" type="line"/>
      <point x="217" y="1396" type="line"/>
      <point x="655" y="167" type="line"/>
      <point x="1093" y="1396" type="line"/>
      <point x="1232" y="1396" type="line"/>
    </contour>
  </outline>
</glyph>
<glyph name="W" format="2">
  <advance width="1948"/>
  <unicode hex="0057"/>
  <outline>
    <contour>
      <point x="1476" y="0" type="line"/>
      <point x="1315" y="0" type="line"/>
      <point x="978" y="1191" type="line"/>
      <point x="632" y="0" type="line"/>
      <point x="472" y="0" type="line"/>
      <point x="85" y="1396" type="line"/>
      <point x="222" y="1396" type="line"/>
      <point x="562" y="155" type="line"/>
      <point x="919" y="1413" type="line"/>
      <point x="1029" y="1413" type="line"/>
      <point x="1387" y="155" type="line"/>
      <point x="1726" y="1396" type="line"/>
      <point x="1864" y="1396" type="line"/>
    </contour>
  </outline>
</glyph>
<glyph name="X" format="2">
  <advance width="1231"/>
  <unicode hex="0058"/>
  <outline>
    <contour>
      <point x="1147" y="0" type="line"/>
      <point x="991" y="0" type="line"/>
      <point x="614" y="579" type="line"/>
      <point x="244" y="0" type="line"/>
      <point x="83" y="0" type="line"/>
      <point x="545" y="698" type="line"/>
      <point x="85" y="1396" type="line"/>
      <point x="246" y="1396" type="line"/>
      <point x="617" y="807" type="line"/>
      <point x="989" y="1396" type="line"/>
      <point x="1145" y="1396" type="line"/>
      <point x="689" y="698" type="line"/>
    </contour>
  </outline>
</glyph>
<glyph name="Y" format="2">
  <advance width="1302"/>
  <unicode hex="0059"/>
  <outline>
    <contour>
      <point x="717" y="0" type="line"/>
      <point x="587" y="0" type="line"/>
      <point x="587" y="546" type="line"/>
      <point x="64" y="1396" type="line"/>
      <point x="221" y="1396" type="line"/>
      <point x="650" y="686" type="line"/>
      <point x="1082" y="1396" type="line"/>
      <point x="1237" y="1396" type="line"/>
      <point x="717" y="546" type="line"/>
    </contour>
  </outline>
</glyph>
<glyph name="Z" format="2">
  <advance width="1261"/>
  <unicode hex="005A"/>
  <outline>
    <contour>
      <point x="1157" y="0" type="line"/>
      <point x="93" y="0" type="line"/>
      <point x="93" y="110" type="line"/>
      <point x="1002" y="1283" type="line"/>
      <point x="137" y="1283" type="line"/>
      <point x="137" y="1396" type="line"/>
      <point x="1157" y="1396" type="line"/>
      <point x="1157" y="1280" type="line"/>
      <point x="252" y="123" type="line"/>
      <point x="1157" y="123" type="line"/>
    </contour>
  </outline>
</glyph>
<glyph name="bracketright" format="2">
  <advance width="625"/>
  <unicode hex="005D"/>
  <outline>
    <contour>
      <point x="415" y="-78" type="line"/>
      <point x="74" y="-78" type="line"/>
      <point x="74" y="-3" type="line"/>
      <point x="307" y="-3" type="line"/>
      <point x="307" y="1399" type="line"/>
      <point x="74" y="1399" type="line"/>
      <point x="74" y="1472" type="line"/>
      <point x="415" y="1472" type="line"/>
    </contour>
  </outline>
</glyph>
<glyph name="underscore" format="2">
  <advance width="1221"/>
  <unicode hex="005F"/>
  <outline>
    <contour>
      <point x="988" y="-99" type="line"/>
      <point x="233" y="-99" type="line"/>
      <point x="233" y="-3" type="line"/>
      <point x="988" y="-3" type="line"/>
    </contour>
  </outline>
</glyph>
<glyph name="a" format="2">
  <advance width="1007"/>
  <unicode hex="0061"/>
  <outline>
    <contour>
      <point x="393" y="-20" type="qcurve" smooth="yes"/>
      <point x="325" y="-20"/>
      <point x="211" y="18"/>
      <point x="128" y="92"/>
      <point x="81" y="198"/>
      <point x="81" y="267" type="qcurve" smooth="yes"/>
      <point x="81" y="416"/>
      <point x="309" y="557"/>
      <point x="524" y="557" type="qcurve" smooth="yes"/>
      <point x="746" y="557" type="line"/>
      <point x="746" y="635"/>
      <point x="718" y="760"/>
      <point x="657" y="847"/>
      <point x="560" y="894"/>
      <point x="491" y="894" type="qcurve" smooth="yes"/>
      <point x="395" y="894"/>
      <point x="256" y="813"/>
      <point x="209" y="747" type="qcurve"/>
      <point x="118" y="818" type="line"/>
      <point x="252" y="1003"/>
      <point x="482" y="1003" type="qcurve" smooth="yes"/>
      <point x="574" y="1003"/>
      <point x="715" y="946"/>
      <point x="810" y="842"/>
      <point x="859" y="696"/>
      <point x="859" y="607" type="qcurve" smooth="yes"/>
      <point x="859" y="0" type="line"/>
      <point x="751" y="0" type="line"/>
      <point x="751" y="50"/>
      <point x="750" y="119"/>
      <point x="750" y="136" type="qcurve" smooth="yes"/>
      <point x="750" y="171"/>
      <point x="751" y="207" type="qcurve"/>
      <point x="722" y="146"/>
      <point x="645" y="60"/>
      <point x="553" y="5"/>
      <point x="448" y="-20"/>
    </contour>
    <contour>
      <point x="407" y="85" type="qcurve" smooth="yes"/>
      <point x="483" y="85"/>
      <point x="608" y="150"/>
      <point x="697" y="256"/>
      <point x="746" y="391"/>
      <point x="746" y="461" type="qcurve"/>
      <point x="554" y="461" type="line" smooth="yes"/>
      <point x="467" y="461"/>
      <point x="338" y="441"/>
      <point x="253" y="395"/>
      <point x="212" y="320"/>
      <point x="212" y="265" type="qcurve" smooth="yes"/>
      <point x="212" y="173"/>
      <point x="320" y="85"/>
    </contour>
  </outline>
</glyph>
<glyph name="c" format="2">
  <advance width="958"/>
  <unicode hex="0063"/>
  <outline>
    <contour>
      <point x="518" y="-20" type="qcurve" smooth="yes"/>
      <point x="415" y="-20"/>
      <point x="258" y="61"/>
      <point x="152" y="201"/>
      <point x="98" y="387"/>
      <point x="98" y="491" type="qcurve" smooth="yes"/>
      <point x="98" y="579"/>
      <point x="145" y="761"/>
      <point x="247" y="909"/>
      <point x="405" y="1003"/>
      <point x="516" y="1003" type="qcurve" smooth="yes"/>
      <point x="583" y="1003"/>
      <point x="698" y="967"/>
      <point x="792" y="901"/>
      <point x="865" y="808"/>
      <point x="890" y="752" type="qcurve"/>
      <point x="771" y="699" type="line"/>
      <point x="759" y="741"/>
      <point x="710" y="811"/>
      <point x="642" y="862"/>
      <point x="561" y="890"/>
      <point x="516" y="890" type="qcurve" smooth="yes"/>
      <point x="438" y="890"/>
      <point x="329" y="821"/>
      <point x="260" y="708"/>
      <point x="228" y="565"/>
      <point x="228" y="491" type="qcurve" smooth="yes"/>
      <point x="228" y="405"/>
      <point x="264" y="258"/>
      <point x="336" y="152"/>
      <point x="444" y="92"/>
      <point x="516" y="92" type="qcurve" smooth="yes"/>
      <point x="562" y="92"/>
      <point x="646" y="121"/>
      <point x="713" y="172"/>
      <point x="760" y="242"/>
      <point x="771" y="283" type="qcurve"/>
      <point x="879" y="235" type="line"/>
      <point x="834" y="113"/>
      <point x="649" y="-20"/>
    </contour>
  </outline>
</glyph>
<glyph name="f" format="2">
  <advance width="669"/>
  <unicode hex="0066"/>
  <outline>
    <contour>
      <point x="342" y="0" type="line"/>
      <point x="216" y="0" type="line"/>
      <point x="216" y="885" type="line"/>
      <point x="35" y="885" type="line"/>
      <point x="35" y="984" type="line"/>
      <point x="216" y="984" type="line"/>
      <point x="216" y="1161" type="line" smooth="yes"/>
      <point x="216" y="1222"/>
      <point x="254" y="1317"/>
      <point x="323" y="1383"/>
      <point x="416" y="1417"/>
      <point x="472" y="1417" type="qcurve" smooth="yes"/>
      <point x="552" y="1417"/>
      <point x="629" y="1380" type="qcurve"/>
      <point x="603" y="1277" type="line"/>
      <point x="534" y="1309"/>
      <point x="481" y="1309" type="qcurve" smooth="yes"/>
      <point x="406" y="1309"/>
      <point x="342" y="1222"/>
      <point x="342" y="1129" type="qcurve" smooth="yes"/>
      <point x="342" y="986" type="line"/>
      <point x="635" y="986" type="line"/>
      <point x="635" y="885" type="line"/>
      <point x="344" y="885" type="line"/>
    </contour>
  </outline>
</glyph>
<glyph name="j" format="2">
  <advance width="479"/>
  <unicode hex="006A"/>
  <outline>
    <contour>
      <point x="314" y="1224" type="line"/>
      <point x="161" y="1224" type="line"/>
      <point x="161" y="1402" type="line"/>
      <point x="314" y="1402" type="line"/>
    </contour>
    <contour>
      <point x="59" y="-434" type="qcurve" smooth="yes"/>
      <point x="44" y="-434"/>
      <point x="7" y="-429"/>
      <point x="-32" y="-421"/>
      <point x="-69" y="-410"/>
      <point x="-84" y="-404" type="qcurve"/>
      <point x="-59" y="-305" type="line"/>
      <point x="-50" y="-308"/>
      <point x="-21" y="-314"/>
      <point x="12" y="-318"/>
      <point x="45" y="-321"/>
      <point x="59" y="-321" type="qcurve" smooth="yes"/>
      <point x="90" y="-321"/>
      <point x="134" y="-300"/>
      <point x="162" y="-263"/>
      <point x="175" y="-214"/>
      <point x="175" y="-187" type="qcurve" smooth="yes"/>
      <point x="175" y="986" type="line"/>
      <point x="304" y="986" type="line"/>
      <point x="304" y="-166" type="line" smooth="yes"/>
      <point x="304" y="-223"/>
      <point x="277" y="-321"/>
      <point x="218" y="-393"/>
      <point x="125" y="-434"/>
    </contour>
  </outline>
</glyph>
<glyph name="k" format="2">
  <advance width="1023"/>
  <unicode hex="006B"/>
  <outline>
    <contour>
      <point x="979" y="0" type="line"/>
      <point x="829" y="0" type="line"/>
      <point x="523" y="529" type="line"/>
      <point x="302" y="289" type="line"/>
      <point x="302" y="0" type="line"/>
      <point x="175" y="0" type="line"/>
      <point x="175" y="1396" type="line"/>
      <point x="302" y="1396" type="line"/>
      <point x="302" y="446" type="line"/>
      <point x="759" y="986" type="line"/>
      <point x="914" y="986" type="line"/>
      <point x="602" y="623" type="line"/>
    </contour>
  </outline>
</glyph>
<glyph name="m" format="2">
  <advance width="1674"/>
  <unicode hex="006D"/>
  <outline>
    <contour>
      <point x="1523" y="0" type="line"/>
      <point x="1396" y="0" type="line"/>
      <point x="1396" y="590" type="line" smooth="yes"/>
      <point x="1396" y="656"/>
      <point x="1370" y="770"/>
      <point x="1316" y="853"/>
      <point x="1231" y="901"/>
      <point x="1172" y="901" type="qcurve" smooth="yes"/>
      <point x="1108" y="901"/>
      <point x="1010" y="844"/>
      <point x="944" y="750"/>
      <point x="911" y="630"/>
      <point x="911" y="567" type="qcurve" smooth="yes"/>
      <point x="911" y="0" type="line"/>
      <point x="783" y="0" type="line"/>
      <point x="783" y="594" type="line" smooth="yes"/>
      <point x="783" y="653"/>
      <point x="761" y="764"/>
      <point x="710" y="849"/>
      <point x="626" y="901"/>
      <point x="563" y="901" type="qcurve" smooth="yes"/>
      <point x="499" y="901"/>
      <point x="401" y="845"/>
      <point x="334" y="751"/>
      <point x="300" y="631"/>
      <point x="300" y="567" type="qcurve" smooth="yes"/>
      <point x="300" y="0" type="line"/>
      <point x="173" y="0" type="line"/>
      <point x="173" y="986" type="line"/>
      <point x="300" y="986" type="line"/>
      <point x="300" y="793" type="line"/>
      <point x="331" y="893"/>
      <point x="476" y="1005"/>
      <point x="575" y="1005" type="qcurve" smooth="yes"/>
      <point x="629" y="1005"/>
      <point x="724" y="980"/>
      <point x="803" y="927"/>
      <point x="863" y="846"/>
      <point x="881" y="791" type="qcurve"/>
      <point x="928" y="897"/>
      <point x="1081" y="1003"/>
      <point x="1184" y="1003" type="qcurve" smooth="yes"/>
      <point x="1271" y="1003"/>
      <point x="1399" y="943"/>
      <point x="1482" y="836"/>
      <point x="1523" y="689"/>
      <point x="1523" y="601" type="qcurve" smooth="yes"/>
    </contour>
  </outline>
</glyph>
<glyph name="q" format="2">
  <advance width="1111"/>
  <unicode hex="0071"/>
  <outline>
    <contour>
      <point x="936" y="-434" type="line"/>
      <point x="809" y="-434" type="line"/>
      <point x="809" y="145" type="line"/>
      <point x="750" y="61"/>
      <point x="598" y="-20"/>
      <point x="492" y="-20" type="qcurve" smooth="yes"/>
      <point x="490" y="-20"/>
      <point x="488" y="-20" type="qcurve" smooth="yes"/>
      <point x="396" y="-20"/>
      <point x="252" y="61"/>
      <point x="153" y="202"/>
      <point x="102" y="389"/>
      <point x="102" y="493" type="qcurve" smooth="yes"/>
      <point x="102" y="593"/>
      <point x="150" y="779"/>
      <point x="248" y="921"/>
      <point x="395" y="1007"/>
      <point x="494" y="1007" type="qcurve" smooth="yes"/>
      <point x="696" y="1007"/>
      <point x="809" y="841" type="qcurve"/>
      <point x="809" y="986" type="line"/>
      <point x="936" y="986" type="line"/>
    </contour>
    <contour>
      <point x="526" y="88" type="qcurve" smooth="yes"/>
      <point x="598" y="88"/>
      <point x="708" y="148"/>
      <point x="782" y="256"/>
      <point x="819" y="405"/>
      <point x="819" y="493" type="qcurve" smooth="yes"/>
      <point x="819" y="567"/>
      <point x="787" y="712"/>
      <point x="716" y="826"/>
      <point x="605" y="896"/>
      <point x="526" y="896" type="qcurve" smooth="yes"/>
      <point x="449" y="896"/>
      <point x="338" y="830"/>
      <point x="266" y="718"/>
      <point x="232" y="572"/>
      <point x="232" y="493" type="qcurve" smooth="yes"/>
      <point x="232" y="409"/>
      <point x="268" y="262"/>
      <point x="341" y="152"/>
      <point x="452" y="88"/>
    </contour>
  </outline>
</glyph>
<glyph name="s" format="2">
  <advance width="852"/>
  <unicode hex="0073"/>
  <outline>
    <contour>
      <point x="126" y="747" type="qcurve"/>
      <point x="133" y="810"/>
      <point x="186" y="906"/>
      <point x="266" y="970"/>
      <point x="367" y="1002"/>
      <point x="421" y="1002" type="qcurve" smooth="yes"/>
      <point x="481" y="1002"/>
      <point x="584" y="969"/>
      <point x="668" y="911"/>
      <point x="732" y="831"/>
      <point x="753" y="784" type="qcurve"/>
      <point x="720" y="769" type="line" smooth="yes"/>
      <point x="682" y="752"/>
      <point x="648" y="736" type="qcurve"/>
      <point x="612" y="818"/>
      <point x="499" y="892"/>
      <point x="421" y="892" type="qcurve" smooth="yes"/>
      <point x="383" y="892"/>
      <point x="319" y="869"/>
      <point x="274" y="828"/>
      <point x="249" y="771"/>
      <point x="249" y="736" type="qcurve" smooth="yes"/>
      <point x="249" y="701"/>
      <point x="289" y="646"/>
      <point x="319" y="629" type="qcurve" smooth="yes"/>
      <point x="335" y="619"/>
      <point x="408" y="588"/>
      <point x="495" y="552"/>
      <point x="581" y="514"/>
      <point x="609" y="499" type="qcurve" smooth="yes"/>
      <point x="681" y="458"/>
      <point x="753" y="353"/>
      <point x="753" y="281" type="qcurve" smooth="yes"/>
      <point x="753" y="222"/>
      <point x="721" y="131"/>
      <point x="668" y="62"/>
      <point x="602" y="16"/>
      <point x="569" y="4" type="qcurve" smooth="yes"/>
      <point x="498" y="-21"/>
      <point x="431" y="-21" type="qcurve" smooth="yes"/>
      <point x="356" y="-21"/>
      <point x="229" y="25"/>
      <point x="132" y="101"/>
      <point x="69" y="199"/>
      <point x="57" y="252" type="qcurve"/>
      <point x="170" y="300" type="line"/>
      <point x="178" y="258"/>
      <point x="225" y="182"/>
      <point x="296" y="126"/>
      <point x="388" y="93"/>
      <point x="442" y="93" type="qcurve" smooth="yes"/>
      <point x="469" y="93"/>
      <point x="527" y="104"/>
      <point x="579" y="137"/>
      <point x="618" y="197"/>
      <point x="625" y="246" type="qcurve"/>
      <point x="625" y="260" type="line" smooth="yes"/>
      <point x="625" y="299"/>
      <point x="593" y="355"/>
      <point x="532" y="401"/>
      <point x="440" y="442"/>
      <point x="380" y="466" type="qcurve" smooth="yes"/>
      <point x="303" y="496"/>
      <point x="204" y="555"/>
      <point x="147" y="616"/>
      <point x="125" y="682"/>
      <point x="125" y="720" type="qcurve" smooth="yes"/>
      <point x="125" y="736" type="line"/>
      <point x="126" y="743" type="line"/>
      <point x="126" y="745"/>
    </contour>
  </outline>
</glyph>
<glyph name="t" format="2">
  <advance width="650"/>
  <unicode hex="0074"/>
  <outline>
    <contour>
      <point x="430" y="-20" type="qcurve" smooth="yes"/>
      <point x="309" y="-20"/>
      <point x="203" y="122"/>
      <point x="203" y="258" type="qcurve" smooth="yes"/>
      <point x="203" y="885" type="line"/>
      <point x="49" y="885" type="line"/>
      <point x="49" y="986" type="line"/>
      <point x="204" y="986" type="line"/>
      <point x="204" y="1205" type="line"/>
      <point x="332" y="1334" type="line"/>
      <point x="332" y="986" type="line"/>
      <point x="584" y="986" type="line"/>
      <point x="584" y="885" type="line"/>
      <point x="332" y="885" type="line"/>
      <point x="332" y="248" type="line" smooth="yes"/>
      <point x="332" y="163"/>
      <point x="406" y="81"/>
      <point x="463" y="81" type="qcurve" smooth="yes"/>
      <point x="505" y="81"/>
      <point x="552" y="102" type="qcurve"/>
      <point x="552" y="-3" type="line"/>
      <point x="530" y="-12"/>
      <point x="468" y="-20"/>
    </contour>
  </outline>
</glyph>
<glyph name="v" format="2">
  <advance width="929"/>
  <unicode hex="0076"/>
  <outline>
    <contour>
      <point x="523" y="0" type="line"/>
      <point x="408" y="0" type="line"/>
      <point x="46" y="986" type="line"/>
      <point x="184" y="986" type="line"/>
      <point x="465" y="162" type="line"/>
      <point x="749" y="986" type="line"/>
      <point x="883" y="986" type="line"/>
    </contour>
  </outline>
</glyph>
<glyph name="w" format="2">
  <advance width="1396"/>
  <unicode hex="0077"/>
  <outline>
    <contour>
      <point x="1066" y="0" type="line"/>
      <point x="939" y="0" type="line"/>
      <point x="701" y="818" type="line"/>
      <point x="455" y="-1" type="line"/>
      <point x="329" y="-1" type="line"/>
      <point x="58" y="986" type="line"/>
      <point x="192" y="986" type="line"/>
      <point x="403" y="173" type="line"/>
      <point x="639" y="986" type="line"/>
      <point x="758" y="986" type="line"/>
      <point x="994" y="175" type="line"/>
      <point x="1202" y="986" type="line"/>
      <point x="1337" y="986" type="line"/>
    </contour>
  </outline>
</glyph>
<glyph name="x" format="2">
  <advance width="889"/>
  <unicode hex="0078"/>
  <outline>
    <contour>
      <point x="843" y="0" type="line"/>
      <point x="692" y="0" type="line"/>
      <point x="451" y="390" type="line"/>
      <point x="210" y="0" type="line"/>
      <point x="55" y="0" type="line"/>
      <point x="385" y="497" type="line"/>
      <point x="55" y="986" type="line"/>
      <point x="210" y="986" type="line"/>
      <point x="451" y="601" type="line"/>
      <point x="694" y="986" type="line"/>
      <point x="847" y="986" type="line"/>
      <point x="519" y="495" type="line"/>
    </contour>
  </outline>
</glyph>
<glyph name="z" format="2">
  <advance width="905"/>
  <unicode hex="007A"/>
  <outline>
    <contour>
      <point x="825" y="0" type="line"/>
      <point x="69" y="0" type="line"/>
      <point x="69" y="104" type="line"/>
      <point x="685" y="880" type="line"/>
      <point x="98" y="880" type="line"/>
      <point x="98" y="986" type="line"/>
      <point x="825" y="986" type="line"/>
      <point x="825" y="872" type="line"/>
      <point x="219" y="109" type="line"/>
      <point x="825" y="109" type="line"/>
    </contour>
  </outline>
</glyph>
<glyph name="braceleft" format="2">
  <advance width="589"/>
  <unicode hex="007B"/>
  <outline>
    <contour>
      <point x="511" y="-112" type="line"/>
      <point x="399" y="-112" type="line" smooth="yes"/>
      <point x="357" y="-112"/>
      <point x="287" y="-79"/>
      <point x="255" y="-47" type="qcurve"/>
      <point x="237" y="-24"/>
      <point x="221" y="46"/>
      <point x="221" y="94" type="qcurve"/>
      <point x="218" y="462" type="line"/>
      <point x="218" y="461"/>
      <point x="222" y="457" type="qcurve"/>
      <point x="222" y="499"/>
      <point x="160" y="563"/>
      <point x="91" y="588" type="qcurve"/>
      <point x="91" y="691" type="line"/>
      <point x="152" y="705"/>
      <point x="221" y="783"/>
      <point x="221" y="846" type="qcurve" smooth="yes"/>
      <point x="221" y="1270" type="line" smooth="yes"/>
      <point x="221" y="1371"/>
      <point x="312" y="1471"/>
      <point x="419" y="1471" type="qcurve" smooth="yes"/>
      <point x="446" y="1471"/>
      <point x="488" y="1471"/>
      <point x="503" y="1472" type="qcurve"/>
      <point x="506" y="1471"/>
      <point x="511" y="1471" type="qcurve"/>
      <point x="511" y="1400" type="line"/>
      <point x="500" y="1402"/>
      <point x="474" y="1404"/>
      <point x="461" y="1404" type="qcurve"/>
      <point x="397" y="1402"/>
      <point x="339" y="1370"/>
      <point x="339" y="1335" type="qcurve" smooth="yes"/>
      <point x="339" y="834" type="line" smooth="yes"/>
      <point x="339" y="765"/>
      <point x="251" y="671"/>
      <point x="151" y="632" type="qcurve"/>
      <point x="249" y="599"/>
      <point x="339" y="525"/>
      <point x="339" y="468" type="qcurve" smooth="yes"/>
      <point x="339" y="107" type="line" smooth="yes"/>
      <point x="339" y="-46"/>
      <point x="479" y="-46" type="qcurve" smooth="yes"/>
      <point x="494" y="-46"/>
      <point x="511" y="-41" type="qcurve"/>
    </contour>
  </outline>
</glyph>
<glyph name="braceright" format="2">
  <advance width="589"/>
  <unicode hex="007D"/>
  <outline>
    <contour>
      <point x="77" y="-112" type="line"/>
      <point x="77" y="-41" type="line"/>
      <point x="97" y="-46"/>
      <point x="110" y="-46" type="qcurve" smooth="yes"/>
      <point x="250" y="-46"/>
      <point x="250" y="107" type="qcurve" smooth="yes"/>
      <point x="250" y="468" type="line" smooth="yes"/>
      <point x="250" y="525"/>
      <point x="342" y="601"/>
      <point x="437" y="632" type="qcurve"/>
      <point x="385" y="651"/>
      <point x="314" y="692"/>
      <point x="270" y="741"/>
      <point x="250" y="798"/>
      <point x="250" y="834" type="qcurve" smooth="yes"/>
      <point x="250" y="1335" type="line" smooth="yes"/>
      <point x="250" y="1404"/>
      <point x="132" y="1404" type="qcurve" smooth="yes"/>
      <point x="115" y="1404"/>
      <point x="88" y="1402"/>
      <point x="77" y="1400" type="qcurve"/>
      <point x="77" y="1471" type="line"/>
      <point x="169" y="1471" type="line" smooth="yes"/>
      <point x="272" y="1471"/>
      <point x="368" y="1375"/>
      <point x="368" y="1274" type="qcurve" smooth="yes"/>
      <point x="368" y="864" type="line" smooth="yes"/>
      <point x="368" y="797"/>
      <point x="424" y="708"/>
      <point x="497" y="691" type="qcurve"/>
      <point x="497" y="588" type="line"/>
      <point x="368" y="541"/>
      <point x="368" y="464" type="qcurve" smooth="yes"/>
      <point x="368" y="99" type="line" smooth="yes"/>
      <point x="368" y="44"/>
      <point x="345" y="-34"/>
      <point x="303" y="-83"/>
      <point x="245" y="-108"/>
      <point x="210" y="-110" type="qcurve"/>
      <point x="184" y="-110"/>
      <point x="161" y="-111"/>
      <point x="153" y="-112"/>
      <point x="152" y="-112" type="qcurve"/>
    </contour>
  </outline>
</glyph>
<glyph name="exclamdown" format="2">
  <advance width="621"/>
  <unicode hex="00A1"/>
  <outline>
    <contour>
      <point x="398" y="812" type="line"/>
      <point x="221" y="812" type="line"/>
      <point x="221" y="986" type="line"/>
      <point x="398" y="986" type="line"/>
    </contour>
    <contour>
      <point x="386" y="-432" type="line"/>
      <point x="233" y="-432" type="line"/>
      <point x="261" y="619" type="line"/>
      <point x="357" y="619" type="line"/>
    </contour>
  </outline>
</glyph>
<glyph name="cent" format="2">
  <advance width="1127"/>
  <unicode hex="00A2"/>
  <outline>
    <contour>
      <point x="642" y="-203" type="line"/>
      <point x="551" y="-203" type="line"/>
      <point x="551" y="-15" type="line"/>
      <point x="456" y="-6"/>
      <point x="315" y="83"/>
      <point x="222" y="220"/>
      <point x="175" y="395"/>
      <point x="175" y="491" type="qcurve" smooth="yes"/>
      <point x="175" y="580"/>
      <point x="218" y="752"/>
      <point x="310" y="892"/>
      <point x="452" y="987"/>
      <point x="551" y="999" type="qcurve"/>
      <point x="551" y="1185" type="line"/>
      <point x="642" y="1185" type="line"/>
      <point x="642" y="999" type="line"/>
      <point x="756" y="984"/>
      <point x="927" y="858"/>
      <point x="974" y="752" type="qcurve"/>
      <point x="845" y="697" type="line"/>
      <point x="833" y="737"/>
      <point x="784" y="804"/>
      <point x="719" y="852"/>
      <point x="641" y="878"/>
      <point x="599" y="878" type="qcurve" smooth="yes"/>
      <point x="528" y="878"/>
      <point x="421" y="817"/>
      <point x="350" y="711"/>
      <point x="314" y="570"/>
      <point x="314" y="491" type="qcurve" smooth="yes"/>
      <point x="314" y="405"/>
      <point x="351" y="263"/>
      <point x="424" y="161"/>
      <point x="530" y="105"/>
      <point x="599" y="105" type="qcurve" smooth="yes"/>
      <point x="640" y="105"/>
      <point x="717" y="130"/>
      <point x="783" y="176"/>
      <point x="832" y="243"/>
      <point x="845" y="285" type="qcurve"/>
      <point x="963" y="234" type="line"/>
      <point x="920" y="119"/>
      <point x="757" y="-5"/>
      <point x="642" y="-17" type="qcurve"/>
    </contour>
  </outline>
</glyph>
<glyph name="yen" format="2">
  <advance width="1290"/>
  <unicode hex="00A5"/>
  <outline>
    <contour>
      <point x="708" y="0" type="line"/>
      <point x="582" y="0" type="line"/>
      <point x="582" y="314" type="line"/>
      <point x="286" y="314" type="line"/>
      <point x="286" y="413" type="line"/>
      <point x="582" y="413" type="line"/>
      <point x="582" y="534" type="line"/>
      <point x="286" y="534" type="line"/>
      <point x="286" y="632" type="line"/>
      <point x="535" y="632" type="line"/>
      <point x="64" y="1396" type="line"/>
      <point x="211" y="1396" type="line"/>
      <point x="647" y="695" type="line"/>
      <point x="1081" y="1396" type="line"/>
      <point x="1226" y="1396" type="line"/>
      <point x="755" y="633" type="line"/>
      <point x="1006" y="633" type="line"/>
      <point x="1006" y="534" type="line"/>
      <point x="708" y="534" type="line"/>
      <point x="708" y="413" type="line"/>
      <point x="1006" y="413" type="line"/>
      <point x="1006" y="314" type="line"/>
      <point x="708" y="314" type="line"/>
    </contour>
  </outline>
</glyph>
<glyph name="section" format="2">
  <advance width="1116"/>
  <unicode hex="00A7"/>
  <outline>
    <contour>
      <point x="564" y="-18" type="qcurve" smooth="yes"/>
      <point x="493" y="-18"/>
      <point x="368" y="15"/>
      <point x="266" y="82"/>
      <point x="189" y="186"/>
      <point x="167" y="257" type="qcurve"/>
      <point x="282" y="298" type="line"/>
      <point x="307" y="194"/>
      <point x="449" y="95"/>
      <point x="564" y="95" type="qcurve" smooth="yes"/>
      <point x="619" y="95"/>
      <point x="709" y="115"/>
      <point x="773" y="158"/>
      <point x="807" y="224"/>
      <point x="807" y="271" type="qcurve" smooth="yes"/>
      <point x="807" y="310"/>
      <point x="775" y="362"/>
      <point x="711" y="398"/>
      <point x="617" y="424"/>
      <point x="555" y="438" type="qcurve"/>
      <point x="477" y="453"/>
      <point x="351" y="491"/>
      <point x="262" y="553"/>
      <point x="215" y="647"/>
      <point x="215" y="718" type="qcurve" smooth="yes"/>
      <point x="215" y="781"/>
      <point x="268" y="892"/>
      <point x="320" y="935" type="qcurve"/>
      <point x="268" y="970"/>
      <point x="217" y="1069"/>
      <point x="217" y="1129" type="qcurve" smooth="yes"/>
      <point x="217" y="1131"/>
      <point x="217" y="1134" type="qcurve" smooth="yes"/>
      <point x="217" y="1198"/>
      <point x="271" y="1303"/>
      <point x="363" y="1377"/>
      <point x="485" y="1417"/>
      <point x="552" y="1417" type="qcurve" smooth="yes"/>
      <point x="679" y="1417"/>
      <point x="863" y="1291"/>
      <point x="913" y="1163" type="qcurve"/>
      <point x="792" y="1131" type="line"/>
      <point x="742" y="1303"/>
      <point x="550" y="1303" type="qcurve" smooth="yes"/>
      <point x="510" y="1303"/>
      <point x="431" y="1282"/>
      <point x="369" y="1238"/>
      <point x="331" y="1171"/>
      <point x="331" y="1125" type="qcurve" smooth="yes"/>
      <point x="331" y="1086"/>
      <point x="366" y="1036"/>
      <point x="430" y="1002"/>
      <point x="520" y="979"/>
      <point x="575" y="968" type="qcurve" smooth="yes"/>
      <point x="628" y="957"/>
      <point x="713" y="935"/>
      <point x="781" y="910"/>
      <point x="834" y="878"/>
      <point x="855" y="857" type="qcurve"/>
      <point x="923" y="794"/>
      <point x="923" y="680" type="qcurve" smooth="yes"/>
      <point x="923" y="616"/>
      <point x="874" y="508"/>
      <point x="823" y="467" type="qcurve"/>
      <point x="923" y="394"/>
      <point x="923" y="269" type="qcurve" smooth="yes"/>
      <point x="923" y="193"/>
      <point x="862" y="85"/>
      <point x="762" y="15"/>
      <point x="632" y="-18"/>
    </contour>
    <contour>
      <point x="692" y="516" type="line"/>
      <point x="807" y="562"/>
      <point x="807" y="687" type="qcurve" smooth="yes"/>
      <point x="807" y="728"/>
      <point x="771" y="789"/>
      <point x="700" y="835"/>
      <point x="593" y="867"/>
      <point x="522" y="880" type="qcurve"/>
      <point x="504" y="884"/>
      <point x="471" y="890"/>
      <point x="454" y="895" type="qcurve"/>
      <point x="395" y="870"/>
      <point x="331" y="780"/>
      <point x="331" y="720" type="qcurve" smooth="yes"/>
      <point x="331" y="679"/>
      <point x="370" y="621"/>
      <point x="441" y="579"/>
      <point x="538" y="549"/>
      <point x="596" y="537" type="qcurve" smooth="yes"/>
    </contour>
  </outline>
</glyph>
<glyph name="dieresis" format="2">
  <advance width="822"/>
  <unicode hex="00A8"/>
  <outline>
    <contour>
      <point x="324" y="1215" type="line"/>
      <point x="167" y="1215" type="line"/>
      <point x="167" y="1396" type="line"/>
      <point x="324" y="1396" type="line"/>
    </contour>
    <contour>
      <point x="654" y="1215" type="line"/>
      <point x="497" y="1215" type="line"/>
      <point x="497" y="1396" type="line"/>
      <point x="654" y="1396" type="line"/>
    </contour>
  </outline>
</glyph>
<glyph name="copyright" format="2">
  <advance width="1736"/>
  <unicode hex="00A9"/>
  <outline>
    <contour>
      <point x="868" y="-51" type="qcurve" smooth="yes"/>
      <point x="766" y="-51"/>
      <point x="577" y="2"/>
      <point x="413" y="100"/>
      <point x="279" y="237"/>
      <point x="183" y="403"/>
      <point x="131" y="595"/>
      <point x="131" y="698" type="qcurve" smooth="yes"/>
      <point x="131" y="803"/>
      <point x="185" y="995"/>
      <point x="282" y="1162"/>
      <point x="418" y="1298"/>
      <point x="582" y="1394"/>
      <point x="768" y="1447"/>
      <point x="868" y="1447" type="qcurve" smooth="yes"/>
      <point x="969" y="1447"/>
      <point x="1156" y="1393"/>
      <point x="1320" y="1295"/>
      <point x="1455" y="1159"/>
      <point x="1551" y="992"/>
      <point x="1604" y="801"/>
      <point x="1604" y="698" type="qcurve" smooth="yes"/>
      <point x="1604" y="594"/>
      <point x="1551" y="403"/>
      <point x="1454" y="236"/>
      <point x="1319" y="100"/>
      <point x="1156" y="2"/>
      <point x="968" y="-51"/>
    </contour>
    <contour>
      <point x="868" y="51" type="qcurve" smooth="yes"/>
      <point x="954" y="51"/>
      <point x="1115" y="98"/>
      <point x="1256" y="184"/>
      <point x="1373" y="303"/>
      <point x="1457" y="447"/>
      <point x="1503" y="610"/>
      <point x="1503" y="698" type="qcurve" smooth="yes"/>
      <point x="1503" y="785"/>
      <point x="1456" y="949"/>
      <point x="1372" y="1092"/>
      <point x="1255" y="1212"/>
      <point x="1114" y="1297"/>
      <point x="953" y="1345"/>
      <point x="868" y="1345" type="qcurve" smooth="yes"/>
      <point x="780" y="1345"/>
      <point x="618" y="1297"/>
      <point x="477" y="1210"/>
      <point x="360" y="1090"/>
      <point x="277" y="946"/>
      <point x="231" y="783"/>
      <point x="231" y="698" type="qcurve" smooth="yes"/>
      <point x="231" y="613"/>
      <point x="276" y="451"/>
      <point x="359" y="308"/>
      <point x="475" y="187"/>
      <point x="617" y="100"/>
      <point x="780" y="51"/>
    </contour>
    <contour>
      <point x="884" y="304" type="qcurve" smooth="yes"/>
      <point x="802" y="304"/>
      <point x="675" y="363"/>
      <point x="588" y="468"/>
      <point x="543" y="611"/>
      <point x="543" y="696" type="qcurve" smooth="yes"/>
      <point x="543" y="774"/>
      <point x="584" y="916"/>
      <point x="668" y="1024"/>
      <point x="797" y="1088"/>
      <point x="884" y="1088" type="qcurve" smooth="yes"/>
      <point x="930" y="1088"/>
      <point x="1018" y="1064"/>
      <point x="1094" y="1019"/>
      <point x="1156" y="954"/>
      <point x="1176" y="913" type="qcurve"/>
      <point x="1085" y="874" type="line"/>
      <point x="1056" y="928"/>
      <point x="949" y="987"/>
      <point x="884" y="987" type="qcurve" smooth="yes"/>
      <point x="822" y="987"/>
      <point x="730" y="939"/>
      <point x="670" y="859"/>
      <point x="641" y="754"/>
      <point x="641" y="696" type="qcurve" smooth="yes"/>
      <point x="641" y="642"/>
      <point x="667" y="538"/>
      <point x="725" y="457"/>
      <point x="816" y="407"/>
      <point x="882" y="407" type="qcurve" smooth="yes"/>
      <point x="913" y="407"/>
      <point x="972" y="422"/>
      <point x="1025" y="450"/>
      <point x="1068" y="493"/>
      <point x="1083" y="521" type="qcurve"/>
      <point x="1094" y="516"/>
      <point x="1118" y="506"/>
      <point x="1130" y="501" type="qcurve" smooth="yes"/>
      <point x="1176" y="481" type="line"/>
      <point x="1134" y="393"/>
      <point x="980" y="304"/>
    </contour>
  </outline>
</glyph>
<glyph name="ordfeminine" format="2">
  <advance width="820"/>
  <unicode hex="00AA"/>
  <outline>
    <contour>
      <point x="327" y="702" type="qcurve" smooth="yes"/>
      <point x="284" y="702"/>
      <point x="203" y="729"/>
      <point x="141" y="781"/>
      <point x="104" y="858"/>
      <point x="104" y="908" type="qcurve" smooth="yes"/>
      <point x="104" y="961"/>
      <point x="141" y="1038"/>
      <point x="208" y="1087"/>
      <point x="301" y="1111"/>
      <point x="357" y="1111" type="qcurve" smooth="yes"/>
      <point x="573" y="1111" type="line"/>
      <point x="571" y="1331"/>
      <point x="395" y="1331" type="qcurve" smooth="yes"/>
      <point x="335" y="1331"/>
      <point x="241" y="1273"/>
      <point x="214" y="1232" type="qcurve"/>
      <point x="133" y="1283" type="line"/>
      <point x="182" y="1352"/>
      <point x="313" y="1417"/>
      <point x="400" y="1417" type="qcurve" smooth="yes"/>
      <point x="465" y="1417"/>
      <point x="565" y="1377"/>
      <point x="633" y="1303"/>
      <point x="668" y="1201"/>
      <point x="668" y="1140" type="qcurve" smooth="yes"/>
      <point x="668" y="716" type="line"/>
      <point x="583" y="716" type="line"/>
      <point x="576" y="842" type="line"/>
      <point x="531" y="770"/>
      <point x="408" y="702"/>
    </contour>
    <contour>
      <point x="353" y="791" type="qcurve" smooth="yes"/>
      <point x="399" y="791"/>
      <point x="479" y="831"/>
      <point x="538" y="896"/>
      <point x="573" y="981"/>
      <point x="573" y="1026" type="qcurve"/>
      <point x="382" y="1026" type="line" smooth="yes"/>
      <point x="347" y="1026"/>
      <point x="287" y="1012"/>
      <point x="242" y="982"/>
      <point x="216" y="938"/>
      <point x="216" y="908" type="qcurve" smooth="yes"/>
      <point x="216" y="881"/>
      <point x="241" y="838"/>
      <point x="280" y="807"/>
      <point x="329" y="791"/>
    </contour>
  </outline>
</glyph>
<glyph name="logicalnot" format="2">
  <advance width="1268"/>
  <unicode hex="00AC"/>
  <outline>
    <contour>
      <point x="1009" y="288" type="line"/>
      <point x="892" y="288" type="line"/>
      <point x="892" y="673" type="line"/>
      <point x="157" y="673" type="line"/>
      <point x="157" y="786" type="line"/>
      <point x="1009" y="786" type="line"/>
    </contour>
  </outline>
</glyph>
<glyph name="macron" format="2">
  <advance width="857"/>
  <unicode hex="00AF"/>
  <outline>
    <contour>
      <point x="688" y="1179" type="line"/>
      <point x="159" y="1179" type="line"/>
      <point x="159" y="1296" type="line"/>
      <point x="688" y="1296" type="line"/>
    </contour>
  </outline>
</glyph>
<glyph name="degree" format="2">
  <advance width="955"/>
  <unicode hex="00B0"/>
  <outline>
    <contour>
      <point x="478" y="840" type="qcurve" smooth="yes"/>
      <point x="419" y="840"/>
      <point x="315" y="884"/>
      <point x="236" y="961"/>
      <point x="190" y="1066"/>
      <point x="190" y="1128" type="qcurve" smooth="yes"/>
      <point x="190" y="1187"/>
      <point x="235" y="1292"/>
      <point x="313" y="1371"/>
      <point x="418" y="1417"/>
      <point x="478" y="1417" type="qcurve" smooth="yes"/>
      <point x="536" y="1417"/>
      <point x="640" y="1371"/>
      <point x="719" y="1292"/>
      <point x="765" y="1187"/>
      <point x="765" y="1128" type="qcurve" smooth="yes"/>
      <point x="765" y="1067"/>
      <point x="719" y="962"/>
      <point x="641" y="884"/>
      <point x="536" y="840"/>
    </contour>
    <contour>
      <point x="478" y="915" type="qcurve" smooth="yes"/>
      <point x="513" y="915"/>
      <point x="588" y="943"/>
      <point x="649" y="997"/>
      <point x="689" y="1077"/>
      <point x="689" y="1128" type="qcurve" smooth="yes"/>
      <point x="689" y="1170"/>
      <point x="655" y="1248"/>
      <point x="598" y="1306"/>
      <point x="521" y="1341"/>
      <point x="478" y="1341" type="qcurve" smooth="yes"/>
      <point x="434" y="1341"/>
      <point x="357" y="1307"/>
      <point x="299" y="1248"/>
      <point x="265" y="1171"/>
      <point x="265" y="1128" type="qcurve" smooth="yes"/>
      <point x="265" y="1084"/>
      <point x="298" y="1007"/>
      <point x="356" y="949"/>
      <point x="434" y="915"/>
    </contour>
  </outline>
</glyph>
<glyph name="plusminus" format="2">
  <advance width="1305"/>
  <unicode hex="00B1"/>
  <outline>
    <contour>
      <point x="701" y="105" type="line"/>
      <point x="604" y="105" type="line"/>
      <point x="604" y="571" type="line"/>
      <point x="152" y="571" type="line"/>
      <point x="152" y="666" type="line"/>
      <point x="604" y="666" type="line"/>
      <point x="604" y="1129" type="line"/>
      <point x="701" y="1129" type="line"/>
      <point x="701" y="666" type="line"/>
      <point x="1153" y="666" type="line"/>
      <point x="1153" y="571" type="line"/>
      <point x="701" y="571" type="line"/>
    </contour>
    <contour>
      <point x="1152" y="-99" type="line"/>
      <point x="152" y="-99" type="line"/>
      <point x="152" y="-3" type="line"/>
      <point x="1152" y="-3" type="line"/>
    </contour>
  </outline>
</glyph>
<glyph name="threesuperior" format="2">
  <advance width="868"/>
  <unicode hex="00B3"/>
  <outline>
    <contour>
      <point x="415" y="466" type="qcurve" smooth="yes"/>
      <point x="350" y="466"/>
      <point x="232" y="498"/>
      <point x="143" y="565"/>
      <point x="91" y="669"/>
      <point x="91" y="740" type="qcurve"/>
      <point x="113" y="742"/>
      <point x="158" y="745"/>
      <point x="179" y="748" type="qcurve"/>
      <point x="179" y="701"/>
      <point x="217" y="627"/>
      <point x="282" y="576"/>
      <point x="368" y="550"/>
      <point x="416" y="550" type="qcurve" smooth="yes"/>
      <point x="456" y="550"/>
      <point x="539" y="573"/>
      <point x="606" y="621"/>
      <point x="648" y="695"/>
      <point x="648" y="746" type="qcurve" smooth="yes"/>
      <point x="648" y="792"/>
      <point x="614" y="862"/>
      <point x="555" y="910"/>
      <point x="475" y="934"/>
      <point x="429" y="934" type="qcurve" smooth="yes"/>
      <point x="368" y="934" type="line"/>
      <point x="368" y="1022" type="line"/>
      <point x="428" y="1022" type="line" smooth="yes"/>
      <point x="462" y="1022"/>
      <point x="523" y="1041"/>
      <point x="568" y="1080"/>
      <point x="594" y="1140"/>
      <point x="594" y="1181" type="qcurve" smooth="yes"/>
      <point x="594" y="1220"/>
      <point x="565" y="1281"/>
      <point x="515" y="1324"/>
      <point x="449" y="1347"/>
      <point x="413" y="1347" type="qcurve" smooth="yes"/>
      <point x="372" y="1347"/>
      <point x="304" y="1322"/>
      <point x="255" y="1279"/>
      <point x="227" y="1218"/>
      <point x="226" y="1182" type="qcurve"/>
      <point x="138" y="1192" type="line"/>
      <point x="138" y="1249"/>
      <point x="180" y="1339"/>
      <point x="254" y="1401"/>
      <point x="354" y="1434"/>
      <point x="412" y="1434" type="qcurve" smooth="yes"/>
      <point x="464" y="1434"/>
      <point x="562" y="1404"/>
      <point x="638" y="1343"/>
      <point x="685" y="1253"/>
      <point x="685" y="1193" type="qcurve" smooth="yes"/>
      <point x="685" y="1126"/>
      <point x="621" y="1018"/>
      <point x="563" y="986" type="qcurve"/>
      <point x="650" y="958"/>
      <point x="736" y="834"/>
      <point x="738" y="745" type="qcurve"/>
      <point x="738" y="675"/>
      <point x="688" y="571"/>
      <point x="600" y="501"/>
      <point x="482" y="466"/>
    </contour>
  </outline>
</glyph>
<glyph name="acute" format="2">
  <advance width="524"/>
  <unicode hex="00B4"/>
  <outline>
    <contour>
      <point x="193" y="1113" type="line"/>
      <point x="73" y="1113" type="line"/>
      <point x="284" y="1396" type="line"/>
      <point x="458" y="1396" type="line"/>
    </contour>
  </outline>
</glyph>
<glyph name="periodcentered" format="2">
  <advance width="642"/>
  <unicode hex="00B7"/>
  <outline>
    <contour>
      <point x="319" y="701" type="qcurve" smooth="yes"/>
      <point x="295" y="701"/>
      <point x="252" y="720"/>
      <point x="221" y="751"/>
      <point x="203" y="794"/>
      <point x="203" y="818" type="qcurve" smooth="yes"/>
      <point x="203" y="870"/>
      <point x="268" y="936"/>
      <point x="319" y="936" type="qcurve" smooth="yes"/>
      <point x="344" y="936"/>
      <point x="387" y="918"/>
      <point x="419" y="886"/>
      <point x="437" y="843"/>
      <point x="437" y="818" type="qcurve" smooth="yes"/>
      <point x="437" y="794"/>
      <point x="418" y="752"/>
      <point x="386" y="720"/>
      <point x="343" y="701"/>
    </contour>
  </outline>
</glyph>
<glyph name="guillemotright" format="2">
  <advance width="955"/>
  <unicode hex="00BB"/>
  <outline>
    <contour>
      <point x="167" y="191" type="line"/>
      <point x="167" y="337" type="line"/>
      <point x="362" y="505" type="line"/>
      <point x="167" y="671" type="line"/>
      <point x="167" y="818" type="line"/>
      <point x="517" y="505" type="line"/>
    </contour>
    <contour>
      <point x="526" y="191" type="line"/>
      <point x="526" y="337" type="line"/>
      <point x="721" y="505" type="line"/>
      <point x="526" y="671" type="line"/>
      <point x="526" y="818" type="line"/>
      <point x="878" y="505" type="line"/>
    </contour>
  </outline>
</glyph>
<glyph name="Oslash" format="2">
  <advance width="1497"/>
  <unicode hex="00D8"/>
  <outline>
    <contour>
      <point x="747" y="-20" type="qcurve" smooth="yes"/>
      <point x="571" y="-20"/>
      <point x="442" y="54" type="qcurve"/>
      <point x="411" y="0" type="line"/>
      <point x="299" y="0" type="line"/>
      <point x="314" y="27"/>
      <point x="345" y="82"/>
      <point x="361" y="111" type="qcurve"/>
      <point x="302" y="162"/>
      <point x="216" y="292"/>
      <point x="159" y="443"/>
      <point x="131" y="611"/>
      <point x="131" y="698" type="qcurve" smooth="yes"/>
      <point x="131" y="812"/>
      <point x="178" y="1028"/>
      <point x="279" y="1211"/>
      <point x="437" y="1351"/>
      <point x="548" y="1388" type="qcurve"/>
      <point x="640" y="1417"/>
      <point x="747" y="1417" type="qcurve" smooth="yes"/>
      <point x="916" y="1417"/>
      <point x="1051" y="1344" type="qcurve"/>
      <point x="1081" y="1396" type="line"/>
      <point x="1193" y="1396" type="line"/>
      <point x="1132" y="1288" type="line"/>
      <point x="1191" y="1237"/>
      <point x="1279" y="1106"/>
      <point x="1337" y="954"/>
      <point x="1366" y="786"/>
      <point x="1366" y="698" type="qcurve" smooth="yes"/>
      <point x="1366" y="608"/>
      <point x="1335" y="433"/>
      <point x="1271" y="273"/>
      <point x="1172" y="137"/>
      <point x="1034" y="37"/>
      <point x="857" y="-20"/>
    </contour>
    <contour>
      <point x="426" y="226" type="qcurve"/>
      <point x="989" y="1232" type="line"/>
      <point x="883" y="1290"/>
      <point x="747" y="1290" type="qcurve" smooth="yes"/>
      <point x="636" y="1290"/>
      <point x="456" y="1208"/>
      <point x="328" y="1055"/>
      <point x="259" y="836"/>
      <point x="259" y="698" type="qcurve" smooth="yes"/>
      <point x="259" y="628"/>
      <point x="279" y="495"/>
      <point x="320" y="375"/>
      <point x="383" y="269"/>
    </contour>
    <contour>
      <point x="747" y="106" type="qcurve" smooth="yes"/>
      <point x="866" y="106"/>
      <point x="1050" y="194"/>
      <point x="1175" y="352"/>
      <point x="1239" y="569"/>
      <point x="1239" y="698" type="qcurve" smooth="yes"/>
      <point x="1239" y="840"/>
      <point x="1157" y="1086"/>
      <point x="1069" y="1173" type="qcurve"/>
      <point x="505" y="166" type="line"/>
      <point x="607" y="106"/>
    </contour>
  </outline>
</glyph>
<glyph name="Thorn" format="2">
  <advance width="1138"/>
  <unicode hex="00DE"/>
  <outline>
    <contour>
      <point x="354" y="0" type="line"/>
      <point x="218" y="0" type="line"/>
      <point x="218" y="1396" type="line"/>
      <point x="354" y="1396" type="line"/>
      <point x="354" y="1197" type="line"/>
      <point x="605" y="1197" type="line" smooth="yes"/>
      <point x="698" y="1197"/>
      <point x="857" y="1147"/>
      <point x="974" y="1049"/>
      <point x="1040" y="904"/>
      <point x="1040" y="810" type="qcurve" smooth="yes"/>
      <point x="1040" y="719"/>
      <point x="975" y="579"/>
      <point x="859" y="484"/>
      <point x="698" y="435"/>
      <point x="602" y="435" type="qcurve" smooth="yes"/>
      <point x="354" y="435" type="line"/>
    </contour>
    <contour>
      <point x="602" y="561" type="line" smooth="yes"/>
      <point x="670" y="561"/>
      <point x="782" y="590"/>
      <point x="861" y="651"/>
      <point x="904" y="744"/>
      <point x="904" y="808" type="qcurve" smooth="yes"/>
      <point x="904" y="871"/>
      <point x="861" y="965"/>
      <point x="782" y="1028"/>
      <point x="670" y="1060"/>
      <point x="602" y="1060" type="qcurve" smooth="yes"/>
      <point x="354" y="1060" type="line"/>
      <point x="354" y="561" type="line"/>
    </contour>
  </outline>
</glyph>
<glyph name="germandbls" format="2">
  <advance width="1165"/>
  <unicode hex="00DF"/>
  <outline>
    <contour>
      <point x="710" y="-18" type="qcurve" smooth="yes"/>
      <point x="639" y="-18"/>
      <point x="509" y="18"/>
      <point x="437" y="53" type="qcurve"/>
      <point x="492" y="175" type="line"/>
      <point x="600" y="113"/>
      <point x="710" y="113" type="qcurve" smooth="yes"/>
      <point x="744" y="113"/>
      <point x="815" y="139"/>
      <point x="873" y="184"/>
      <point x="910" y="246"/>
      <point x="910" y="283" type="qcurve" smooth="yes"/>
      <point x="910" y="319"/>
      <point x="889" y="379"/>
      <point x="848" y="436"/>
      <point x="789" y="492"/>
      <point x="751" y="523" type="qcurve" smooth="yes"/>
      <point x="714" y="552"/>
      <point x="655" y="607"/>
      <point x="613" y="664"/>
      <point x="591" y="726"/>
      <point x="591" y="764" type="qcurve" smooth="yes"/>
      <point x="591" y="800"/>
      <point x="614" y="852"/>
      <point x="655" y="897"/>
      <point x="713" y="940"/>
      <point x="749" y="969" type="qcurve" smooth="yes"/>
      <point x="788" y="1000"/>
      <point x="818" y="1058"/>
      <point x="818" y="1101" type="qcurve" smooth="yes"/>
      <point x="818" y="1116"/>
      <point x="814" y="1146"/>
      <point x="800" y="1180"/>
      <point x="773" y="1217"/>
      <point x="750" y="1240" type="qcurve"/>
      <point x="686" y="1299"/>
      <point x="573" y="1299" type="qcurve" smooth="yes"/>
      <point x="437" y="1299"/>
      <point x="300" y="1091"/>
      <point x="300" y="883" type="qcurve" smooth="yes"/>
      <point x="300" y="0" type="line"/>
      <point x="175" y="0" type="line"/>
      <point x="175" y="864" type="line" smooth="yes"/>
      <point x="175" y="1147"/>
      <point x="376" y="1417"/>
      <point x="570" y="1417" type="qcurve" smooth="yes"/>
      <point x="640" y="1417"/>
      <point x="778" y="1369"/>
      <point x="887" y="1282"/>
      <point x="954" y="1161"/>
      <point x="954" y="1088" type="qcurve" smooth="yes"/>
      <point x="954" y="1053"/>
      <point x="936" y="999"/>
      <point x="902" y="955"/>
      <point x="853" y="916"/>
      <point x="821" y="895" type="qcurve" smooth="yes"/>
      <point x="771" y="862"/>
      <point x="727" y="804"/>
      <point x="727" y="762" type="qcurve" smooth="yes"/>
      <point x="727" y="731"/>
      <point x="754" y="681"/>
      <point x="808" y="628"/>
      <point x="887" y="565"/>
      <point x="940" y="521" type="qcurve"/>
      <point x="990" y="473"/>
      <point x="1040" y="367"/>
      <point x="1040" y="301" type="qcurve" smooth="yes"/>
      <point x="1040" y="230"/>
      <point x="988" y="112"/>
      <point x="898" y="28"/>
      <point x="778" y="-18"/>
    </contour>
  </outline>
</glyph>
<glyph name="ae" format="2">
  <advance width="1645"/>
  <unicode hex="00E6"/>
  <outline>
    <contour>
      <point x="783" y="269" type="qcurve"/>
      <point x="763" y="204"/>
      <point x="694" y="97"/>
      <point x="597" y="21"/>
      <point x="470" y="-20"/>
      <point x="391" y="-20" type="qcurve" smooth="yes"/>
      <point x="327" y="-20"/>
      <point x="215" y="22"/>
      <point x="131" y="98"/>
      <point x="83" y="203"/>
      <point x="83" y="265" type="qcurve" smooth="yes"/>
      <point x="83" y="415"/>
      <point x="268" y="557"/>
      <point x="435" y="557" type="qcurve" smooth="yes"/>
      <point x="752" y="557" type="line"/>
      <point x="752" y="899"/>
      <point x="490" y="899" type="qcurve" smooth="yes"/>
      <point x="446" y="899"/>
      <point x="366" y="876"/>
      <point x="297" y="836"/>
      <point x="241" y="784"/>
      <point x="222" y="756" type="qcurve"/>
      <point x="122" y="819" type="line"/>
      <point x="159" y="867"/>
      <point x="239" y="936"/>
      <point x="330" y="981"/>
      <point x="435" y="1003"/>
      <point x="497" y="1003" type="qcurve" smooth="yes"/>
      <point x="742" y="1003"/>
      <point x="819" y="805" type="qcurve"/>
      <point x="868" y="902"/>
      <point x="1037" y="999"/>
      <point x="1148" y="999" type="qcurve" smooth="yes"/>
      <point x="1243" y="999"/>
      <point x="1388" y="944"/>
      <point x="1489" y="842"/>
      <point x="1546" y="698"/>
      <point x="1553" y="608" type="qcurve"/>
      <point x="1555" y="560"/>
      <point x="1557" y="506"/>
      <point x="1557" y="491" type="qcurve" smooth="yes"/>
      <point x="1557" y="481"/>
      <point x="1557" y="473" type="qcurve"/>
      <point x="1556" y="467"/>
      <point x="1555" y="456"/>
      <point x="1555" y="451" type="qcurve"/>
      <point x="866" y="451" type="line"/>
      <point x="866" y="375"/>
      <point x="899" y="252"/>
      <point x="939" y="201" type="qcurve" smooth="yes"/>
      <point x="979" y="151"/>
      <point x="1091" y="99"/>
      <point x="1163" y="99" type="qcurve" smooth="yes"/>
      <point x="1213" y="99"/>
      <point x="1294" y="110"/>
      <point x="1363" y="135"/>
      <point x="1422" y="174"/>
      <point x="1451" y="202" type="qcurve"/>
      <point x="1535" y="135" type="line"/>
      <point x="1494" y="94"/>
      <point x="1411" y="38"/>
      <point x="1322" y="4"/>
      <point x="1223" y="-12"/>
      <point x="1165" y="-12" type="qcurve" smooth="yes"/>
      <point x="1033" y="-12"/>
      <point x="840" y="112"/>
      <point x="797" y="229" type="qcurve" smooth="yes"/>
      <point x="789" y="251"/>
    </contour>
    <contour>
      <point x="1437" y="560" type="line"/>
      <point x="1437" y="567" type="line" smooth="yes"/>
      <point x="1437" y="638"/>
      <point x="1400" y="755"/>
      <point x="1327" y="839"/>
      <point x="1219" y="885"/>
      <point x="1148" y="885" type="qcurve" smooth="yes"/>
      <point x="1083" y="885"/>
      <point x="980" y="837"/>
      <point x="907" y="750"/>
      <point x="867" y="631"/>
      <point x="866" y="560" type="qcurve"/>
    </contour>
    <contour>
      <point x="429" y="89" type="qcurve" smooth="yes"/>
      <point x="489" y="89"/>
      <point x="600" y="137"/>
      <point x="689" y="222"/>
      <point x="746" y="337"/>
      <point x="751" y="403" type="qcurve"/>
      <point x="753" y="412"/>
      <point x="753" y="436"/>
      <point x="755" y="451" type="qcurve"/>
      <point x="435" y="451" type="line" smooth="yes"/>
      <point x="389" y="451"/>
      <point x="309" y="427"/>
      <point x="250" y="380"/>
      <point x="216" y="310"/>
      <point x="216" y="265" type="qcurve" smooth="yes"/>
      <point x="216" y="228"/>
      <point x="253" y="164"/>
      <point x="313" y="116"/>
      <point x="390" y="89"/>
    </contour>
  </outline>
</glyph>
<glyph name="oslash" format="2">
  <advance width="1105"/>
  <unicode hex="00F8"/>
  <outline>
    <contour>
      <point x="334" y="36" type="qcurve"/>
      <point x="314" y="1" type="line"/>
      <point x="236" y="1" type="line"/>
      <point x="277" y="74" type="line"/>
      <point x="189" y="145"/>
      <point x="92" y="359"/>
      <point x="92" y="489" type="qcurve" smooth="yes"/>
      <point x="92" y="589"/>
      <point x="156" y="774"/>
      <point x="275" y="915"/>
      <point x="445" y="999"/>
      <point x="551" y="999" type="qcurve" smooth="yes"/>
      <point x="666" y="999"/>
      <point x="764" y="945" type="qcurve"/>
      <point x="769" y="956"/>
      <point x="781" y="975"/>
      <point x="787" y="986" type="qcurve"/>
      <point x="866" y="986" type="line"/>
      <point x="822" y="906" type="line"/>
      <point x="911" y="837"/>
      <point x="1012" y="621"/>
      <point x="1012" y="489" type="qcurve" smooth="yes"/>
      <point x="1012" y="384"/>
      <point x="944" y="199"/>
      <point x="822" y="61"/>
      <point x="652" y="-20"/>
      <point x="551" y="-20" type="qcurve" smooth="yes"/>
      <point x="432" y="-20"/>
    </contour>
    <contour>
      <point x="338" y="183" type="qcurve"/>
      <point x="707" y="844" type="line"/>
      <point x="639" y="883"/>
      <point x="551" y="883" type="qcurve" smooth="yes"/>
      <point x="477" y="883"/>
      <point x="359" y="824"/>
      <point x="276" y="719"/>
      <point x="231" y="575"/>
      <point x="231" y="489" type="qcurve" smooth="yes"/>
      <point x="231" y="392"/>
      <point x="283" y="236"/>
    </contour>
    <contour>
      <point x="392" y="139" type="line"/>
      <point x="460" y="96"/>
      <point x="551" y="96" type="qcurve" smooth="yes"/>
      <point x="627" y="96"/>
      <point x="747" y="154"/>
      <point x="830" y="259"/>
      <point x="873" y="403"/>
      <point x="873" y="489" type="qcurve" smooth="yes"/>
      <point x="873" y="588"/>
      <point x="819" y="741"/>
      <point x="763" y="802" type="qcurve"/>
    </contour>
  </outline>
</glyph>
<glyph name="Aogonek" format="2">
  <advance width="1283"/>
  <unicode hex="0104"/>
  <outline>
    <contour>
      <point x="1211" y="0" type="line"/>
      <point x="1066" y="0" type="line"/>
      <point x="960" y="304" type="line"/>
      <point x="328" y="304" type="line"/>
      <point x="222" y="0" type="line"/>
      <point x="74" y="0" type="line"/>
      <point x="592" y="1396" type="line"/>
      <point x="697" y="1396" type="line"/>
    </contour>
    <contour>
      <point x="914" y="430" type="line"/>
      <point x="645" y="1199" type="line"/>
      <point x="373" y="430" type="line"/>
    </contour>
    <contour>
      <point x="1081" y="-447" type="qcurve" smooth="yes"/>
      <point x="1043" y="-447"/>
      <point x="972" y="-421"/>
      <point x="916" y="-370"/>
      <point x="882" y="-295"/>
      <point x="882" y="-245" type="qcurve" smooth="yes"/>
      <point x="882" y="-199"/>
      <point x="917" y="-122"/>
      <point x="976" y="-62"/>
      <point x="1054" y="-17"/>
      <point x="1097" y="-3" type="qcurve"/>
      <point x="1208" y="0" type="line"/>
      <point x="1176" y="-11"/>
      <point x="1098" y="-55"/>
      <point x="1028" y="-115"/>
      <point x="981" y="-190"/>
      <point x="981" y="-232" type="qcurve" smooth="yes"/>
      <point x="981" y="-284"/>
      <point x="1033" y="-344"/>
      <point x="1071" y="-344" type="qcurve" smooth="yes"/>
      <point x="1154" y="-344"/>
      <point x="1196" y="-280" type="qcurve"/>
      <point x="1280" y="-339" type="line"/>
      <point x="1243" y="-393"/>
      <point x="1146" y="-447"/>
    </contour>
  </outline>
</glyph>
<glyph name="Dcaron" format="2">
  <advance width="1388"/>
  <unicode hex="010E"/>
  <outline>
    <contour>
      <point x="711" y="1480" type="line"/>
      <point x="387" y="1805" type="line"/>
      <point x="538" y="1805" type="line"/>
      <point x="711" y="1617" type="line"/>
      <point x="886" y="1805" type="line"/>
      <point x="1036" y="1805" type="line"/>
    </contour>
    <contour>
      <point x="561" y="0" type="qcurve" smooth="yes"/>
      <point x="217" y="0" type="line"/>
      <point x="217" y="1396" type="line"/>
      <point x="563" y="1396" type="line" smooth="yes"/>
      <point x="731" y="1396"/>
      <point x="991" y="1303"/>
      <point x="1170" y="1123"/>
      <point x="1262" y="859"/>
      <point x="1262" y="688" type="qcurve" smooth="yes"/>
      <point x="1262" y="520"/>
      <point x="1167" y="263"/>
      <point x="987" y="89"/>
      <point x="726" y="0"/>
    </contour>
    <contour>
      <point x="537" y="123" type="line" smooth="yes"/>
      <point x="613" y="123"/>
      <point x="760" y="151"/>
      <point x="891" y="210"/>
      <point x="1002" y="302"/>
      <point x="1082" y="430"/>
      <point x="1127" y="595"/>
      <point x="1127" y="698" type="qcurve" smooth="yes"/>
      <point x="1127" y="834"/>
      <point x="1056" y="1049"/>
      <point x="914" y="1198"/>
      <point x="701" y="1277"/>
      <point x="559" y="1277" type="qcurve" smooth="yes"/>
      <point x="353" y="1277" type="line"/>
      <point x="353" y="123" type="line"/>
    </contour>
  </outline>
</glyph>
<glyph name="dcaron" format="2">
  <advance width="1163"/>
  <unicode hex="010F"/>
  <outline>
    <contour>
      <point x="492" y="-20" type="qcurve" smooth="yes"/>
      <point x="490" y="-20"/>
      <point x="488" y="-20" type="qcurve" smooth="yes"/>
      <point x="396" y="-20"/>
      <point x="253" y="61"/>
      <point x="154" y="201"/>
      <point x="102" y="388"/>
      <point x="102" y="493" type="qcurve" smooth="yes"/>
      <point x="102" y="592"/>
      <point x="151" y="777"/>
      <point x="248" y="921"/>
      <point x="394" y="1007"/>
      <point x="492" y="1007" type="qcurve" smooth="yes"/>
      <point x="696" y="1007"/>
      <point x="809" y="841" type="qcurve"/>
      <point x="809" y="1396" type="line"/>
      <point x="934" y="1396" type="line"/>
      <point x="934" y="0" type="line"/>
      <point x="809" y="0" type="line"/>
      <point x="809" y="145" type="line"/>
      <point x="751" y="60"/>
      <point x="600" y="-20"/>
    </contour>
    <contour>
      <point x="1143" y="1019" type="line"/>
      <point x="1047" y="1019" type="line"/>
      <point x="1096" y="1207" type="line" smooth="yes"/>
      <point x="1109" y="1255"/>
      <point x="1134" y="1348"/>
      <point x="1146" y="1396" type="qcurve"/>
      <point x="1344" y="1396" type="line"/>
    </contour>
    <contour>
      <point x="525" y="94" type="qcurve" smooth="yes"/>
      <point x="600" y="94"/>
      <point x="711" y="155"/>
      <point x="783" y="262"/>
      <point x="819" y="408"/>
      <point x="819" y="493" type="qcurve" smooth="yes"/>
      <point x="819" y="576"/>
      <point x="783" y="721"/>
      <point x="711" y="829"/>
      <point x="600" y="890"/>
      <point x="525" y="890" type="qcurve" smooth="yes"/>
      <point x="449" y="890"/>
      <point x="339" y="826"/>
      <point x="267" y="717"/>
      <point x="232" y="573"/>
      <point x="232" y="493" type="qcurve" smooth="yes"/>
      <point x="232" y="410"/>
      <point x="267" y="265"/>
      <point x="340" y="157"/>
      <point x="450" y="94"/>
    </contour>
  </outline>
</glyph>
<glyph name="Dcroat" format="2">
  <advance width="1405"/>
  <unicode hex="0110"/>
  <outline>
    <contour>
      <point x="584" y="0" type="qcurve" smooth="yes"/>
      <point x="233" y="0" type="line"/>
      <point x="233" y="655" type="line"/>
      <point x="122" y="655" type="line"/>
      <point x="122" y="753" type="line"/>
      <point x="233" y="753" type="line"/>
      <point x="233" y="1396" type="line"/>
      <point x="586" y="1396" type="line" smooth="yes"/>
      <point x="754" y="1396"/>
      <point x="1012" y="1302"/>
      <point x="1187" y="1122"/>
      <point x="1278" y="858"/>
      <point x="1278" y="688" type="qcurve" smooth="yes"/>
      <point x="1278" y="521"/>
      <point x="1184" y="264"/>
      <point x="1006" y="90"/>
      <point x="748" y="0"/>
    </contour>
    <contour>
      <point x="560" y="128" type="line" smooth="yes"/>
      <point x="689" y="128"/>
      <point x="902" y="200"/>
      <point x="1053" y="343"/>
      <point x="1134" y="554"/>
      <point x="1134" y="691" type="qcurve" smooth="yes"/>
      <point x="1134" y="695"/>
      <point x="1134" y="698" type="qcurve" smooth="yes"/>
      <point x="1134" y="830"/>
      <point x="1069" y="1042"/>
      <point x="933" y="1190"/>
      <point x="725" y="1270"/>
      <point x="582" y="1270" type="qcurve" smooth="yes"/>
      <point x="376" y="1270" type="line"/>
      <point x="376" y="753" type="line"/>
      <point x="754" y="753" type="line"/>
      <point x="754" y="655" type="line"/>
      <point x="376" y="655" type="line"/>
      <point x="376" y="128" type="line"/>
    </contour>
  </outline>
</glyph>
<glyph name="Hbar" format="2">
  <advance width="1433"/>
  <unicode hex="0126"/>
  <outline>
    <contour>
      <point x="1216" y="0" type="line"/>
      <point x="1081" y="0" type="line"/>
      <point x="1081" y="644" type="line"/>
      <point x="352" y="644" type="line"/>
      <point x="352" y="0" type="line"/>
      <point x="217" y="0" type="line"/>
      <point x="217" y="1066" type="line"/>
      <point x="100" y="1066" type="line"/>
      <point x="100" y="1140" type="line"/>
      <point x="217" y="1140" type="line"/>
      <point x="217" y="1396" type="line"/>
      <point x="352" y="1396" type="line"/>
      <point x="352" y="1140" type="line"/>
      <point x="1081" y="1140" type="line"/>
      <point x="1081" y="1396" type="line"/>
      <point x="1216" y="1396" type="line"/>
      <point x="1216" y="1140" type="line"/>
      <point x="1330" y="1140" type="line"/>
      <point x="1330" y="1066" type="line"/>
      <point x="1216" y="1066" type="line"/>
    </contour>
    <contour>
      <point x="1081" y="753" type="line"/>
      <point x="1081" y="1066" type="line"/>
      <point x="352" y="1066" type="line"/>
      <point x="352" y="753" type="line"/>
    </contour>
  </outline>
</glyph>
<glyph name="Iogonek" format="2">
  <advance width="568"/>
  <unicode hex="012E"/>
  <outline>
    <contour>
      <point x="352" y="0" type="line"/>
      <point x="217" y="0" type="line"/>
      <point x="217" y="1396" type="line"/>
      <point x="352" y="1396" type="line"/>
    </contour>
    <contour>
      <point x="223" y="-447" type="qcurve" smooth="yes"/>
      <point x="185" y="-447"/>
      <point x="114" y="-421"/>
      <point x="59" y="-370"/>
      <point x="25" y="-295"/>
      <point x="25" y="-245" type="qcurve" smooth="yes"/>
      <point x="25" y="-198"/>
      <point x="62" y="-120"/>
      <point x="122" y="-60"/>
      <point x="199" y="-16"/>
      <point x="239" y="-3" type="qcurve"/>
      <point x="350" y="0" type="line"/>
      <point x="319" y="-11"/>
      <point x="240" y="-55"/>
      <point x="171" y="-115"/>
      <point x="123" y="-190"/>
      <point x="123" y="-232" type="qcurve" smooth="yes"/>
      <point x="123" y="-283"/>
      <point x="173" y="-344"/>
      <point x="213" y="-344" type="qcurve" smooth="yes"/>
      <point x="296" y="-344"/>
      <point x="338" y="-280" type="qcurve"/>
      <point x="422" y="-339" type="line"/>
      <point x="385" y="-393"/>
      <point x="289" y="-447"/>
    </contour>
  </outline>
</glyph>
<glyph name="dotlessi" format="2">
  <advance width="481"/>
  <unicode hex="0131"/>
  <outline>
    <contour>
      <point x="308" y="0" type="line"/>
      <point x="173" y="0" type="line"/>
      <point x="173" y="986" type="line"/>
      <point x="308" y="986" type="line"/>
    </contour>
  </outline>
</glyph>
<glyph name="IJ" format="2">
  <advance width="1670"/>
  <unicode hex="0132"/>
  <outline>
    <contour>
      <point x="352" y="0" type="line"/>
      <point x="217" y="0" type="line"/>
      <point x="217" y="1396" type="line"/>
      <point x="352" y="1396" type="line"/>
    </contour>
    <contour>
      <point x="1058" y="-20" type="qcurve" smooth="yes"/>
      <point x="964" y="-20"/>
      <point x="817" y="43"/>
      <point x="712" y="151"/>
      <point x="653" y="297"/>
      <point x="648" y="380" type="qcurve"/>
      <point x="664" y="383"/>
      <point x="680" y="385" type="qcurve" smooth="yes"/>
      <point x="747" y="394" type="line"/>
      <point x="763" y="397"/>
      <point x="779" y="399" type="qcurve"/>
      <point x="782" y="343"/>
      <point x="818" y="235"/>
      <point x="885" y="149"/>
      <point x="987" y="96"/>
      <point x="1058" y="96" type="qcurve" smooth="yes"/>
      <point x="1137" y="96"/>
      <point x="1246" y="147"/>
      <point x="1312" y="242"/>
      <point x="1341" y="380"/>
      <point x="1341" y="469" type="qcurve" smooth="yes"/>
      <point x="1341" y="1283" type="line"/>
      <point x="814" y="1283" type="line"/>
      <point x="814" y="1396" type="line"/>
      <point x="1477" y="1396" type="line"/>
      <point x="1477" y="494" type="line" smooth="yes"/>
      <point x="1477" y="245"/>
      <point x="1273" y="-20"/>
    </contour>
  </outline>
</glyph>
<glyph name="ij" format="2">
  <advance width="951"/>
  <unicode hex="0133"/>
  <outline>
    <contour>
      <point x="788" y="1224" type="line"/>
      <point x="635" y="1224" type="line"/>
      <point x="635" y="1402" type="line"/>
      <point x="788" y="1402" type="line"/>
    </contour>
    <contour>
      <point x="314" y="1215" type="line"/>
      <point x="163" y="1215" type="line"/>
      <point x="163" y="1396" type="line"/>
      <point x="314" y="1396" type="line"/>
    </contour>
    <contour>
      <point x="302" y="0" type="line"/>
      <point x="173" y="0" type="line"/>
      <point x="173" y="986" type="line"/>
      <point x="302" y="986" type="line"/>
    </contour>
    <contour>
      <point x="532" y="-434" type="qcurve" smooth="yes"/>
      <point x="517" y="-434"/>
      <point x="480" y="-429"/>
      <point x="441" y="-421"/>
      <point x="404" y="-410"/>
      <point x="389" y="-404" type="qcurve"/>
      <point x="415" y="-305" type="line"/>
      <point x="424" y="-308"/>
      <point x="453" y="-314"/>
      <point x="486" y="-318"/>
      <point x="520" y="-321"/>
      <point x="533" y="-321" type="qcurve" smooth="yes"/>
      <point x="563" y="-321"/>
      <point x="607" y="-299"/>
      <point x="636" y="-263"/>
      <point x="649" y="-214"/>
      <point x="649" y="-187" type="qcurve" smooth="yes"/>
      <point x="649" y="986" type="line"/>
      <point x="778" y="986" type="line"/>
      <point x="778" y="-166" type="line" smooth="yes"/>
      <point x="778" y="-223"/>
      <point x="751" y="-321"/>
      <point x="692" y="-393"/>
      <point x="598" y="-434"/>
    </contour>
  </outline>
</glyph>
<glyph name="kgreenlandic" format="2">
  <advance width="1021"/>
  <unicode hex="0138"/>
  <outline>
    <contour>
      <point x="300" y="987" type="line"/>
      <point x="300" y="453" type="line"/>
      <point x="758" y="986" type="line"/>
      <point x="912" y="986" type="line"/>
      <point x="600" y="623" type="line"/>
      <point x="977" y="0" type="line"/>
      <point x="827" y="0" type="line"/>
      <point x="521" y="528" type="line"/>
      <point x="300" y="288" type="line"/>
      <point x="300" y="0" type="line"/>
      <point x="174" y="0" type="line"/>
      <point x="174" y="987" type="line"/>
    </contour>
  </outline>
</glyph>
<glyph name="Lcaron" format="2">
  <advance width="1030"/>
  <unicode hex="013D"/>
  <outline>
    <contour>
      <point x="951" y="0" type="line"/>
      <point x="217" y="0" type="line"/>
      <point x="217" y="1396" type="line"/>
      <point x="353" y="1396" type="line"/>
      <point x="353" y="122" type="line"/>
      <point x="951" y="122" type="line"/>
    </contour>
    <contour>
      <point x="679" y="1019" type="line"/>
      <point x="583" y="1019" type="line"/>
      <point x="682" y="1396" type="line"/>
      <point x="880" y="1396" type="line"/>
    </contour>
  </outline>
</glyph>
<glyph name="Ldot" format="2">
  <advance width="1019"/>
  <unicode hex="013F"/>
  <outline>
    <contour>
      <point x="951" y="0" type="line"/>
      <point x="217" y="0" type="line"/>
      <point x="217" y="1396" type="line"/>
      <point x="353" y="1396" type="line"/>
      <point x="353" y="122" type="line"/>
      <point x="951" y="122" type="line"/>
    </contour>
    <contour>
      <point x="761" y="581" type="qcurve" smooth="yes"/>
      <point x="737" y="581"/>
      <point x="694" y="599"/>
      <point x="663" y="631"/>
      <point x="645" y="674"/>
      <point x="645" y="698" type="qcurve" smooth="yes"/>
      <point x="645" y="750"/>
      <point x="710" y="816"/>
      <point x="761" y="816" type="qcurve" smooth="yes"/>
      <point x="785" y="816"/>
      <point x="828" y="798"/>
      <point x="860" y="766"/>
      <point x="878" y="723"/>
      <point x="878" y="698" type="qcurve" smooth="yes"/>
      <point x="878" y="674"/>
      <point x="860" y="632"/>
      <point x="828" y="600"/>
      <point x="785" y="581"/>
    </contour>
  </outline>
</glyph>
<glyph name="ldot" format="2">
  <advance width="608"/>
  <unicode hex="0140"/>
  <outline>
    <contour>
      <point x="266" y="-6" type="qcurve"/>
      <point x="232" y="1"/>
      <point x="194" y="32"/>
      <point x="175" y="83"/>
      <point x="171" y="154"/>
      <point x="171" y="201" type="qcurve" smooth="yes"/>
      <point x="171" y="419"/>
      <point x="170" y="1016"/>
      <point x="170" y="1396" type="qcurve"/>
      <point x="298" y="1396" type="line"/>
      <point x="298" y="248" type="line"/>
      <point x="300" y="237"/>
      <point x="301" y="185"/>
      <point x="307" y="131"/>
      <point x="325" y="90"/>
      <point x="345" y="90" type="qcurve" smooth="yes"/>
      <point x="362" y="90"/>
      <point x="413" y="93"/>
      <point x="442" y="101" type="qcurve"/>
      <point x="442" y="-1" type="line"/>
      <point x="414" y="-10"/>
      <point x="353" y="-20"/>
      <point x="320" y="-20" type="qcurve" smooth="yes"/>
      <point x="318" y="-20"/>
      <point x="283" y="-14"/>
    </contour>
    <contour>
      <point x="491" y="571" type="qcurve" smooth="yes"/>
      <point x="467" y="571"/>
      <point x="424" y="590"/>
      <point x="392" y="622"/>
      <point x="374" y="665"/>
      <point x="374" y="689" type="qcurve" smooth="yes"/>
      <point x="374" y="740"/>
      <point x="439" y="806"/>
      <point x="491" y="806" type="qcurve" smooth="yes"/>
      <point x="515" y="806"/>
      <point x="558" y="788"/>
      <point x="590" y="756"/>
      <point x="608" y="714"/>
      <point x="608" y="689" type="qcurve" smooth="yes"/>
      <point x="608" y="665"/>
      <point x="589" y="623"/>
      <point x="558" y="590"/>
      <point x="515" y="571"/>
    </contour>
  </outline>
</glyph>
<glyph name="lslash" format="2">
  <advance width="501"/>
  <unicode hex="0142"/>
  <outline>
    <contour>
      <point x="170" y="501" type="qcurve"/>
      <point x="-4" y="305" type="line"/>
      <point x="-4" y="430" type="line"/>
      <point x="170" y="626" type="line"/>
      <point x="170" y="1396" type="line"/>
      <point x="298" y="1396" type="line"/>
      <point x="298" y="770" type="line"/>
      <point x="491" y="987" type="line"/>
      <point x="491" y="862" type="line"/>
      <point x="298" y="645" type="line"/>
      <point x="298" y="162" type="line"/>
      <point x="301" y="130" type="line"/>
      <point x="303" y="116"/>
      <point x="324" y="90"/>
      <point x="345" y="90" type="qcurve" smooth="yes"/>
      <point x="362" y="90"/>
      <point x="413" y="93"/>
      <point x="442" y="101" type="qcurve"/>
      <point x="442" y="-1" type="line"/>
      <point x="414" y="-10"/>
      <point x="353" y="-20"/>
      <point x="320" y="-20" type="qcurve" smooth="yes"/>
      <point x="205" y="-20"/>
      <point x="184" y="65" type="qcurve"/>
      <point x="176" y="80"/>
      <point x="170" y="160"/>
      <point x="169" y="247"/>
      <point x="169" y="280" type="qcurve" smooth="yes"/>
      <point x="169" y="312"/>
      <point x="170" y="421"/>
    </contour>
  </outline>
</glyph>
<glyph name="Eng" format="2">
  <advance width="1399"/>
  <unicode hex="014A"/>
  <outline>
    <contour>
      <point x="911" y="-365" type="qcurve" smooth="yes"/>
      <point x="842" y="-365" type="line"/>
      <point x="842" y="-257" type="line"/>
      <point x="909" y="-257"/>
      <point x="998" y="-215"/>
      <point x="1012" y="-177" type="qcurve"/>
      <point x="1013" y="-169"/>
      <point x="1015" y="-155"/>
      <point x="1017" y="-149" type="qcurve"/>
      <point x="1024" y="-136"/>
      <point x="1024" y="-123" type="qcurve"/>
      <point x="1023" y="-99"/>
      <point x="1012" y="-75" type="qcurve"/>
      <point x="353" y="1267" type="line"/>
      <point x="353" y="0" type="line"/>
      <point x="217" y="0" type="line"/>
      <point x="217" y="1396" type="line"/>
      <point x="429" y="1396" type="line"/>
      <point x="1045" y="129" type="line"/>
      <point x="1045" y="1396" type="line"/>
      <point x="1180" y="1396" type="line"/>
      <point x="1180" y="-2" type="line" smooth="yes"/>
      <point x="1180" y="-79"/>
      <point x="1156" y="-212"/>
      <point x="1095" y="-310"/>
      <point x="991" y="-365"/>
    </contour>
  </outline>
</glyph>
<glyph name="oe" format="2">
  <advance width="1758"/>
  <unicode hex="0153"/>
  <outline>
    <contour>
      <point x="929" y="767" type="qcurve"/>
      <point x="977" y="877"/>
      <point x="1157" y="999"/>
      <point x="1282" y="999" type="qcurve" smooth="yes"/>
      <point x="1379" y="999"/>
      <point x="1524" y="943"/>
      <point x="1624" y="839"/>
      <point x="1680" y="692"/>
      <point x="1686" y="601" type="qcurve" smooth="yes"/>
      <point x="1688" y="570"/>
      <point x="1690" y="514"/>
      <point x="1690" y="489" type="qcurve" smooth="yes"/>
      <point x="1690" y="476"/>
      <point x="1689" y="464"/>
      <point x="1688" y="458"/>
      <point x="1687" y="455"/>
      <point x="1687" y="451" type="qcurve"/>
      <point x="998" y="451" type="line"/>
      <point x="998" y="374"/>
      <point x="1037" y="245"/>
      <point x="1113" y="150"/>
      <point x="1224" y="97"/>
      <point x="1297" y="97" type="qcurve" smooth="yes"/>
      <point x="1346" y="97"/>
      <point x="1427" y="108"/>
      <point x="1495" y="133"/>
      <point x="1554" y="173"/>
      <point x="1581" y="201" type="qcurve"/>
      <point x="1665" y="135" type="line"/>
      <point x="1625" y="94"/>
      <point x="1544" y="38"/>
      <point x="1456" y="4"/>
      <point x="1357" y="-12"/>
      <point x="1299" y="-12" type="qcurve" smooth="yes"/>
      <point x="1171" y="-12"/>
      <point x="985" y="101"/>
      <point x="930" y="213" type="qcurve"/>
      <point x="927" y="208"/>
      <point x="921" y="199"/>
      <point x="918" y="195" type="qcurve"/>
      <point x="861" y="95"/>
      <point x="672" y="-20"/>
      <point x="547" y="-20" type="qcurve" smooth="yes"/>
      <point x="545" y="-20"/>
      <point x="542" y="-20" type="qcurve" smooth="yes"/>
      <point x="444" y="-20"/>
      <point x="277" y="59"/>
      <point x="155" y="198"/>
      <point x="88" y="384"/>
      <point x="88" y="489" type="qcurve" smooth="yes"/>
      <point x="88" y="588"/>
      <point x="152" y="772"/>
      <point x="271" y="914"/>
      <point x="441" y="999"/>
      <point x="547" y="999" type="qcurve" smooth="yes"/>
      <point x="671" y="999"/>
      <point x="861" y="884"/>
      <point x="918" y="784" type="qcurve"/>
      <point x="921" y="780"/>
      <point x="926" y="772"/>
    </contour>
    <contour>
      <point x="1570" y="560" type="line"/>
      <point x="1570" y="567" type="line" smooth="yes"/>
      <point x="1570" y="639"/>
      <point x="1533" y="757"/>
      <point x="1461" y="840"/>
      <point x="1353" y="886"/>
      <point x="1282" y="886" type="qcurve" smooth="yes"/>
      <point x="1216" y="886"/>
      <point x="1112" y="837"/>
      <point x="1040" y="750"/>
      <point x="1001" y="630"/>
      <point x="998" y="560" type="qcurve"/>
    </contour>
    <contour>
      <point x="868" y="489" type="qcurve" smooth="yes"/>
      <point x="868" y="574"/>
      <point x="826" y="717"/>
      <point x="744" y="822"/>
      <point x="625" y="881"/>
      <point x="547" y="881" type="qcurve" smooth="yes"/>
      <point x="473" y="881"/>
      <point x="355" y="823"/>
      <point x="271" y="719"/>
      <point x="226" y="575"/>
      <point x="226" y="489" type="qcurve" smooth="yes"/>
      <point x="226" y="404"/>
      <point x="271" y="261"/>
      <point x="354" y="156"/>
      <point x="471" y="99"/>
      <point x="542" y="99" type="qcurve" smooth="yes"/>
      <point x="545" y="99"/>
      <point x="547" y="99" type="qcurve" smooth="yes"/>
      <point x="623" y="99"/>
      <point x="743" y="156"/>
      <point x="825" y="260"/>
      <point x="868" y="403"/>
    </contour>
  </outline>
</glyph>
<glyph name="Tbar" format="2">
  <advance width="1232"/>
  <unicode hex="0166"/>
  <outline>
    <contour>
      <point x="685" y="0" type="line"/>
      <point x="547" y="0" type="line"/>
      <point x="547" y="646" type="line"/>
      <point x="308" y="646" type="line"/>
      <point x="308" y="748" type="line"/>
      <point x="547" y="748" type="line"/>
      <point x="547" y="1289" type="line"/>
      <point x="68" y="1289" type="line"/>
      <point x="68" y="1396" type="line"/>
      <point x="1164" y="1396" type="line"/>
      <point x="1164" y="1289" type="line"/>
      <point x="685" y="1289" type="line"/>
      <point x="685" y="748" type="line"/>
      <point x="934" y="748" type="line"/>
      <point x="934" y="646" type="line"/>
      <point x="685" y="646" type="line"/>
    </contour>
  </outline>
</glyph>
<glyph name="tbar" format="2">
  <advance width="650"/>
  <unicode hex="0167"/>
  <outline>
    <contour>
      <point x="443" y="-20" type="qcurve" smooth="yes"/>
      <point x="317" y="-20"/>
      <point x="203" y="112"/>
      <point x="203" y="258" type="qcurve" smooth="yes"/>
      <point x="203" y="440" type="line"/>
      <point x="-5" y="440" type="line"/>
      <point x="-5" y="543" type="line"/>
      <point x="203" y="543" type="line"/>
      <point x="203" y="885" type="line"/>
      <point x="49" y="885" type="line"/>
      <point x="49" y="986" type="line"/>
      <point x="204" y="986" type="line"/>
      <point x="204" y="1205" type="line"/>
      <point x="332" y="1334" type="line"/>
      <point x="332" y="986" type="line"/>
      <point x="584" y="986" type="line"/>
      <point x="584" y="885" type="line"/>
      <point x="332" y="885" type="line"/>
      <point x="332" y="543" type="line"/>
      <point x="621" y="543" type="line"/>
      <point x="621" y="440" type="line"/>
      <point x="332" y="440" type="line"/>
      <point x="332" y="248" type="line" smooth="yes"/>
      <point x="332" y="165"/>
      <point x="404" y="81"/>
      <point x="463" y="81" type="qcurve" smooth="yes"/>
      <point x="505" y="81"/>
      <point x="552" y="102" type="qcurve"/>
      <point x="552" y="-3" type="line"/>
      <point x="530" y="-12"/>
      <point x="475" y="-20"/>
    </contour>
  </outline>
</glyph>
<glyph name="longs" format="2">
  <advance width="669"/>
  <unicode hex="017F"/>
  <outline>
    <contour>
      <point x="339" y="0" type="line"/>
      <point x="216" y="0" type="line"/>
      <point x="216" y="885" type="line"/>
      <point x="35" y="885" type="line"/>
      <point x="35" y="984" type="line"/>
      <point x="216" y="984" type="line"/>
      <point x="216" y="1161" type="line" smooth="yes"/>
      <point x="216" y="1222"/>
      <point x="254" y="1317"/>
      <point x="323" y="1383"/>
      <point x="416" y="1417"/>
      <point x="472" y="1417" type="qcurve" smooth="yes"/>
      <point x="552" y="1417"/>
      <point x="629" y="1380" type="qcurve"/>
      <point x="603" y="1282" type="line"/>
      <point x="537" y="1313"/>
      <point x="481" y="1313" type="qcurve" smooth="yes"/>
      <point x="418" y="1313"/>
      <point x="339" y="1237"/>
      <point x="339" y="1156" type="qcurve" smooth="yes"/>
    </contour>
  </outline>
</glyph>
<glyph name="florin" format="2">
  <advance width="1040"/>
  <unicode hex="0192"/>
  <outline>
    <contour>
      <point x="125" y="-453" type="qcurve"/>
      <point x="125" y="-336" type="line"/>
      <point x="294" y="-336"/>
      <point x="459" y="-182"/>
      <point x="459" y="-17" type="qcurve" smooth="yes"/>
      <point x="459" y="873" type="line"/>
      <point x="283" y="873" type="line"/>
      <point x="283" y="986" type="line"/>
      <point x="459" y="986" type="line"/>
      <point x="459" y="1154" type="line" smooth="yes"/>
      <point x="459" y="1214"/>
      <point x="499" y="1316"/>
      <point x="568" y="1391"/>
      <point x="661" y="1433"/>
      <point x="715" y="1433" type="qcurve" smooth="yes"/>
      <point x="760" y="1433"/>
      <point x="856" y="1400"/>
      <point x="898" y="1365" type="qcurve"/>
      <point x="823" y="1276" type="line"/>
      <point x="803" y="1293"/>
      <point x="744" y="1316"/>
      <point x="716" y="1316" type="qcurve" smooth="yes"/>
      <point x="656" y="1316"/>
      <point x="576" y="1232"/>
      <point x="576" y="1154" type="qcurve" smooth="yes"/>
      <point x="576" y="986" type="line"/>
      <point x="878" y="986" type="line"/>
      <point x="878" y="873" type="line"/>
      <point x="576" y="873" type="line"/>
      <point x="576" y="-14" type="line" smooth="yes"/>
      <point x="576" y="-120"/>
      <point x="512" y="-283"/>
      <point x="394" y="-395"/>
      <point x="227" y="-453"/>
    </contour>
  </outline>
</glyph>
<glyph name="clickretroflex" format="2">
  <advance width="650"/>
  <unicode hex="01C3"/>
  <outline>
    <contour>
      <point x="372" y="366" type="line"/>
      <point x="278" y="366" type="line"/>
      <point x="250" y="1418" type="line"/>
      <point x="401" y="1418" type="line"/>
    </contour>
    <contour>
      <point x="412" y="0" type="line"/>
      <point x="238" y="0" type="line"/>
      <point x="238" y="173" type="line"/>
      <point x="412" y="173" type="line"/>
    </contour>
  </outline>
</glyph>
<glyph name="eturned" format="2">
  <advance width="1013"/>
  <unicode hex="01DD"/>
  <outline>
    <contour>
      <point x="499" y="-12" type="qcurve" smooth="yes"/>
      <point x="392" y="-12"/>
      <point x="239" y="61"/>
      <point x="140" y="197"/>
      <point x="93" y="391"/>
      <point x="93" y="513" type="qcurve" smooth="yes"/>
      <point x="93" y="516"/>
      <point x="93" y="518" type="qcurve"/>
      <point x="95" y="530" type="line"/>
      <point x="95" y="533"/>
      <point x="95" y="535" type="qcurve"/>
      <point x="786" y="535" type="line"/>
      <point x="785" y="618"/>
      <point x="741" y="750"/>
      <point x="662" y="842"/>
      <point x="552" y="891"/>
      <point x="485" y="891" type="qcurve" smooth="yes"/>
      <point x="391" y="891"/>
      <point x="254" y="842"/>
      <point x="198" y="784" type="qcurve"/>
      <point x="114" y="849" type="line"/>
      <point x="151" y="888"/>
      <point x="230" y="945"/>
      <point x="320" y="982"/>
      <point x="422" y="999"/>
      <point x="481" y="999" type="qcurve" smooth="yes"/>
      <point x="484" y="999"/>
      <point x="486" y="999" type="qcurve" smooth="yes"/>
      <point x="586" y="999"/>
      <point x="747" y="924"/>
      <point x="860" y="790"/>
      <point x="919" y="606"/>
      <point x="919" y="499" type="qcurve" smooth="yes"/>
      <point x="919" y="397"/>
      <point x="867" y="212"/>
      <point x="762" y="71"/>
      <point x="604" y="-12"/>
    </contour>
    <contour>
      <point x="499" y="101" type="qcurve" smooth="yes"/>
      <point x="566" y="101"/>
      <point x="672" y="149"/>
      <point x="746" y="236"/>
      <point x="785" y="355"/>
      <point x="786" y="427" type="qcurve"/>
      <point x="210" y="427" type="line"/>
      <point x="210" y="356"/>
      <point x="246" y="236"/>
      <point x="318" y="149"/>
      <point x="426" y="101"/>
    </contour>
  </outline>
</glyph>
<glyph name="dotlessj" format="2">
  <advance width="484"/>
  <unicode hex="0237"/>
  <outline>
    <contour>
      <point x="62" y="-434" type="qcurve" smooth="yes"/>
      <point x="46" y="-434"/>
      <point x="8" y="-429"/>
      <point x="-31" y="-420"/>
      <point x="-68" y="-410"/>
      <point x="-82" y="-404" type="qcurve"/>
      <point x="-55" y="-295" type="line"/>
      <point x="-45" y="-298"/>
      <point x="-16" y="-304"/>
      <point x="16" y="-308"/>
      <point x="48" y="-311"/>
      <point x="61" y="-311" type="qcurve" smooth="yes"/>
      <point x="95" y="-311"/>
      <point x="140" y="-285"/>
      <point x="165" y="-240"/>
      <point x="175" y="-179"/>
      <point x="175" y="-144" type="qcurve" smooth="yes"/>
      <point x="175" y="986" type="line"/>
      <point x="309" y="986" type="line"/>
      <point x="309" y="-164" type="line" smooth="yes"/>
      <point x="309" y="-222"/>
      <point x="280" y="-321"/>
      <point x="220" y="-393"/>
      <point x="127" y="-434"/>
    </contour>
  </outline>
</glyph>
<glyph name="aturned" format="2">
  <advance width="1007"/>
  <unicode hex="0250"/>
  <outline>
    <contour>
      <point x="547" y="1003" type="qcurve" smooth="yes"/>
      <point x="615" y="1003"/>
      <point x="729" y="965"/>
      <point x="812" y="891"/>
      <point x="859" y="785"/>
      <point x="859" y="716" type="qcurve" smooth="yes"/>
      <point x="859" y="567"/>
      <point x="631" y="426"/>
      <point x="416" y="426" type="qcurve" smooth="yes"/>
      <point x="194" y="426" type="line"/>
      <point x="194" y="348"/>
      <point x="222" y="223"/>
      <point x="283" y="136"/>
      <point x="380" y="89"/>
      <point x="449" y="89" type="qcurve" smooth="yes"/>
      <point x="545" y="89"/>
      <point x="684" y="170"/>
      <point x="731" y="236" type="qcurve"/>
      <point x="822" y="165" type="line"/>
      <point x="688" y="-20"/>
      <point x="458" y="-20" type="qcurve" smooth="yes"/>
      <point x="366" y="-20"/>
      <point x="225" y="37"/>
      <point x="130" y="141"/>
      <point x="81" y="287"/>
      <point x="81" y="376" type="qcurve" smooth="yes"/>
      <point x="81" y="983" type="line"/>
      <point x="189" y="983" type="line"/>
      <point x="189" y="933"/>
      <point x="190" y="864"/>
      <point x="190" y="847" type="qcurve" smooth="yes"/>
      <point x="190" y="812"/>
      <point x="189" y="776" type="qcurve"/>
      <point x="218" y="837"/>
      <point x="295" y="923"/>
      <point x="387" y="978"/>
      <point x="492" y="1003"/>
    </contour>
    <contour>
      <point x="533" y="898" type="qcurve" smooth="yes"/>
      <point x="457" y="898"/>
      <point x="332" y="833"/>
      <point x="243" y="727"/>
      <point x="194" y="592"/>
      <point x="194" y="522" type="qcurve"/>
      <point x="386" y="522" type="line" smooth="yes"/>
      <point x="473" y="522"/>
      <point x="602" y="542"/>
      <point x="687" y="588"/>
      <point x="728" y="663"/>
      <point x="728" y="718" type="qcurve" smooth="yes"/>
      <point x="728" y="810"/>
      <point x="620" y="898"/>
    </contour>
  </outline>
</glyph>
<glyph name="oopen" format="2">
  <advance width="956"/>
  <unicode hex="0254"/>
  <outline>
    <contour>
      <point x="458" y="-20" type="qcurve" smooth="yes"/>
      <point x="328" y="-20"/>
      <point x="138" y="110"/>
      <point x="89" y="233" type="qcurve"/>
      <point x="203" y="283" type="line"/>
      <point x="214" y="243"/>
      <point x="261" y="173"/>
      <point x="328" y="122"/>
      <point x="412" y="92"/>
      <point x="459" y="92" type="qcurve" smooth="yes"/>
      <point x="526" y="92"/>
      <point x="633" y="148"/>
      <point x="707" y="252"/>
      <point x="746" y="399"/>
      <point x="746" y="491" type="qcurve" smooth="yes"/>
      <point x="746" y="576"/>
      <point x="709" y="722"/>
      <point x="637" y="829"/>
      <point x="529" y="890"/>
      <point x="459" y="890" type="qcurve" smooth="yes"/>
      <point x="413" y="890"/>
      <point x="330" y="861"/>
      <point x="263" y="809"/>
      <point x="215" y="739"/>
      <point x="203" y="699" type="qcurve"/>
      <point x="89" y="750" type="line"/>
      <point x="112" y="808"/>
      <point x="183" y="901"/>
      <point x="276" y="967"/>
      <point x="390" y="1003"/>
      <point x="458" y="1003" type="qcurve" smooth="yes"/>
      <point x="565" y="1003"/>
      <point x="723" y="915"/>
      <point x="826" y="771"/>
      <point x="876" y="587"/>
      <point x="876" y="491" type="qcurve" smooth="yes"/>
      <point x="876" y="394"/>
      <point x="826" y="210"/>
      <point x="723" y="67"/>
      <point x="565" y="-20"/>
    </contour>
  </outline>
</glyph>
<glyph name="ereversed" format="2">
  <advance width="1017"/>
  <unicode hex="0258"/>
  <outline>
    <contour>
      <point x="487" y="-12" type="qcurve" smooth="yes"/>
      <point x="428" y="-12"/>
      <point x="328" y="4"/>
      <point x="240" y="39"/>
      <point x="159" y="95"/>
      <point x="119" y="135" type="qcurve"/>
      <point x="204" y="203" type="line"/>
      <point x="230" y="175"/>
      <point x="288" y="135"/>
      <point x="357" y="110"/>
      <point x="440" y="98"/>
      <point x="490" y="98" type="qcurve" smooth="yes"/>
      <point x="560" y="98"/>
      <point x="671" y="148"/>
      <point x="747" y="240"/>
      <point x="788" y="371"/>
      <point x="789" y="451" type="qcurve"/>
      <point x="100" y="451" type="line"/>
      <point x="100" y="454"/>
      <point x="99" y="456" type="qcurve"/>
      <point x="98" y="466" type="line"/>
      <point x="98" y="469"/>
      <point x="97" y="471" type="qcurve"/>
      <point x="96" y="480"/>
      <point x="96" y="496" type="qcurve" smooth="yes"/>
      <point x="96" y="504"/>
      <point x="97" y="541"/>
      <point x="98" y="584" type="qcurve"/>
      <point x="103" y="677"/>
      <point x="157" y="830"/>
      <point x="258" y="939"/>
      <point x="406" y="999"/>
      <point x="505" y="999" type="qcurve" smooth="yes"/>
      <point x="507" y="999"/>
      <point x="510" y="999" type="qcurve" smooth="yes"/>
      <point x="607" y="999"/>
      <point x="761" y="919"/>
      <point x="867" y="780"/>
      <point x="923" y="593"/>
      <point x="923" y="487" type="qcurve" smooth="yes"/>
      <point x="923" y="381"/>
      <point x="867" y="199"/>
      <point x="756" y="65"/>
      <point x="593" y="-12"/>
    </contour>
    <contour>
      <point x="213" y="561" type="qcurve"/>
      <point x="789" y="561" type="line"/>
      <point x="787" y="631"/>
      <point x="747" y="749"/>
      <point x="675" y="836"/>
      <point x="571" y="885"/>
      <point x="505" y="885" type="qcurve" smooth="yes"/>
      <point x="437" y="885"/>
      <point x="329" y="841"/>
      <point x="253" y="757"/>
      <point x="213" y="637"/>
    </contour>
  </outline>
</glyph>
<glyph name="circumflex" format="2">
  <advance width="760"/>
  <unicode hex="02C6"/>
  <outline>
    <contour>
      <point x="700" y="1087" type="line"/>
      <point x="551" y="1087" type="line"/>
      <point x="376" y="1280" type="line"/>
      <point x="202" y="1087" type="line"/>
      <point x="51" y="1087" type="line"/>
      <point x="376" y="1436" type="line"/>
    </contour>
  </outline>
</glyph>
<glyph name="breve" format="2">
  <advance width="825"/>
  <unicode hex="02D8"/>
  <outline>
    <contour>
      <point x="407" y="1132" type="qcurve" smooth="yes"/>
      <point x="347" y="1132"/>
      <point x="239" y="1164"/>
      <point x="156" y="1230"/>
      <point x="107" y="1329"/>
      <point x="107" y="1396" type="qcurve"/>
      <point x="232" y="1396" type="line"/>
      <point x="232" y="1360"/>
      <point x="260" y="1301"/>
      <point x="308" y="1259"/>
      <point x="372" y="1235"/>
      <point x="407" y="1235" type="qcurve" smooth="yes"/>
      <point x="442" y="1235"/>
      <point x="506" y="1257"/>
      <point x="554" y="1299"/>
      <point x="582" y="1358"/>
      <point x="582" y="1396" type="qcurve"/>
      <point x="707" y="1396" type="line"/>
      <point x="707" y="1331"/>
      <point x="661" y="1233"/>
      <point x="580" y="1166"/>
      <point x="471" y="1132"/>
    </contour>
  </outline>
</glyph>
<glyph name="dotaccent" format="2">
  <advance width="488"/>
  <unicode hex="02D9"/>
  <outline>
    <contour>
      <point x="320" y="1215" type="line"/>
      <point x="168" y="1215" type="line"/>
      <point x="168" y="1396" type="line"/>
      <point x="320" y="1396" type="line"/>
    </contour>
  </outline>
</glyph>
<glyph name="ring" format="2">
  <advance width="627"/>
  <unicode hex="02DA"/>
  <outline>
    <contour>
      <point x="309" y="1070" type="qcurve" smooth="yes"/>
      <point x="267" y="1070"/>
      <point x="196" y="1101"/>
      <point x="144" y="1153"/>
      <point x="115" y="1224"/>
      <point x="115" y="1265" type="qcurve" smooth="yes"/>
      <point x="115" y="1304"/>
      <point x="145" y="1375"/>
      <point x="198" y="1429"/>
      <point x="268" y="1460"/>
      <point x="309" y="1460" type="qcurve" smooth="yes"/>
      <point x="350" y="1460"/>
      <point x="421" y="1428"/>
      <point x="474" y="1375"/>
      <point x="504" y="1304"/>
      <point x="504" y="1265" type="qcurve" smooth="yes"/>
      <point x="504" y="1225"/>
      <point x="474" y="1154"/>
      <point x="421" y="1101"/>
      <point x="350" y="1070"/>
    </contour>
    <contour>
      <point x="309" y="1164" type="qcurve" smooth="yes"/>
      <point x="330" y="1164"/>
      <point x="366" y="1179"/>
      <point x="394" y="1206"/>
      <point x="410" y="1243"/>
      <point x="410" y="1265" type="qcurve" smooth="yes"/>
      <point x="410" y="1285"/>
      <point x="395" y="1321"/>
      <point x="368" y="1348"/>
      <point x="331" y="1364"/>
      <point x="309" y="1364" type="qcurve" smooth="yes"/>
      <point x="265" y="1364"/>
      <point x="210" y="1310"/>
      <point x="210" y="1265" type="qcurve" smooth="yes"/>
      <point x="210" y="1217"/>
      <point x="268" y="1164"/>
    </contour>
  </outline>
</glyph>
<glyph name="ogonek" format="2">
  <advance width="588"/>
  <unicode hex="02DB"/>
  <outline>
    <contour>
      <point x="309" y="-447" type="qcurve" smooth="yes"/>
      <point x="271" y="-447"/>
      <point x="200" y="-421"/>
      <point x="144" y="-370"/>
      <point x="110" y="-295"/>
      <point x="110" y="-245" type="qcurve" smooth="yes"/>
      <point x="110" y="-198"/>
      <point x="147" y="-120"/>
      <point x="208" y="-60"/>
      <point x="285" y="-16"/>
      <point x="325" y="-3" type="qcurve"/>
      <point x="436" y="0" type="line"/>
      <point x="405" y="-11"/>
      <point x="326" y="-55"/>
      <point x="257" y="-115"/>
      <point x="209" y="-189"/>
      <point x="209" y="-232" type="qcurve" smooth="yes"/>
      <point x="209" y="-283"/>
      <point x="259" y="-344"/>
      <point x="299" y="-344" type="qcurve" smooth="yes"/>
      <point x="382" y="-344"/>
      <point x="424" y="-280" type="qcurve"/>
      <point x="508" y="-339" type="line"/>
      <point x="471" y="-393"/>
      <point x="375" y="-447"/>
    </contour>
  </outline>
</glyph>
<glyph name="tilde" format="2">
  <advance width="846"/>
  <unicode hex="02DC"/>
  <outline>
    <contour>
      <point x="580" y="1143" type="qcurve" smooth="yes"/>
      <point x="556" y="1143"/>
      <point x="518" y="1153"/>
      <point x="482" y="1175"/>
      <point x="446" y="1210"/>
      <point x="425" y="1235" type="qcurve"/>
      <point x="395" y="1267"/>
      <point x="353" y="1301"/>
      <point x="329" y="1301" type="qcurve" smooth="yes"/>
      <point x="292" y="1301"/>
      <point x="258" y="1224"/>
      <point x="258" y="1165" type="qcurve"/>
      <point x="170" y="1165" type="line"/>
      <point x="170" y="1216"/>
      <point x="190" y="1303"/>
      <point x="230" y="1367"/>
      <point x="290" y="1403"/>
      <point x="329" y="1403" type="qcurve"/>
      <point x="365" y="1401"/>
      <point x="415" y="1378"/>
      <point x="459" y="1341"/>
      <point x="502" y="1292"/>
      <point x="531" y="1264" type="qcurve" smooth="yes"/>
      <point x="542" y="1253"/>
      <point x="556" y="1253" type="qcurve"/>
      <point x="564" y="1251"/>
      <point x="571" y="1251" type="qcurve" smooth="yes"/>
      <point x="599" y="1251"/>
      <point x="616" y="1287" type="qcurve"/>
      <point x="656" y="1301"/>
      <point x="656" y="1396" type="qcurve"/>
      <point x="751" y="1396" type="line"/>
      <point x="751" y="1269"/>
      <point x="664" y="1143"/>
    </contour>
  </outline>
</glyph>
<glyph name="hungarumlaut" format="2">
  <advance width="851"/>
  <unicode hex="02DD"/>
  <outline>
    <contour>
      <point x="195" y="1115" type="line"/>
      <point x="75" y="1115" type="line"/>
      <point x="286" y="1396" type="line"/>
      <point x="462" y="1396" type="line"/>
    </contour>
    <contour>
      <point x="518" y="1115" type="line"/>
      <point x="398" y="1115" type="line"/>
      <point x="609" y="1396" type="line"/>
      <point x="783" y="1396" type="line"/>
    </contour>
  </outline>
</glyph>
<glyph name="uni02F6" format="2">
  <advance width="1061"/>
  <unicode hex="02F6"/>
  <outline>
    <contour>
      <point x="290" y="636" type="line"/>
      <point x="154" y="636" type="line"/>
      <point x="364" y="911" type="line"/>
      <point x="543" y="911" type="line"/>
    </contour>
    <contour>
      <point x="662" y="636" type="line"/>
      <point x="526" y="636" type="line"/>
      <point x="736" y="911" type="line"/>
      <point x="911" y="911" type="line"/>
    </contour>
  </outline>
</glyph>
<glyph name="circumflexcmb" format="2">
  <unicode hex="0302"/>
  <anchor x="-375" y="999" name="_t.ringcmb_1"/>
  <outline>
    <contour>
      <point x="-56" y="1087" type="line"/>
      <point x="-206" y="1087" type="line"/>
      <point x="-381" y="1280" type="line"/>
      <point x="-554" y="1087" type="line"/>
      <point x="-706" y="1087" type="line"/>
      <point x="-381" y="1436" type="line"/>
    </contour>
  </outline>
</glyph>
<glyph name="tildecmb" format="2">
  <unicode hex="0303"/>
  <anchor x="-428" y="1002" name="_t.ringcmb_1"/>
  <outline>
    <contour>
      <point x="-304" y="1143" type="qcurve" smooth="yes"/>
      <point x="-328" y="1143"/>
      <point x="-365" y="1153"/>
      <point x="-401" y="1174"/>
      <point x="-438" y="1209"/>
      <point x="-460" y="1235" type="qcurve" smooth="yes"/>
      <point x="-489" y="1267"/>
      <point x="-531" y="1301"/>
      <point x="-556" y="1301" type="qcurve" smooth="yes"/>
      <point x="-592" y="1301"/>
      <point x="-627" y="1225"/>
      <point x="-627" y="1165" type="qcurve"/>
      <point x="-714" y="1165" type="line"/>
      <point x="-714" y="1216"/>
      <point x="-694" y="1303"/>
      <point x="-654" y="1367"/>
      <point x="-595" y="1403"/>
      <point x="-555" y="1403" type="qcurve"/>
      <point x="-519" y="1401"/>
      <point x="-468" y="1378"/>
      <point x="-425" y="1340"/>
      <point x="-382" y="1292"/>
      <point x="-354" y="1264" type="qcurve" smooth="yes"/>
      <point x="-343" y="1253"/>
      <point x="-329" y="1253" type="qcurve"/>
      <point x="-321" y="1251"/>
      <point x="-314" y="1251" type="qcurve" smooth="yes"/>
      <point x="-285" y="1251"/>
      <point x="-268" y="1287" type="qcurve"/>
      <point x="-228" y="1301"/>
      <point x="-228" y="1396" type="qcurve"/>
      <point x="-134" y="1396" type="line"/>
      <point x="-134" y="1269"/>
      <point x="-221" y="1143"/>
    </contour>
  </outline>
</glyph>
<glyph name="macroncmb" format="2">
  <unicode hex="0304"/>
  <anchor x="-432" y="999" name="_t.ringcmb_1"/>
  <outline>
    <contour>
      <point x="-165" y="1179" type="line"/>
      <point x="-694" y="1179" type="line"/>
      <point x="-694" y="1296" type="line"/>
      <point x="-165" y="1296" type="line"/>
    </contour>
  </outline>
</glyph>
<glyph name="ringcmb" format="2">
  <unicode hex="030A"/>
  <anchor x="-316" y="999" name="_t.ringcmb_1"/>
  <outline>
    <contour>
      <point x="-315" y="1070" type="qcurve" smooth="yes"/>
      <point x="-357" y="1070"/>
      <point x="-428" y="1101"/>
      <point x="-480" y="1153"/>
      <point x="-509" y="1224"/>
      <point x="-509" y="1265" type="qcurve" smooth="yes"/>
      <point x="-509" y="1304"/>
      <point x="-478" y="1375"/>
      <point x="-426" y="1429"/>
      <point x="-355" y="1460"/>
      <point x="-315" y="1460" type="qcurve" smooth="yes"/>
      <point x="-274" y="1460"/>
      <point x="-203" y="1428"/>
      <point x="-150" y="1374"/>
      <point x="-120" y="1304"/>
      <point x="-120" y="1265" type="qcurve" smooth="yes"/>
      <point x="-120" y="1225"/>
      <point x="-150" y="1154"/>
      <point x="-202" y="1101"/>
      <point x="-273" y="1070"/>
    </contour>
    <contour>
      <point x="-315" y="1164" type="qcurve" smooth="yes"/>
      <point x="-294" y="1164"/>
      <point x="-257" y="1179"/>
      <point x="-230" y="1206"/>
      <point x="-214" y="1243"/>
      <point x="-214" y="1265" type="qcurve" smooth="yes"/>
      <point x="-214" y="1285"/>
      <point x="-229" y="1321"/>
      <point x="-256" y="1348"/>
      <point x="-293" y="1364"/>
      <point x="-315" y="1364" type="qcurve" smooth="yes"/>
      <point x="-358" y="1364"/>
      <point x="-413" y="1309"/>
      <point x="-413" y="1265" type="qcurve" smooth="yes"/>
      <point x="-413" y="1218"/>
      <point x="-356" y="1164"/>
    </contour>
  </outline>
</glyph>
<glyph name="dblgravecmb" format="2">
  <unicode hex="030F"/>
  <anchor x="-319" y="999" name="_t.ringcmb_1"/>
  <outline>
    <contour>
      <point x="-213" y="1115" type="line"/>
      <point x="-472" y="1396" type="line"/>
      <point x="-285" y="1396" type="line"/>
      <point x="-73" y="1115" type="line"/>
    </contour>
    <contour>
      <point x="-536" y="1115" type="line"/>
      <point x="-792" y="1396" type="line"/>
      <point x="-609" y="1396" type="line"/>
      <point x="-398" y="1115" type="line"/>
    </contour>
  </outline>
</glyph>
<glyph name="commaturnedabovecmb" format="2">
  <unicode hex="0312"/>
  <anchor x="-361" y="999" name="_t.ringcmb_1"/>
  <outline>
    <contour>
      <point x="-233" y="1113" type="line"/>
      <point x="-431" y="1113" type="line"/>
      <point x="-211" y="1403" type="line"/>
      <point x="-115" y="1403" type="line"/>
    </contour>
  </outline>
</glyph>
<glyph name="horncmb" format="2">
  <unicode hex="031B"/>
  <anchor x="-233" y="999" name="_m.horncmb_3"/>
  <outline>
    <contour>
      <point x="-295" y="989" type="line"/>
      <point x="-391" y="989" type="line"/>
      <point x="-272" y="1396" type="line"/>
      <point x="-75" y="1396" type="line"/>
    </contour>
  </outline>
</glyph>
<glyph name="cedillacmb" format="2">
  <unicode hex="0327"/>
  <anchor x="-284" y="0" name="_b.uni0326"/>
  <anchor x="-284" y="0" name="_b.uni0326_2"/>
  <anchor x="-303" y="-500" name="b.uni0326_2"/>
  <outline>
    <contour>
      <point x="-311" y="-496" type="qcurve" smooth="yes"/>
      <point x="-341" y="-496"/>
      <point x="-396" y="-477"/>
      <point x="-441" y="-444"/>
      <point x="-476" y="-401"/>
      <point x="-486" y="-376" type="qcurve"/>
      <point x="-398" y="-329" type="line"/>
      <point x="-395" y="-346"/>
      <point x="-376" y="-373"/>
      <point x="-350" y="-393"/>
      <point x="-320" y="-404"/>
      <point x="-305" y="-404" type="qcurve" smooth="yes"/>
      <point x="-257" y="-404"/>
      <point x="-202" y="-346"/>
      <point x="-202" y="-304" type="qcurve" smooth="yes"/>
      <point x="-202" y="-278"/>
      <point x="-227" y="-231"/>
      <point x="-275" y="-196"/>
      <point x="-346" y="-176"/>
      <point x="-392" y="-176" type="qcurve" smooth="yes"/>
      <point x="-425" y="-176" type="line"/>
      <point x="-334" y="-3" type="line"/>
      <point x="-224" y="-3" type="line"/>
      <point x="-289" y="-122" type="line"/>
      <point x="-270" y="-124" type="line"/>
      <point x="-230" y="-127"/>
      <point x="-168" y="-156"/>
      <point x="-127" y="-203"/>
      <point x="-106" y="-263"/>
      <point x="-106" y="-296" type="qcurve" smooth="yes"/>
      <point x="-106" y="-334"/>
      <point x="-135" y="-406"/>
      <point x="-188" y="-462"/>
      <point x="-264" y="-496"/>
    </contour>
  </outline>
</glyph>
<glyph name="ogonekcmb" format="2">
  <unicode hex="0328"/>
  <anchor x="-185" y="0" name="_b.ogonekcmb_2"/>
  <outline>
    <contour>
      <point x="-279" y="-447" type="qcurve" smooth="yes"/>
      <point x="-317" y="-447"/>
      <point x="-389" y="-420"/>
      <point x="-445" y="-369"/>
      <point x="-478" y="-294"/>
      <point x="-478" y="-245" type="qcurve" smooth="yes"/>
      <point x="-478" y="-197"/>
      <point x="-441" y="-120"/>
      <point x="-380" y="-60"/>
      <point x="-303" y="-17"/>
      <point x="-263" y="-3" type="qcurve"/>
      <point x="-152" y="0" type="line"/>
      <point x="-183" y="-11"/>
      <point x="-262" y="-54"/>
      <point x="-331" y="-115"/>
      <point x="-379" y="-190"/>
      <point x="-379" y="-232" type="qcurve" smooth="yes"/>
      <point x="-379" y="-285"/>
      <point x="-327" y="-344"/>
      <point x="-289" y="-344" type="qcurve" smooth="yes"/>
      <point x="-206" y="-344"/>
      <point x="-164" y="-280" type="qcurve"/>
      <point x="-80" y="-339" type="line"/>
      <point x="-116" y="-393"/>
      <point x="-213" y="-447"/>
    </contour>
  </outline>
</glyph>
<glyph name="uni040D" format="2">
  <advance width="1414"/>
  <unicode hex="040D"/>
  <outline>
    <contour>
      <point x="705" y="1523" type="line"/>
      <point x="458" y="1805" type="line"/>
      <point x="621" y="1805" type="line"/>
      <point x="830" y="1523" type="line"/>
    </contour>
    <contour>
      <point x="217" y="0" type="line"/>
      <point x="217" y="1396" type="line"/>
      <point x="353" y="1396" type="line"/>
      <point x="353" y="344" type="line" smooth="yes"/>
      <point x="353" y="299"/>
      <point x="350" y="199"/>
      <point x="348" y="142" type="qcurve"/>
      <point x="349" y="142" type="line"/>
      <point x="1003" y="1396" type="line"/>
      <point x="1197" y="1396" type="line"/>
      <point x="1197" y="0" type="line"/>
      <point x="1062" y="0" type="line"/>
      <point x="1062" y="1055" type="line" smooth="yes"/>
      <point x="1062" y="1107"/>
      <point x="1064" y="1206"/>
      <point x="1067" y="1255" type="qcurve"/>
      <point x="1066" y="1255"/>
      <point x="1066" y="1254"/>
      <point x="1065" y="1254" type="qcurve"/>
      <point x="414" y="0" type="line"/>
    </contour>
  </outline>
</glyph>
<glyph name="afii10145" format="2">
  <advance width="1431"/>
  <unicode hex="040F"/>
  <outline>
    <contour>
      <point x="782" y="-304" type="line"/>
      <point x="649" y="-304" type="line"/>
      <point x="649" y="0" type="line"/>
      <point x="217" y="0" type="line"/>
      <point x="217" y="1396" type="line"/>
      <point x="350" y="1396" type="line"/>
      <point x="350" y="113" type="line"/>
      <point x="1081" y="113" type="line"/>
      <point x="1081" y="1396" type="line"/>
      <point x="1214" y="1396" type="line"/>
      <point x="1214" y="0" type="line"/>
      <point x="782" y="0" type="line"/>
    </contour>
  </outline>
</glyph>
<glyph name="afii10018" format="2">
  <advance width="1226"/>
  <unicode hex="0411"/>
  <outline>
    <contour>
      <point x="658" y="0" type="qcurve" smooth="yes"/>
      <point x="217" y="0" type="line"/>
      <point x="217" y="1396" type="line"/>
      <point x="937" y="1396" type="line"/>
      <point x="937" y="1275" type="line"/>
      <point x="350" y="1275" type="line"/>
      <point x="350" y="772" type="line"/>
      <point x="687" y="772" type="line" smooth="yes"/>
      <point x="773" y="772"/>
      <point x="924" y="727"/>
      <point x="1036" y="631"/>
      <point x="1101" y="482"/>
      <point x="1101" y="379" type="qcurve" smooth="yes"/>
      <point x="1101" y="289"/>
      <point x="1037" y="149"/>
      <point x="920" y="51"/>
      <point x="757" y="0"/>
    </contour>
    <contour>
      <point x="662" y="124" type="line" smooth="yes"/>
      <point x="715" y="124"/>
      <point x="823" y="160"/>
      <point x="910" y="227"/>
      <point x="964" y="325"/>
      <point x="964" y="388" type="qcurve" smooth="yes"/>
      <point x="964" y="450"/>
      <point x="915" y="546"/>
      <point x="833" y="612"/>
      <point x="725" y="646"/>
      <point x="667" y="646" type="qcurve" smooth="yes"/>
      <point x="350" y="646" type="line"/>
      <point x="350" y="124" type="line"/>
    </contour>
  </outline>
</glyph>
<glyph name="afii10020" format="2">
  <advance width="1058"/>
  <unicode hex="0413"/>
  <outline>
    <contour>
      <point x="350" y="0" type="line"/>
      <point x="217" y="0" type="line"/>
      <point x="217" y="1396" type="line"/>
      <point x="990" y="1396" type="line"/>
      <point x="990" y="1286" type="line"/>
      <point x="350" y="1286" type="line"/>
    </contour>
  </outline>
</glyph>
<glyph name="afii10024" format="2">
  <advance width="1906"/>
  <unicode hex="0416"/>
  <outline>
    <contour>
      <point x="1824" y="0" type="line"/>
      <point x="1664" y="0" type="line"/>
      <point x="1460" y="575" type="line"/>
      <point x="1450" y="601"/>
      <point x="1414" y="648"/>
      <point x="1365" y="684"/>
      <point x="1303" y="706"/>
      <point x="1268" y="706" type="qcurve" smooth="yes"/>
      <point x="1020" y="706" type="line"/>
      <point x="1020" y="0" type="line"/>
      <point x="886" y="0" type="line"/>
      <point x="886" y="706" type="line"/>
      <point x="638" y="706" type="line" smooth="yes"/>
      <point x="564" y="706"/>
      <point x="469" y="635"/>
      <point x="449" y="575" type="qcurve"/>
      <point x="242" y="0" type="line"/>
      <point x="82" y="0" type="line"/>
      <point x="318" y="646" type="line"/>
      <point x="325" y="667"/>
      <point x="367" y="722"/>
      <point x="432" y="770"/>
      <point x="513" y="801"/>
      <point x="558" y="801" type="qcurve" smooth="yes"/>
      <point x="561" y="801"/>
      <point x="564" y="801" type="qcurve"/>
      <point x="160" y="1396" type="line"/>
      <point x="326" y="1396" type="line"/>
      <point x="715" y="815" type="line"/>
      <point x="886" y="815" type="line"/>
      <point x="886" y="1396" type="line"/>
      <point x="1020" y="1396" type="line"/>
      <point x="1020" y="815" type="line"/>
      <point x="1191" y="815" type="line"/>
      <point x="1579" y="1396" type="line"/>
      <point x="1746" y="1396" type="line"/>
      <point x="1343" y="801" type="line"/>
      <point x="1387" y="801"/>
      <point x="1468" y="771"/>
      <point x="1533" y="725"/>
      <point x="1579" y="670"/>
      <point x="1588" y="646" type="qcurve" smooth="yes"/>
    </contour>
  </outline>
</glyph>
<glyph name="afii10026" format="2">
  <advance width="1397"/>
  <unicode hex="0418"/>
  <outline>
    <contour>
      <point x="217" y="0" type="line"/>
      <point x="217" y="1396" type="line"/>
      <point x="353" y="1396" type="line"/>
      <point x="353" y="131" type="line"/>
      <point x="970" y="1396" type="line"/>
      <point x="1180" y="1396" type="line"/>
      <point x="1180" y="0" type="line"/>
      <point x="1044" y="0" type="line"/>
      <point x="1044" y="1267" type="line"/>
      <point x="431" y="0" type="line"/>
    </contour>
  </outline>
</glyph>
<glyph name="afii10033" format="2">
  <advance width="1431"/>
  <unicode hex="041F"/>
  <outline>
    <contour>
      <point x="1214" y="0" type="line"/>
      <point x="1081" y="0" type="line"/>
      <point x="1081" y="1286" type="line"/>
      <point x="350" y="1286" type="line"/>
      <point x="350" y="0" type="line"/>
      <point x="217" y="0" type="line"/>
      <point x="217" y="1396" type="line"/>
      <point x="1214" y="1396" type="line"/>
    </contour>
  </outline>
</glyph>
<glyph name="afii10037" format="2">
  <advance width="1105"/>
  <unicode hex="0423"/>
  <outline>
    <contour>
      <point x="415" y="0" type="line"/>
      <point x="269" y="0" type="line"/>
      <point x="465" y="451" type="line"/>
      <point x="74" y="1396" type="line"/>
      <point x="223" y="1396" type="line"/>
      <point x="535" y="591" type="line"/>
      <point x="876" y="1396" type="line"/>
      <point x="1030" y="1396" type="line"/>
    </contour>
  </outline>
</glyph>
<glyph name="afii10038" format="2">
  <advance width="1656"/>
  <unicode hex="0424"/>
  <outline>
    <contour>
      <point x="895" y="0" type="line"/>
      <point x="760" y="0" type="line"/>
      <point x="760" y="117" type="line"/>
      <point x="442" y="117"/>
      <point x="131" y="400"/>
      <point x="131" y="697" type="qcurve" smooth="yes"/>
      <point x="131" y="843"/>
      <point x="207" y="1067"/>
      <point x="363" y="1219"/>
      <point x="599" y="1297"/>
      <point x="760" y="1297" type="qcurve"/>
      <point x="760" y="1396" type="line"/>
      <point x="895" y="1396" type="line"/>
      <point x="895" y="1297" type="line"/>
      <point x="1214" y="1297"/>
      <point x="1524" y="993"/>
      <point x="1524" y="698" type="qcurve" smooth="yes"/>
      <point x="1524" y="401"/>
      <point x="1212" y="117"/>
      <point x="895" y="117" type="qcurve"/>
    </contour>
    <contour>
      <point x="760" y="242" type="qcurve"/>
      <point x="760" y="1172" type="line"/>
      <point x="503" y="1172"/>
      <point x="259" y="936"/>
      <point x="259" y="698" type="qcurve" smooth="yes"/>
      <point x="259" y="576"/>
      <point x="320" y="403"/>
      <point x="445" y="293"/>
      <point x="633" y="242"/>
    </contour>
    <contour>
      <point x="895" y="242" type="line"/>
      <point x="1021" y="242"/>
      <point x="1209" y="294"/>
      <point x="1334" y="405"/>
      <point x="1396" y="578"/>
      <point x="1396" y="698" type="qcurve" smooth="yes"/>
      <point x="1396" y="941"/>
      <point x="1143" y="1172"/>
      <point x="895" y="1172" type="qcurve"/>
    </contour>
  </outline>
</glyph>
<glyph name="afii10040" format="2">
  <advance width="1454"/>
  <unicode hex="0426"/>
  <outline>
    <contour>
      <point x="1355" y="-241" type="line"/>
      <point x="1224" y="-241" type="line"/>
      <point x="1224" y="0" type="line"/>
      <point x="217" y="0" type="line"/>
      <point x="217" y="1396" type="line"/>
      <point x="350" y="1396" type="line"/>
      <point x="350" y="113" type="line"/>
      <point x="1081" y="113" type="line"/>
      <point x="1081" y="1396" type="line"/>
      <point x="1214" y="1396" type="line"/>
      <point x="1214" y="113" type="line"/>
      <point x="1355" y="113" type="line"/>
    </contour>
  </outline>
</glyph>
<glyph name="afii10042" format="2">
  <advance width="1716"/>
  <unicode hex="0428"/>
  <outline>
    <contour>
      <point x="1499" y="0" type="line"/>
      <point x="217" y="0" type="line"/>
      <point x="217" y="1396" type="line"/>
      <point x="350" y="1396" type="line"/>
      <point x="350" y="113" type="line"/>
      <point x="788" y="113" type="line"/>
      <point x="788" y="1396" type="line"/>
      <point x="923" y="1396" type="line"/>
      <point x="923" y="113" type="line"/>
      <point x="1365" y="113" type="line"/>
      <point x="1365" y="1396" type="line"/>
      <point x="1499" y="1396" type="line"/>
    </contour>
  </outline>
</glyph>
<glyph name="afii10043" format="2">
  <advance width="1739"/>
  <unicode hex="0429"/>
  <outline>
    <contour>
      <point x="1640" y="-241" type="line"/>
      <point x="1508" y="-241" type="line"/>
      <point x="1508" y="0" type="line"/>
      <point x="217" y="0" type="line"/>
      <point x="217" y="1396" type="line"/>
      <point x="350" y="1396" type="line"/>
      <point x="350" y="113" type="line"/>
      <point x="788" y="113" type="line"/>
      <point x="788" y="1396" type="line"/>
      <point x="923" y="1396" type="line"/>
      <point x="923" y="113" type="line"/>
      <point x="1365" y="113" type="line"/>
      <point x="1365" y="1396" type="line"/>
      <point x="1499" y="1396" type="line"/>
      <point x="1499" y="113" type="line"/>
      <point x="1640" y="113" type="line"/>
    </contour>
  </outline>
</glyph>
<glyph name="afii10044" format="2">
  <advance width="1348"/>
  <unicode hex="042A"/>
  <outline>
    <contour>
      <point x="814" y="0" type="qcurve" smooth="yes"/>
      <point x="432" y="0" type="line"/>
      <point x="432" y="1293" type="line"/>
      <point x="68" y="1293" type="line"/>
      <point x="68" y="1396" type="line"/>
      <point x="566" y="1396" type="line"/>
      <point x="566" y="755" type="line"/>
      <point x="814" y="755" type="line" smooth="yes"/>
      <point x="913" y="755"/>
      <point x="1074" y="705"/>
      <point x="1188" y="609"/>
      <point x="1250" y="470"/>
      <point x="1250" y="381" type="qcurve" smooth="yes"/>
      <point x="1250" y="290"/>
      <point x="1187" y="148"/>
      <point x="1073" y="51"/>
      <point x="912" y="0"/>
    </contour>
    <contour>
      <point x="814" y="118" type="line" smooth="yes"/>
      <point x="957" y="118"/>
      <point x="1119" y="255"/>
      <point x="1119" y="381" type="qcurve" smooth="yes"/>
      <point x="1119" y="446"/>
      <point x="1076" y="542"/>
      <point x="996" y="606"/>
      <point x="884" y="638"/>
      <point x="814" y="638" type="qcurve" smooth="yes"/>
      <point x="566" y="638" type="line"/>
      <point x="566" y="118" type="line"/>
    </contour>
  </outline>
</glyph>
<glyph name="afii10046" format="2">
  <advance width="1133"/>
  <unicode hex="042C"/>
  <outline>
    <contour>
      <point x="599" y="0" type="qcurve" smooth="yes"/>
      <point x="217" y="0" type="line"/>
      <point x="217" y="1396" type="line"/>
      <point x="352" y="1396" type="line"/>
      <point x="352" y="755" type="line"/>
      <point x="599" y="755" type="line" smooth="yes"/>
      <point x="693" y="755"/>
      <point x="853" y="709"/>
      <point x="970" y="616"/>
      <point x="1036" y="475"/>
      <point x="1036" y="381" type="qcurve" smooth="yes"/>
      <point x="1036" y="289"/>
      <point x="973" y="147"/>
      <point x="858" y="50"/>
      <point x="697" y="0"/>
    </contour>
    <contour>
      <point x="599" y="118" type="line" smooth="yes"/>
      <point x="669" y="118"/>
      <point x="782" y="153"/>
      <point x="862" y="220"/>
      <point x="904" y="318"/>
      <point x="904" y="381" type="qcurve" smooth="yes"/>
      <point x="904" y="447"/>
      <point x="860" y="543"/>
      <point x="780" y="607"/>
      <point x="667" y="638"/>
      <point x="599" y="638" type="qcurve" smooth="yes"/>
      <point x="352" y="638" type="line"/>
      <point x="352" y="118" type="line"/>
    </contour>
  </outline>
</glyph>
<glyph name="afii10047" format="2">
  <advance width="1404"/>
  <unicode hex="042D"/>
  <outline>
    <contour>
      <point x="653" y="-20" type="qcurve" smooth="yes"/>
      <point x="560" y="-20"/>
      <point x="392" y="24"/>
      <point x="250" y="114"/>
      <point x="135" y="252"/>
      <point x="95" y="346" type="qcurve"/>
      <point x="220" y="397" type="line"/>
      <point x="275" y="247"/>
      <point x="492" y="102"/>
      <point x="653" y="102" type="qcurve" smooth="yes"/>
      <point x="770" y="102"/>
      <point x="946" y="184"/>
      <point x="1066" y="332"/>
      <point x="1131" y="537"/>
      <point x="1137" y="660" type="qcurve"/>
      <point x="499" y="660" type="line"/>
      <point x="499" y="760" type="line"/>
      <point x="1135" y="760" type="line"/>
      <point x="1130" y="877"/>
      <point x="1062" y="1074"/>
      <point x="940" y="1216"/>
      <point x="767" y="1296"/>
      <point x="657" y="1296" type="qcurve" smooth="yes"/>
      <point x="578" y="1296"/>
      <point x="439" y="1262"/>
      <point x="326" y="1190"/>
      <point x="242" y="1080"/>
      <point x="220" y="1004" type="qcurve"/>
      <point x="188" y="1016"/>
      <point x="127" y="1041"/>
      <point x="96" y="1055" type="qcurve"/>
      <point x="178" y="1237"/>
      <point x="467" y="1419"/>
      <point x="655" y="1419" type="qcurve" smooth="yes"/>
      <point x="793" y="1419"/>
      <point x="1020" y="1322"/>
      <point x="1181" y="1137"/>
      <point x="1270" y="869"/>
      <point x="1270" y="698" type="qcurve" smooth="yes"/>
      <point x="1270" y="552"/>
      <point x="1196" y="291"/>
      <point x="1043" y="95"/>
      <point x="811" y="-20"/>
    </contour>
  </outline>
</glyph>
<glyph name="afii10066" format="2">
  <advance width="1102"/>
  <unicode hex="0431"/>
  <outline>
    <contour>
      <point x="566" y="-20" type="qcurve" smooth="yes"/>
      <point x="563" y="-20"/>
      <point x="561" y="-20" type="qcurve" smooth="yes"/>
      <point x="466" y="-20"/>
      <point x="310" y="55"/>
      <point x="199" y="186"/>
      <point x="138" y="362"/>
      <point x="138" y="461" type="qcurve" smooth="yes"/>
      <point x="138" y="601"/>
      <point x="137" y="725"/>
      <point x="137" y="744" type="qcurve" smooth="yes"/>
      <point x="137" y="820"/>
      <point x="140" y="874" type="qcurve" smooth="yes"/>
      <point x="147" y="999"/>
      <point x="252" y="1178"/>
      <point x="358" y="1235" type="qcurve" smooth="yes"/>
      <point x="433" y="1276"/>
      <point x="645" y="1365"/>
      <point x="783" y="1416" type="qcurve"/>
      <point x="783" y="1295" type="line"/>
      <point x="700" y="1264"/>
      <point x="590" y="1222"/>
      <point x="511" y="1188"/>
      <point x="452" y="1156"/>
      <point x="421" y="1136" type="qcurve" smooth="yes"/>
      <point x="367" y="1102"/>
      <point x="301" y="1030"/>
      <point x="265" y="944"/>
      <point x="254" y="838"/>
      <point x="254" y="769" type="qcurve"/>
      <point x="280" y="806"/>
      <point x="351" y="871"/>
      <point x="438" y="919"/>
      <point x="538" y="946"/>
      <point x="593" y="946" type="qcurve" smooth="yes"/>
      <point x="595" y="946"/>
      <point x="598" y="946" type="qcurve" smooth="yes"/>
      <point x="691" y="946"/>
      <point x="843" y="870"/>
      <point x="951" y="738"/>
      <point x="1009" y="561"/>
      <point x="1009" y="462" type="qcurve" smooth="yes"/>
      <point x="1009" y="459"/>
      <point x="1009" y="456" type="qcurve" smooth="yes"/>
      <point x="1009" y="358"/>
      <point x="944" y="186"/>
      <point x="825" y="55"/>
      <point x="662" y="-20"/>
    </contour>
    <contour>
      <point x="566" y="82" type="qcurve" smooth="yes"/>
      <point x="644" y="82"/>
      <point x="758" y="140"/>
      <point x="833" y="242"/>
      <point x="869" y="382"/>
      <point x="869" y="463" type="qcurve" smooth="yes"/>
      <point x="869" y="539"/>
      <point x="834" y="673"/>
      <point x="761" y="774"/>
      <point x="646" y="832"/>
      <point x="566" y="832" type="qcurve" smooth="yes"/>
      <point x="564" y="832"/>
      <point x="561" y="832" type="qcurve" smooth="yes"/>
      <point x="461" y="832"/>
      <point x="335" y="743"/>
      <point x="302" y="662" type="qcurve" smooth="yes"/>
      <point x="264" y="571"/>
      <point x="264" y="463" type="qcurve" smooth="yes"/>
      <point x="264" y="381"/>
      <point x="300" y="242"/>
      <point x="375" y="140"/>
      <point x="489" y="82"/>
    </contour>
  </outline>
</glyph>
<glyph name="afii10073" format="2">
  <advance width="896"/>
  <unicode hex="0437"/>
  <outline>
    <contour>
      <point x="394" y="-456" type="qcurve" smooth="yes"/>
      <point x="326" y="-456"/>
      <point x="223" y="-434"/>
      <point x="138" y="-391"/>
      <point x="60" y="-327"/>
      <point x="17" y="-284" type="qcurve"/>
      <point x="38" y="-266"/>
      <point x="85" y="-228"/>
      <point x="107" y="-210" type="qcurve"/>
      <point x="156" y="-280"/>
      <point x="285" y="-347"/>
      <point x="379" y="-347" type="qcurve" smooth="yes"/>
      <point x="452" y="-347"/>
      <point x="561" y="-296"/>
      <point x="635" y="-200"/>
      <point x="672" y="-63"/>
      <point x="672" y="24" type="qcurve" smooth="yes"/>
      <point x="672" y="99"/>
      <point x="630" y="214"/>
      <point x="557" y="292"/>
      <point x="456" y="332"/>
      <point x="397" y="332" type="qcurve" smooth="yes"/>
      <point x="195" y="332" type="line"/>
      <point x="195" y="443" type="line"/>
      <point x="449" y="443" type="line"/>
      <point x="488" y="454"/>
      <point x="551" y="501"/>
      <point x="595" y="562"/>
      <point x="619" y="631"/>
      <point x="619" y="664" type="qcurve" smooth="yes"/>
      <point x="619" y="725"/>
      <point x="591" y="811"/>
      <point x="531" y="866"/>
      <point x="435" y="891"/>
      <point x="367" y="891" type="qcurve" smooth="yes"/>
      <point x="327" y="891"/>
      <point x="254" y="869"/>
      <point x="191" y="829"/>
      <point x="140" y="775"/>
      <point x="123" y="743" type="qcurve"/>
      <point x="33" y="803" type="line"/>
      <point x="56" y="846"/>
      <point x="123" y="919"/>
      <point x="208" y="970"/>
      <point x="309" y="999"/>
      <point x="367" y="999" type="qcurve" smooth="yes"/>
      <point x="454" y="999"/>
      <point x="595" y="959"/>
      <point x="693" y="877"/>
      <point x="746" y="750"/>
      <point x="746" y="662" type="qcurve" smooth="yes"/>
      <point x="746" y="633"/>
      <point x="736" y="599" type="qcurve"/>
      <point x="718" y="528"/>
      <point x="624" y="416"/>
      <point x="542" y="392" type="qcurve"/>
      <point x="621" y="386"/>
      <point x="746" y="287"/>
      <point x="779" y="181" type="qcurve"/>
      <point x="805" y="105"/>
      <point x="805" y="27" type="qcurve" smooth="yes"/>
      <point x="805" y="-84"/>
      <point x="745" y="-262"/>
      <point x="637" y="-388"/>
      <point x="485" y="-456"/>
    </contour>
  </outline>
</glyph>
<glyph name="afii10075" format="2">
  <advance width="1120"/>
  <unicode hex="0439"/>
  <outline>
    <contour>
      <point x="544" y="1132" type="qcurve" smooth="yes"/>
      <point x="489" y="1132"/>
      <point x="383" y="1165"/>
      <point x="299" y="1231"/>
      <point x="248" y="1330"/>
      <point x="248" y="1396" type="qcurve"/>
      <point x="357" y="1396" type="line"/>
      <point x="357" y="1358"/>
      <point x="387" y="1296"/>
      <point x="439" y="1250"/>
      <point x="506" y="1225"/>
      <point x="544" y="1225" type="qcurve" smooth="yes"/>
      <point x="578" y="1225"/>
      <point x="644" y="1249"/>
      <point x="697" y="1294"/>
      <point x="730" y="1357"/>
      <point x="730" y="1396" type="qcurve"/>
      <point x="839" y="1396" type="line"/>
      <point x="839" y="1335"/>
      <point x="792" y="1238"/>
      <point x="711" y="1169"/>
      <point x="604" y="1132"/>
    </contour>
    <contour>
      <point x="507" y="-23" type="qcurve" smooth="yes"/>
      <point x="420" y="-23"/>
      <point x="294" y="39"/>
      <point x="212" y="151"/>
      <point x="173" y="306"/>
      <point x="173" y="398" type="qcurve" smooth="yes"/>
      <point x="173" y="986" type="line"/>
      <point x="298" y="986" type="line"/>
      <point x="298" y="393" type="line" smooth="yes"/>
      <point x="298" y="324"/>
      <point x="322" y="209"/>
      <point x="374" y="127"/>
      <point x="456" y="81"/>
      <point x="514" y="81" type="qcurve" smooth="yes"/>
      <point x="516" y="81"/>
      <point x="518" y="81" type="qcurve" smooth="yes"/>
      <point x="579" y="81"/>
      <point x="689" y="136"/>
      <point x="774" y="230"/>
      <point x="823" y="352"/>
      <point x="823" y="417" type="qcurve" smooth="yes"/>
      <point x="823" y="986" type="line"/>
      <point x="947" y="986" type="line"/>
      <point x="947" y="0" type="line"/>
      <point x="823" y="0" type="line"/>
      <point x="823" y="183" type="line"/>
      <point x="807" y="145"/>
      <point x="748" y="72"/>
      <point x="666" y="13"/>
      <point x="565" y="-23"/>
    </contour>
  </outline>
</glyph>
<glyph name="afii10076" format="2">
  <advance width="938"/>
  <unicode hex="043A"/>
  <outline>
    <contour>
      <point x="882" y="0" type="line"/>
      <point x="735" y="0" type="line"/>
      <point x="706" y="85"/>
      <point x="661" y="229"/>
      <point x="621" y="345"/>
      <point x="582" y="431"/>
      <point x="559" y="457" type="qcurve" smooth="yes"/>
      <point x="518" y="505"/>
      <point x="446" y="505" type="qcurve" smooth="yes"/>
      <point x="300" y="505" type="line"/>
      <point x="300" y="0" type="line"/>
      <point x="173" y="0" type="line"/>
      <point x="173" y="1396" type="line"/>
      <point x="300" y="1396" type="line"/>
      <point x="300" y="616" type="line"/>
      <point x="441" y="616" type="line"/>
      <point x="659" y="986" type="line"/>
      <point x="816" y="986" type="line"/>
      <point x="571" y="584" type="line"/>
      <point x="619" y="584"/>
      <point x="697" y="495"/>
      <point x="723" y="425" type="qcurve" smooth="yes"/>
    </contour>
  </outline>
</glyph>
<glyph name="afii10078" format="2">
  <advance width="1364"/>
  <unicode hex="043C"/>
  <outline>
    <contour>
      <point x="1191" y="0" type="line"/>
      <point x="1063" y="0" type="line"/>
      <point x="1063" y="832" type="line"/>
      <point x="732" y="0" type="line"/>
      <point x="632" y="0" type="line"/>
      <point x="301" y="830" type="line"/>
      <point x="301" y="0" type="line"/>
      <point x="173" y="0" type="line"/>
      <point x="173" y="986" type="line"/>
      <point x="357" y="986" type="line"/>
      <point x="683" y="155" type="line"/>
      <point x="1007" y="984" type="line"/>
      <point x="1191" y="984" type="line"/>
    </contour>
  </outline>
</glyph>
<glyph name="afii10081" format="2">
  <advance width="1100"/>
  <unicode hex="043F"/>
  <outline>
    <contour>
      <point x="949" y="0" type="line"/>
      <point x="823" y="0" type="line"/>
      <point x="823" y="588" type="line" smooth="yes"/>
      <point x="823" y="644"/>
      <point x="802" y="750"/>
      <point x="751" y="832"/>
      <point x="667" y="882"/>
      <point x="604" y="882" type="qcurve" smooth="yes"/>
      <point x="541" y="882"/>
      <point x="430" y="830"/>
      <point x="346" y="742"/>
      <point x="298" y="628"/>
      <point x="298" y="568" type="qcurve" smooth="yes"/>
      <point x="298" y="0" type="line"/>
      <point x="173" y="0" type="line"/>
      <point x="173" y="986" type="line"/>
      <point x="298" y="986" type="line"/>
      <point x="298" y="816" type="line"/>
      <point x="322" y="858"/>
      <point x="391" y="927"/>
      <point x="473" y="976"/>
      <point x="565" y="1003"/>
      <point x="613" y="1003" type="qcurve" smooth="yes"/>
      <point x="700" y="1003"/>
      <point x="826" y="942"/>
      <point x="909" y="835"/>
      <point x="949" y="689"/>
      <point x="949" y="604" type="qcurve" smooth="yes"/>
    </contour>
  </outline>
</glyph>
<glyph name="afii10089" format="2">
  <advance width="1058"/>
  <unicode hex="0447"/>
  <outline>
    <contour>
      <point x="885" y="0" type="line"/>
      <point x="758" y="0" type="line"/>
      <point x="758" y="446" type="line"/>
      <point x="742" y="410"/>
      <point x="682" y="336"/>
      <point x="600" y="278"/>
      <point x="498" y="241"/>
      <point x="440" y="241" type="qcurve" smooth="yes"/>
      <point x="437" y="241"/>
      <point x="435" y="241" type="qcurve" smooth="yes"/>
      <point x="351" y="241"/>
      <point x="226" y="304"/>
      <point x="143" y="417"/>
      <point x="104" y="572"/>
      <point x="104" y="662" type="qcurve" smooth="yes"/>
      <point x="104" y="986" type="line"/>
      <point x="232" y="986" type="line"/>
      <point x="232" y="657" type="line" smooth="yes"/>
      <point x="232" y="596"/>
      <point x="252" y="483"/>
      <point x="302" y="396"/>
      <point x="385" y="344"/>
      <point x="448" y="344" type="qcurve" smooth="yes"/>
      <point x="511" y="344"/>
      <point x="624" y="400"/>
      <point x="709" y="494"/>
      <point x="758" y="614"/>
      <point x="758" y="676" type="qcurve" smooth="yes"/>
      <point x="758" y="986" type="line"/>
      <point x="885" y="986" type="line"/>
    </contour>
  </outline>
</glyph>
<glyph name="afii10091" format="2">
  <advance width="1697"/>
  <unicode hex="0449"/>
  <outline>
    <contour>
      <point x="1610" y="-304" type="line"/>
      <point x="1517" y="-304" type="line"/>
      <point x="1517" y="-23" type="line"/>
      <point x="1491" y="-23"/>
      <point x="1443" y="3"/>
      <point x="1406" y="49"/>
      <point x="1380" y="111"/>
      <point x="1377" y="148" type="qcurve"/>
      <point x="1375" y="159"/>
      <point x="1374" y="179"/>
      <point x="1373" y="190" type="qcurve"/>
      <point x="1337" y="87"/>
      <point x="1193" y="-18"/>
      <point x="1099" y="-18" type="qcurve" smooth="yes"/>
      <point x="1045" y="-18"/>
      <point x="950" y="7"/>
      <point x="870" y="60"/>
      <point x="809" y="140"/>
      <point x="790" y="195" type="qcurve"/>
      <point x="699" y="-16"/>
      <point x="489" y="-16" type="qcurve" smooth="yes"/>
      <point x="403" y="-16"/>
      <point x="276" y="41"/>
      <point x="192" y="145"/>
      <point x="150" y="293"/>
      <point x="150" y="384" type="qcurve" smooth="yes"/>
      <point x="150" y="986" type="line"/>
      <point x="278" y="986" type="line"/>
      <point x="278" y="399" type="line" smooth="yes"/>
      <point x="278" y="331"/>
      <point x="303" y="216"/>
      <point x="357" y="132"/>
      <point x="440" y="85"/>
      <point x="498" y="85" type="qcurve" smooth="yes"/>
      <point x="500" y="85"/>
      <point x="502" y="85" type="qcurve" smooth="yes"/>
      <point x="561" y="85"/>
      <point x="657" y="140"/>
      <point x="726" y="233"/>
      <point x="763" y="355"/>
      <point x="763" y="421" type="qcurve" smooth="yes"/>
      <point x="763" y="986" type="line"/>
      <point x="890" y="986" type="line"/>
      <point x="890" y="395" type="line" smooth="yes"/>
      <point x="890" y="325"/>
      <point x="915" y="211"/>
      <point x="968" y="130"/>
      <point x="1051" y="85"/>
      <point x="1108" y="85" type="qcurve" smooth="yes"/>
      <point x="1110" y="85"/>
      <point x="1112" y="85" type="qcurve" smooth="yes"/>
      <point x="1171" y="85"/>
      <point x="1267" y="140"/>
      <point x="1336" y="234"/>
      <point x="1373" y="356"/>
      <point x="1373" y="421" type="qcurve" smooth="yes"/>
      <point x="1373" y="986" type="line"/>
      <point x="1501" y="986" type="line"/>
      <point x="1501" y="203" type="line" smooth="yes"/>
      <point x="1501" y="130"/>
      <point x="1582" y="51"/>
      <point x="1643" y="51" type="qcurve"/>
    </contour>
  </outline>
</glyph>
<glyph name="afii10093" format="2">
  <advance width="1387"/>
  <unicode hex="044B"/>
  <outline>
    <contour>
      <point x="590" y="-20" type="qcurve" smooth="yes"/>
      <point x="517" y="-20"/>
      <point x="374" y="22"/>
      <point x="260" y="114"/>
      <point x="190" y="256"/>
      <point x="190" y="357" type="qcurve" smooth="yes"/>
      <point x="190" y="986" type="line"/>
      <point x="319" y="986" type="line"/>
      <point x="319" y="640" type="line"/>
      <point x="336" y="673"/>
      <point x="388" y="730"/>
      <point x="456" y="771"/>
      <point x="540" y="795"/>
      <point x="589" y="795" type="qcurve" smooth="yes"/>
      <point x="674" y="795"/>
      <point x="827" y="741"/>
      <point x="942" y="638"/>
      <point x="1009" y="486"/>
      <point x="1009" y="388" type="qcurve" smooth="yes"/>
      <point x="1009" y="385"/>
      <point x="1009" y="382" type="qcurve" smooth="yes"/>
      <point x="1009" y="288"/>
      <point x="943" y="138"/>
      <point x="829" y="34"/>
      <point x="676" y="-20"/>
    </contour>
    <contour>
      <point x="1294" y="0" type="line"/>
      <point x="1167" y="0" type="line"/>
      <point x="1167" y="986" type="line"/>
      <point x="1294" y="986" type="line"/>
    </contour>
    <contour>
      <point x="590" y="92" type="qcurve" smooth="yes"/>
      <point x="651" y="92"/>
      <point x="752" y="137"/>
      <point x="824" y="216"/>
      <point x="864" y="324"/>
      <point x="864" y="388" type="qcurve" smooth="yes"/>
      <point x="864" y="448"/>
      <point x="826" y="555"/>
      <point x="756" y="635"/>
      <point x="654" y="682"/>
      <point x="590" y="682" type="qcurve" smooth="yes"/>
      <point x="532" y="682"/>
      <point x="434" y="640"/>
      <point x="363" y="568"/>
      <point x="321" y="471"/>
      <point x="319" y="415" type="qcurve"/>
      <point x="319" y="388" type="line" smooth="yes"/>
      <point x="319" y="325"/>
      <point x="354" y="217"/>
      <point x="422" y="138"/>
      <point x="524" y="92"/>
    </contour>
  </outline>
</glyph>
<glyph name="afii10094" format="2">
  <advance width="1092"/>
  <unicode hex="044C"/>
  <outline>
    <contour>
      <point x="570" y="-20" type="qcurve" smooth="yes"/>
      <point x="487" y="-20"/>
      <point x="342" y="29"/>
      <point x="233" y="125"/>
      <point x="170" y="266"/>
      <point x="170" y="357" type="qcurve" smooth="yes"/>
      <point x="170" y="986" type="line"/>
      <point x="299" y="986" type="line"/>
      <point x="299" y="640" type="line"/>
      <point x="337" y="709"/>
      <point x="473" y="795"/>
      <point x="570" y="795" type="qcurve" smooth="yes"/>
      <point x="655" y="795"/>
      <point x="808" y="741"/>
      <point x="922" y="637"/>
      <point x="989" y="485"/>
      <point x="989" y="388" type="qcurve" smooth="yes"/>
      <point x="989" y="385"/>
      <point x="989" y="382" type="qcurve" smooth="yes"/>
      <point x="989" y="288"/>
      <point x="924" y="138"/>
      <point x="809" y="34"/>
      <point x="656" y="-20"/>
    </contour>
    <contour>
      <point x="570" y="92" type="qcurve" smooth="yes"/>
      <point x="631" y="92"/>
      <point x="732" y="136"/>
      <point x="805" y="215"/>
      <point x="845" y="323"/>
      <point x="845" y="388" type="qcurve" smooth="yes"/>
      <point x="845" y="448"/>
      <point x="807" y="554"/>
      <point x="737" y="635"/>
      <point x="634" y="682"/>
      <point x="570" y="682" type="qcurve" smooth="yes"/>
      <point x="511" y="682"/>
      <point x="414" y="641"/>
      <point x="343" y="569"/>
      <point x="301" y="471"/>
      <point x="299" y="415" type="qcurve"/>
      <point x="299" y="388" type="line" smooth="yes"/>
      <point x="299" y="328"/>
      <point x="333" y="220"/>
      <point x="401" y="139"/>
      <point x="503" y="92"/>
    </contour>
  </outline>
</glyph>
<glyph name="afii10095" format="2">
  <advance width="952"/>
  <unicode hex="044D"/>
  <outline>
    <contour>
      <point x="441" y="-20" type="qcurve" smooth="yes"/>
      <point x="311" y="-20"/>
      <point x="123" y="107"/>
      <point x="79" y="235" type="qcurve"/>
      <point x="186" y="283" type="line"/>
      <point x="198" y="239"/>
      <point x="245" y="165"/>
      <point x="312" y="112"/>
      <point x="395" y="83"/>
      <point x="443" y="83" type="qcurve" smooth="yes"/>
      <point x="503" y="83"/>
      <point x="602" y="131"/>
      <point x="676" y="221"/>
      <point x="722" y="352"/>
      <point x="729" y="435" type="qcurve"/>
      <point x="320" y="435" type="line"/>
      <point x="320" y="528" type="line"/>
      <point x="729" y="528" type="line"/>
      <point x="725" y="602"/>
      <point x="687" y="737"/>
      <point x="616" y="839"/>
      <point x="514" y="899"/>
      <point x="447" y="899" type="qcurve" smooth="yes"/>
      <point x="445" y="899"/>
      <point x="443" y="899" type="qcurve" smooth="yes"/>
      <point x="396" y="899"/>
      <point x="313" y="870"/>
      <point x="246" y="817"/>
      <point x="198" y="744"/>
      <point x="186" y="700" type="qcurve"/>
      <point x="127" y="726" type="line"/>
      <point x="111" y="732"/>
      <point x="81" y="745"/>
      <point x="67" y="752" type="qcurve"/>
      <point x="91" y="809"/>
      <point x="163" y="901"/>
      <point x="258" y="967"/>
      <point x="374" y="1003"/>
      <point x="443" y="1003" type="qcurve" smooth="yes"/>
      <point x="543" y="1003"/>
      <point x="698" y="922"/>
      <point x="804" y="783"/>
      <point x="859" y="597"/>
      <point x="859" y="491" type="qcurve" smooth="yes"/>
      <point x="859" y="390"/>
      <point x="808" y="206"/>
      <point x="704" y="64"/>
      <point x="547" y="-20"/>
    </contour>
  </outline>
</glyph>
<glyph name="afii10101" format="2">
  <advance width="952"/>
  <unicode hex="0454"/>
  <outline>
    <contour>
      <point x="512" y="-20" type="qcurve" smooth="yes"/>
      <point x="410" y="-20"/>
      <point x="253" y="60"/>
      <point x="147" y="198"/>
      <point x="93" y="384"/>
      <point x="93" y="491" type="qcurve" smooth="yes"/>
      <point x="93" y="583"/>
      <point x="140" y="766"/>
      <point x="240" y="912"/>
      <point x="399" y="1003"/>
      <point x="510" y="1003" type="qcurve" smooth="yes"/>
      <point x="577" y="1003"/>
      <point x="693" y="967"/>
      <point x="787" y="901"/>
      <point x="859" y="809"/>
      <point x="884" y="752" type="qcurve"/>
      <point x="766" y="699" type="line"/>
      <point x="739" y="792"/>
      <point x="602" y="899"/>
      <point x="510" y="899" type="qcurve" smooth="yes"/>
      <point x="441" y="899"/>
      <point x="337" y="841"/>
      <point x="265" y="741"/>
      <point x="226" y="606"/>
      <point x="222" y="528" type="qcurve"/>
      <point x="632" y="528" type="line"/>
      <point x="632" y="435" type="line"/>
      <point x="222" y="435" type="line"/>
      <point x="228" y="358"/>
      <point x="271" y="229"/>
      <point x="343" y="135"/>
      <point x="445" y="83"/>
      <point x="510" y="83" type="qcurve" smooth="yes"/>
      <point x="557" y="83"/>
      <point x="639" y="113"/>
      <point x="705" y="166"/>
      <point x="753" y="239"/>
      <point x="766" y="283" type="qcurve"/>
      <point x="873" y="235" type="line"/>
      <point x="850" y="172"/>
      <point x="779" y="76"/>
      <point x="686" y="12"/>
      <point x="574" y="-20"/>
    </contour>
  </outline>
</glyph>
<glyph name="uni045D" format="2">
  <advance width="1120"/>
  <unicode hex="045D"/>
  <outline>
    <contour>
      <point x="629" y="1121" type="line"/>
      <point x="499" y="1121" type="line"/>
      <point x="275" y="1396" type="line"/>
      <point x="424" y="1396" type="line"/>
    </contour>
    <contour>
      <point x="507" y="-23" type="qcurve" smooth="yes"/>
      <point x="420" y="-23"/>
      <point x="294" y="39"/>
      <point x="212" y="151"/>
      <point x="173" y="306"/>
      <point x="173" y="398" type="qcurve" smooth="yes"/>
      <point x="173" y="986" type="line"/>
      <point x="298" y="986" type="line"/>
      <point x="298" y="393" type="line" smooth="yes"/>
      <point x="298" y="324"/>
      <point x="322" y="209"/>
      <point x="374" y="127"/>
      <point x="456" y="81"/>
      <point x="514" y="81" type="qcurve" smooth="yes"/>
      <point x="516" y="81"/>
      <point x="518" y="81" type="qcurve" smooth="yes"/>
      <point x="579" y="81"/>
      <point x="689" y="136"/>
      <point x="774" y="230"/>
      <point x="823" y="352"/>
      <point x="823" y="417" type="qcurve" smooth="yes"/>
      <point x="823" y="986" type="line"/>
      <point x="947" y="986" type="line"/>
      <point x="947" y="0" type="line"/>
      <point x="823" y="0" type="line"/>
      <point x="823" y="183" type="line"/>
      <point x="807" y="145"/>
      <point x="748" y="72"/>
      <point x="666" y="13"/>
      <point x="565" y="-23"/>
    </contour>
  </outline>
</glyph>
<glyph name="afii10194" format="2">
  <advance width="972"/>
  <unicode hex="0463"/>
  <outline>
    <contour>
      <point x="175" y="1139" type="line"/>
      <point x="-24" y="1139" type="line"/>
      <point x="-24" y="1241" type="line"/>
      <point x="175" y="1241" type="line"/>
      <point x="175" y="1396" type="line"/>
      <point x="298" y="1396" type="line"/>
      <point x="298" y="1241" type="line"/>
      <point x="512" y="1241" type="line"/>
      <point x="512" y="1139" type="line"/>
      <point x="298" y="1139" type="line"/>
      <point x="298" y="648" type="line"/>
      <point x="493" y="648" type="line"/>
      <point x="586" y="647"/>
      <point x="725" y="615"/>
      <point x="820" y="539"/>
      <point x="868" y="411"/>
      <point x="869" y="314" type="qcurve"/>
      <point x="868" y="234"/>
      <point x="816" y="116"/>
      <point x="718" y="38"/>
      <point x="580" y="0"/>
      <point x="493" y="0" type="qcurve" smooth="yes"/>
      <point x="175" y="0" type="line"/>
    </contour>
    <contour>
      <point x="739" y="320" type="qcurve" smooth="yes"/>
      <point x="739" y="382"/>
      <point x="706" y="469"/>
      <point x="646" y="523"/>
      <point x="561" y="548"/>
      <point x="508" y="548" type="qcurve" smooth="yes"/>
      <point x="298" y="548" type="line"/>
      <point x="298" y="100" type="line"/>
      <point x="508" y="100" type="line" smooth="yes"/>
      <point x="558" y="100"/>
      <point x="643" y="122"/>
      <point x="704" y="173"/>
      <point x="739" y="258"/>
    </contour>
  </outline>
</glyph>
<glyph name="Eiotifiedcyrillic" format="2">
  <advance width="1772"/>
  <unicode hex="0464"/>
  <outline>
    <contour>
      <point x="1119" y="-20" type="qcurve" smooth="yes"/>
      <point x="972" y="-20"/>
      <point x="746" y="79"/>
      <point x="591" y="256"/>
      <point x="507" y="498"/>
      <point x="500" y="642" type="qcurve"/>
      <point x="350" y="642" type="line"/>
      <point x="350" y="0" type="line"/>
      <point x="217" y="0" type="line"/>
      <point x="217" y="1396" type="line"/>
      <point x="350" y="1396" type="line"/>
      <point x="350" y="753" type="line"/>
      <point x="500" y="753" type="line"/>
      <point x="506" y="888"/>
      <point x="585" y="1130"/>
      <point x="738" y="1312"/>
      <point x="964" y="1419"/>
      <point x="1117" y="1419" type="qcurve" smooth="yes"/>
      <point x="1312" y="1419"/>
      <point x="1596" y="1232"/>
      <point x="1672" y="1055" type="qcurve"/>
      <point x="1642" y="1041"/>
      <point x="1581" y="1016"/>
      <point x="1550" y="1004" type="qcurve"/>
      <point x="1527" y="1079"/>
      <point x="1444" y="1189"/>
      <point x="1331" y="1261"/>
      <point x="1193" y="1296"/>
      <point x="1115" y="1296" type="qcurve" smooth="yes"/>
      <point x="1001" y="1296"/>
      <point x="826" y="1216"/>
      <point x="705" y="1071"/>
      <point x="640" y="871"/>
      <point x="635" y="753" type="qcurve"/>
      <point x="1271" y="753" type="line"/>
      <point x="1271" y="642" type="line"/>
      <point x="636" y="642" type="line"/>
      <point x="640" y="520"/>
      <point x="706" y="321"/>
      <point x="827" y="179"/>
      <point x="1003" y="102"/>
      <point x="1119" y="102" type="qcurve" smooth="yes"/>
      <point x="1442" y="102"/>
      <point x="1550" y="397" type="qcurve"/>
      <point x="1615" y="371" type="line"/>
      <point x="1630" y="364"/>
      <point x="1660" y="352"/>
      <point x="1675" y="346" type="qcurve"/>
      <point x="1634" y="253"/>
      <point x="1520" y="115"/>
      <point x="1378" y="25"/>
      <point x="1211" y="-20"/>
    </contour>
  </outline>
</glyph>
<glyph name="Yuslittlecyrillic" format="2">
  <advance width="1283"/>
  <unicode hex="0466"/>
  <outline>
    <contour>
      <point x="1209" y="0" type="line"/>
      <point x="1065" y="0" type="line"/>
      <point x="833" y="659" type="line"/>
      <point x="708" y="659" type="line"/>
      <point x="708" y="0" type="line"/>
      <point x="576" y="0" type="line"/>
      <point x="576" y="659" type="line"/>
      <point x="453" y="659" type="line"/>
      <point x="220" y="0" type="line"/>
      <point x="74" y="0" type="line"/>
      <point x="590" y="1396" type="line"/>
      <point x="694" y="1396" type="line"/>
    </contour>
    <contour>
      <point x="793" y="772" type="line"/>
      <point x="643" y="1201" type="line"/>
      <point x="492" y="772" type="line"/>
    </contour>
  </outline>
</glyph>
<glyph name="yuslittleiotifiedcyrillic" format="2">
  <advance width="1310"/>
  <unicode hex="0469"/>
  <outline>
    <contour>
      <point x="1236" y="0" type="line"/>
      <point x="1088" y="0" type="line"/>
      <point x="962" y="400" type="line"/>
      <point x="870" y="400" type="line"/>
      <point x="870" y="0" type="line"/>
      <point x="745" y="0" type="line"/>
      <point x="745" y="400" type="line"/>
      <point x="662" y="400" type="line"/>
      <point x="508" y="0" type="line"/>
      <point x="379" y="0" type="line"/>
      <point x="527" y="388" type="line"/>
      <point x="298" y="388" type="line"/>
      <point x="298" y="0" type="line"/>
      <point x="173" y="0" type="line"/>
      <point x="173" y="986" type="line"/>
      <point x="298" y="986" type="line"/>
      <point x="298" y="490" type="line"/>
      <point x="566" y="490" type="line"/>
      <point x="755" y="986" type="line"/>
      <point x="862" y="986" type="line"/>
    </contour>
    <contour>
      <point x="929" y="499" type="line"/>
      <point x="811" y="829" type="line"/>
      <point x="696" y="499" type="line"/>
    </contour>
  </outline>
</glyph>
<glyph name="yusbigcyrillic" format="2">
  <advance width="1238"/>
  <unicode hex="046B"/>
  <outline>
    <contour>
      <point x="1164" y="0" type="line"/>
      <point x="1017" y="0" type="line"/>
      <point x="893" y="363" type="line" smooth="yes"/>
      <point x="880" y="400"/>
      <point x="849" y="450"/>
      <point x="801" y="480"/>
      <point x="733" y="493"/>
      <point x="684" y="493" type="qcurve"/>
      <point x="684" y="0" type="line"/>
      <point x="554" y="0" type="line"/>
      <point x="554" y="493" type="line"/>
      <point x="492" y="493"/>
      <point x="418" y="474"/>
      <point x="374" y="435"/>
      <point x="349" y="375"/>
      <point x="334" y="333" type="qcurve" smooth="yes"/>
      <point x="220" y="0" type="line"/>
      <point x="74" y="0" type="line"/>
      <point x="232" y="425" type="line" smooth="yes"/>
      <point x="261" y="503"/>
      <point x="379" y="584"/>
      <point x="472" y="584" type="qcurve"/>
      <point x="225" y="884" type="line"/>
      <point x="225" y="986" type="line"/>
      <point x="1012" y="986" type="line"/>
      <point x="1012" y="884" type="line"/>
      <point x="768" y="584" type="line"/>
      <point x="859" y="584"/>
      <point x="976" y="502"/>
      <point x="1005" y="425" type="qcurve" smooth="yes"/>
    </contour>
    <contour>
      <point x="617" y="584" type="line"/>
      <point x="856" y="885" type="line"/>
      <point x="379" y="885" type="line"/>
    </contour>
  </outline>
</glyph>
<glyph name="Yusbigiotifiedcyrillic" format="2">
  <advance width="1865"/>
  <unicode hex="046C"/>
  <outline>
    <contour>
      <point x="1783" y="0" type="line"/>
      <point x="1642" y="0" type="line"/>
      <point x="1573" y="164"/>
      <point x="1467" y="422"/>
      <point x="1428" y="522" type="qcurve" smooth="yes"/>
      <point x="1420" y="541"/>
      <point x="1397" y="581"/>
      <point x="1364" y="614"/>
      <point x="1319" y="634"/>
      <point x="1289" y="634" type="qcurve" smooth="yes"/>
      <point x="1180" y="634" type="line"/>
      <point x="1180" y="0" type="line"/>
      <point x="1044" y="0" type="line"/>
      <point x="1044" y="634" type="line"/>
      <point x="936" y="634" type="line" smooth="yes"/>
      <point x="892" y="634"/>
      <point x="833" y="595"/>
      <point x="819" y="573" type="qcurve" smooth="yes"/>
      <point x="811" y="561"/>
      <point x="796" y="529"/>
      <point x="787" y="508" type="qcurve" smooth="yes"/>
      <point x="581" y="0" type="line"/>
      <point x="440" y="0" type="line"/>
      <point x="681" y="581" type="line"/>
      <point x="691" y="607"/>
      <point x="714" y="639" type="qcurve"/>
      <point x="350" y="639" type="line"/>
      <point x="350" y="0" type="line"/>
      <point x="217" y="0" type="line"/>
      <point x="217" y="1396" type="line"/>
      <point x="350" y="1396" type="line"/>
      <point x="350" y="746" type="line"/>
      <point x="987" y="746" type="line"/>
      <point x="594" y="1285" type="line"/>
      <point x="594" y="1396" type="line"/>
      <point x="1627" y="1396" type="line"/>
      <point x="1627" y="1285" type="line"/>
      <point x="1232" y="745" type="line"/>
      <point x="1297" y="745"/>
      <point x="1397" y="728"/>
      <point x="1472" y="687"/>
      <point x="1526" y="622"/>
      <point x="1546" y="574" type="qcurve" smooth="yes"/>
    </contour>
    <contour>
      <point x="1109" y="790" type="line"/>
      <point x="1475" y="1286" type="line"/>
      <point x="746" y="1286" type="line"/>
      <point x="789" y="1226"/>
      <point x="872" y="1112"/>
      <point x="954" y="1000"/>
      <point x="1037" y="888"/>
      <point x="1080" y="829" type="qcurve" smooth="yes"/>
    </contour>
  </outline>
</glyph>
<glyph name="afii10196" format="2">
  <advance width="951"/>
  <unicode hex="0475"/>
  <outline>
    <contour>
      <point x="480" y="0" type="line"/>
      <point x="364" y="0" type="line"/>
      <point x="46" y="986" type="line"/>
      <point x="184" y="986" type="line"/>
      <point x="422" y="164" type="line"/>
      <point x="465" y="280"/>
      <point x="543" y="505"/>
      <point x="579" y="601" type="qcurve"/>
      <point x="618" y="701"/>
      <point x="699" y="847"/>
      <point x="781" y="941"/>
      <point x="863" y="986"/>
      <point x="905" y="987" type="qcurve"/>
      <point x="905" y="851" type="line"/>
      <point x="879" y="845"/>
      <point x="831" y="816"/>
      <point x="784" y="759"/>
      <point x="736" y="667"/>
      <point x="710" y="598" type="qcurve" smooth="yes"/>
      <point x="567" y="227"/>
      <point x="494" y="37" type="qcurve" smooth="yes"/>
    </contour>
  </outline>
</glyph>
<glyph name="ukcyrillic" format="2">
  <advance width="2056"/>
  <unicode hex="0479"/>
  <outline>
    <contour>
      <point x="92" y="489" type="qcurve" smooth="yes"/>
      <point x="92" y="589"/>
      <point x="156" y="774"/>
      <point x="275" y="915"/>
      <point x="445" y="999"/>
      <point x="551" y="999" type="qcurve" smooth="yes"/>
      <point x="652" y="999"/>
      <point x="821" y="919"/>
      <point x="944" y="780"/>
      <point x="1012" y="594"/>
      <point x="1012" y="489" type="qcurve" smooth="yes"/>
      <point x="1012" y="385"/>
      <point x="945" y="200"/>
      <point x="823" y="61"/>
      <point x="653" y="-20"/>
      <point x="551" y="-20" type="qcurve" smooth="yes"/>
      <point x="549" y="-20"/>
      <point x="546" y="-20" type="qcurve" smooth="yes"/>
      <point x="448" y="-20"/>
      <point x="281" y="59"/>
      <point x="159" y="198"/>
      <point x="92" y="384"/>
    </contour>
    <contour>
      <point x="1493" y="-426" type="line"/>
      <point x="1360" y="-426" type="line"/>
      <point x="1527" y="-1" type="line"/>
      <point x="1148" y="986" type="line"/>
      <point x="1290" y="986" type="line"/>
      <point x="1587" y="153" type="line"/>
      <point x="1875" y="986" type="line"/>
      <point x="2015" y="986" type="line"/>
    </contour>
    <contour>
      <point x="873" y="489" type="qcurve" smooth="yes"/>
      <point x="873" y="573"/>
      <point x="831" y="718"/>
      <point x="750" y="823"/>
      <point x="630" y="883"/>
      <point x="551" y="883" type="qcurve" smooth="yes"/>
      <point x="477" y="883"/>
      <point x="358" y="824"/>
      <point x="275" y="719"/>
      <point x="231" y="574"/>
      <point x="231" y="489" type="qcurve" smooth="yes"/>
      <point x="231" y="404"/>
      <point x="275" y="260"/>
      <point x="357" y="155"/>
      <point x="476" y="96"/>
      <point x="551" y="96" type="qcurve" smooth="yes"/>
      <point x="627" y="96"/>
      <point x="747" y="154"/>
      <point x="830" y="259"/>
      <point x="873" y="403"/>
    </contour>
  </outline>
</glyph>
<glyph name="titlocyrilliccmb" format="2">
  <unicode hex="0483"/>
  <outline>
    <contour>
      <point x="-819" y="1526" type="line"/>
      <point x="-914" y="1526" type="line"/>
      <point x="-914" y="1764" type="line"/>
      <point x="-231" y="1764" type="line"/>
      <point x="-231" y="1901" type="line"/>
      <point x="-129" y="1901" type="line"/>
      <point x="-129" y="1683" type="line"/>
      <point x="-819" y="1683" type="line"/>
    </contour>
  </outline>
</glyph>
